<?xml version="1.0" encoding="utf-8"?>
<!-- Generator: Adobe Illustrator 19.1.0, SVG Export Plug-In . SVG Version: 6.00 Build 0)  -->
<!-- License: CC0 1.0 Universal: http://creativecommons.org/publicdomain/zero/1.0/ Contributors: Dario Ferrando, Benjamin Sigidi https://github.com/linea-io/Linea-Iconset -->

<svg version="1.1" stroke="#000" id="Layer_1" xmlns="http://www.w3.org/2000/svg" xmlns:xlink="http://www.w3.org/1999/xlink" x="0px" y="0px" viewBox="0 0 800 800" style="enable-background:new 0 0 800 800" width="800px" height="800px" xml:space="preserve">

<g>
	<g>
		<g>
			<path fill="none" stroke-width="28" stroke-linecap="round" stroke-linejoin="round" stroke-miterlimit="10"  d="M388,27c-92.4,0-184.7,35.2-255.2,105.7C47.4,218.1,10,343.3,34.6,461.6c6.9,33.3,18.5,65.5,34.4,95.5
				c25,47,65.2,82.5,102.4,119.7"/>
		</g>
		<polyline fill="none" stroke-width="28" stroke-linecap="round" stroke-linejoin="round" stroke-miterlimit="10"  points="171.4,544.4 171.4,676.7 39,676.7 		"/>
	</g>
	<g>
		<g>
			<path fill="none" stroke-width="28" stroke-linecap="round" stroke-linejoin="round" stroke-miterlimit="10"  d="M412,773c92.4,0,184.7-35.2,255.2-105.7c86.8-86.8,123.8-214.6,97-334.3c-11.6-52-33.5-106.3-71-145.1
				c-21.2-21.9-43.1-43.1-64.6-64.6"/>
		</g>
		<polyline fill="none" stroke-width="28" stroke-linecap="round" stroke-linejoin="round" stroke-miterlimit="10"  points="628.6,255.6 628.6,123.3 761,123.3 		"/>
	</g>
</g>
</svg>
