<?xml version="1.0" encoding="utf-8"?>
<!-- Generator: Adobe Illustrator 19.1.0, SVG Export Plug-In . SVG Version: 6.00 Build 0)  -->
<!-- License: CC0 1.0 Universal: http://creativecommons.org/publicdomain/zero/1.0/ Contributors: Dario Ferrando, Benjamin Sigidi https://github.com/linea-io/Linea-Iconset -->

<svg version="1.1" stroke="#000" id="Layer_1" xmlns="http://www.w3.org/2000/svg" xmlns:xlink="http://www.w3.org/1999/xlink" x="0px" y="0px" viewBox="0 0 800 800" style="enable-background:new 0 0 800 800" width="800px" height="800px" xml:space="preserve">

<g>
	<g>
		<g>
			<path fill="none" stroke-width="28" stroke-linecap="round" stroke-linejoin="round" stroke-miterlimit="10"  d="M628.6,676.8c37.1-37.2,77.4-72.7,102.4-119.7c15.9-30,27.5-62.3,34.4-95.5
				c24.5-118.2-12.8-243.4-98.2-328.8C596.8,62.2,504.4,27,412,27"/>
		</g>
		<polyline fill="none" stroke-width="28" stroke-linecap="round" stroke-linejoin="round" stroke-miterlimit="10"  points="761,676.7 628.6,676.7 628.6,544.4 		"/>
	</g>
	<g>
		<g>
			<path fill="none" stroke-width="28" stroke-linecap="round" stroke-linejoin="round" stroke-miterlimit="10"  d="M171.4,123.2c-21.5,21.5-43.4,42.7-64.6,64.6c-37.6,38.8-59.4,93.1-71,145.1C8.9,452.7,46,580.5,132.7,667.3
				C203.2,737.8,295.6,773,388,773"/>
		</g>
		<polyline fill="none" stroke-width="28" stroke-linecap="round" stroke-linejoin="round" stroke-miterlimit="10"  points="39,123.3 171.4,123.3 171.4,255.6 		"/>
	</g>
</g>
</svg>
