<?xml version="1.0" encoding="utf-8"?>
<!-- Generator: Adobe Illustrator 19.1.0, SVG Export Plug-In . SVG Version: 6.00 Build 0)  -->
<svg version="1.1" stroke="#000" id="Layer_1" xmlns="http://www.w3.org/2000/svg" xmlns:xlink="http://www.w3.org/1999/xlink" x="0px" y="0px"
	 viewBox="0 0 800 800" style="enable-background:new 0 0 800 800" width="800px" height="800px" xml:space="preserve">

	<g>
		<path fill="none" stroke-width="28" stroke-linecap="round" stroke-linejoin="round" stroke-miterlimit="10"  d="M742.4,357.6c-23.6,9.9-39.3,10-64.8-0.4c-51.2-20.9-73.7-74.4-52.8-125.6c10.4-25.6,21.4-36.7,45-46.6
			l-39.6-94.2L18,348.2l39.6,94.2c23.6-9.9,39.3-10,64.8,0.4c51.2,20.9,73.7,74.4,52.8,125.6c-10.4,25.6-21.4,36.7-45,46.6
			l39.6,94.2L782,451.8L742.4,357.6z"/>
		<line fill="none" stroke-width="28" stroke-linecap="round" stroke-linejoin="round" stroke-miterlimit="10"  x1="410.4" y1="183.2" x2="436.8" y2="246"/>
		<line fill="none" stroke-width="28" stroke-linecap="round" stroke-linejoin="round" stroke-miterlimit="10"  x1="535.8" y1="481.4" x2="562.2" y2="544.2"/>
	
	<line fill="none" stroke-width="28" stroke-linecap="round" stroke-linejoin="round" stroke-miterlimit="10"  x1="450" y1="277.4" x2="476.4" y2="340.2"/>
	<line fill="none" stroke-width="28" stroke-linecap="round" stroke-linejoin="round" stroke-miterlimit="10"  x1="496.2" y1="387.2" x2="522.6" y2="450"/>
</g>
</svg>
