<?xml version="1.0" encoding="utf-8"?>
<!-- Generator: Adobe Illustrator 19.1.0, SVG Export Plug-In . SVG Version: 6.00 Build 0)  -->
<svg version="1.1" stroke="#000" xmlns="http://www.w3.org/2000/svg" xmlns:xlink="http://www.w3.org/1999/xlink" x="0px" y="0px"
	 viewBox="0 0 800 800" style="enable-background:new 0 0 800 800" width="800px" height="800px" xml:space="preserve">


	<g>
		<path fill="none" stroke-width="28" stroke-linecap="round" stroke-linejoin="round" stroke-miterlimit="10"  d="M47.1,655.1c-11.1,0-20.1-9-20.1-20c-0.1-62.1,0-336.7,0-413.6c0-11.1,9-20.1,20.1-20.1h324.3l27.7-50.8
			c0-4.4,7.3-5.8,8.8-5.8h157.6c1.5,0,8.8,1.5,8.8,5.8l29.2,50.8H669h83.8c11,0,19.9,8.8,20.1,19.8c0.3,26.2-0.3,413.8-0.3,413.8
			c0,11.1-9,20.1-20.1,20.1H47.1z"/>
		<line fill="none" stroke-width="28" stroke-linecap="round" stroke-linejoin="round" stroke-miterlimit="10" class="st1" x1="99.9" y1="455.2" x2="217.2" y2="455.2"/>
		<line fill="none" stroke-width="28" stroke-linecap="round" stroke-linejoin="round" stroke-miterlimit="10" class="st1" x1="99.9" y1="498.3" x2="217.2" y2="498.3"/>
		<line fill="none" stroke-width="28" stroke-linecap="round" stroke-linejoin="round" stroke-miterlimit="10" class="st1" x1="99.9" y1="541.5" x2="217.2" y2="541.5"/>
		<circle fill="none" stroke-width="28" stroke-linecap="round" stroke-linejoin="round" stroke-miterlimit="10"  cx="498.4" cy="424.5" r="159.8"/>
		<circle fill="none" stroke-width="28" stroke-linecap="round" stroke-linejoin="round" stroke-miterlimit="10"  cx="498.4" cy="424.5" r="59.5"/>
		<path fill="none" stroke-width="28" stroke-linecap="round" stroke-linejoin="round" stroke-miterlimit="10"  d="M110.9,199.3v-29.1c0-6.6,5.4-12,12-12h102.3c6.6,0,12,5.4,12,12v29.1"/>
	</g>

</svg>
