<?xml version="1.0" encoding="utf-8"?>
<!-- Generator: Adobe Illustrator 19.1.0, SVG Export Plug-In . SVG Version: 6.00 Build 0)  -->
<svg version="1.1" stroke="#000" id="Layer_1" xmlns="http://www.w3.org/2000/svg" xmlns:xlink="http://www.w3.org/1999/xlink" x="0px" y="0px"
	 viewBox="0 0 800 800" style="enable-background:new 0 0 800 800" width="800px" height="800px" xml:space="preserve">

	<path fill="none" stroke-width="28" stroke-linecap="round" stroke-linejoin="round" stroke-miterlimit="10"  d="M227.5,27h344.9c11.1,0,20.1,9,20.1,20.1v705.9c0,11.1-9,20.1-20.1,20.1H227.5c-11.1,0-20.1-9-20.1-20.1V47.1
		C207.5,36,216.5,27,227.5,27z"/>
	<line fill="none" stroke-width="28" stroke-linecap="round" stroke-linejoin="round" stroke-miterlimit="10"  x1="351.9" y1="75.1" x2="448.1" y2="75.1"/>
	<line fill="none" stroke-width="28" stroke-linecap="round" stroke-linejoin="round" stroke-miterlimit="10"  x1="207.5" y1="638.6" x2="592.5" y2="638.6"/>
	<line fill="none" stroke-width="28" stroke-linecap="round" stroke-linejoin="round" stroke-miterlimit="10"  x1="207.5" y1="123.3" x2="592.5" y2="123.3"/>
	<g>
		<path fill="none" stroke-width="28" stroke-linecap="round" stroke-linejoin="round" stroke-miterlimit="10" d="M400,678.7c-15.5,0-28.1,12.6-28.1,28.1s12.6,28.1,28.1,28.1s28.1-12.6,28.1-28.1S415.5,678.7,400,678.7L400,678.7z"/>
	</g>

</svg>
