<?xml version="1.0" encoding="utf-8"?>
<!-- Generator: Adobe Illustrator 19.1.0, SVG Export Plug-In . SVG Version: 6.00 Build 0)  -->
<svg version="1.1" stroke="#000" id="Layer_1" xmlns="http://www.w3.org/2000/svg" xmlns:xlink="http://www.w3.org/1999/xlink" x="0px" y="0px"
	 viewBox="0 0 800 800" style="enable-background:new 0 0 800 800" width="800px" height="800px" xml:space="preserve">

<polygon fill="none" stroke-width="28" stroke-linecap="round" stroke-linejoin="round" stroke-miterlimit="10"  points="400,27 327.8,27 327.8,135.3 255.6,159.4 183.4,87.2 87.2,183.4 159.4,255.6 135.3,327.8 27,327.8 
	27,472.2 135.3,472.2 159.4,544.4 87.2,616.6 183.4,712.8 255.6,640.6 327.8,664.7 327.8,773 400,773 472.2,773 472.2,664.7 
	544.4,640.6 616.6,712.8 712.8,616.6 640.6,544.4 664.7,472.2 773,472.2 773,327.8 664.7,327.8 640.6,255.6 712.8,183.4 616.6,87.2 
	544.4,159.4 472.2,135.3 472.2,27 "/>
<circle fill="none" stroke-width="28" stroke-linecap="round" stroke-linejoin="round" stroke-miterlimit="10"  cx="400" cy="400" r="123.3"/>
</svg>
