<?xml version="1.0" encoding="utf-8"?>
<!-- Generator: Adobe Illustrator 19.1.0, SVG Export Plug-In . SVG Version: 6.00 Build 0)  -->
<svg version="1.1" stroke="#000" id="Layer_1" xmlns="http://www.w3.org/2000/svg" xmlns:xlink="http://www.w3.org/1999/xlink" x="0px" y="0px"
	 viewBox="0 0 800 800" style="enable-background:new 0 0 800 800" width="800px" height="800px" xml:space="preserve">

<g>
	<path fill="none" stroke-width="28" stroke-linecap="round" stroke-linejoin="round" stroke-miterlimit="10"  d="M421.7,602.5c-72.4,0-143.3-17.4-209.6-50.1c-66.3-30.9-126.4-77.1-177.2-138.8l-4.6-5.8
		c-4.6-7.7-4.6-15.4,1.5-21.2c50.9-61.7,110.9-108,178.7-138.8c66.3-32.8,137.1-50.1,209.6-50.1s140.2,17.4,200.3,50.1
		c60.1,30.9,110.9,79.1,149.5,138.8c1.5,5.8,3.1,5.8,3.1,11.6v3.9c0,5.8-1.5,5.8-3.1,11.6c-38.5,59.8-89.4,108-149.5,138.8
		C560.4,585.1,494.1,602.5,421.7,602.5L421.7,602.5z"/>
	<path fill="none" stroke-width="28" stroke-linecap="round" stroke-linejoin="round" stroke-miterlimit="10"  d="M420.5,602.6c-55.5,0-105.4-25-141.5-61s-58.3-86-58.3-141.5c0-55.5,22.2-105.4,58.3-141.5s86-61,141.5-61
		s108.2,25,141.5,61c36.1,36.1,61,86,61,141.5c0,55.5-25,105.4-61,141.5C528.7,577.6,476,602.6,420.5,602.6L420.5,602.6z"/>
	<path fill="none" stroke-width="28" stroke-linecap="round" stroke-linejoin="round" stroke-miterlimit="10" class="st1" d="M428.6,254c36.8,0,71.7,16.6,93.8,40.5c23.9,23.9,40.5,57,40.5,93.8"/>
	<path fill="none" stroke-width="28" stroke-linecap="round" stroke-linejoin="round" stroke-miterlimit="10"  d="M421.3,486c-23.6,0-44.8-10.6-60.1-25.9c-15.3-15.3-24.7-36.5-24.7-60.1c0-23.6,9.4-44.8,24.7-60.1
		c15.3-15.3,36.5-25.9,60.1-25.9s45.9,10.6,60.1,25.9c15.3,15.3,25.9,36.5,25.9,60.1c0,23.6-10.6,44.8-25.9,60.1
		C467.3,475.4,444.9,486,421.3,486L421.3,486z"/>
</g>
</svg>
