<?xml version="1.0" encoding="utf-8"?>
<!-- Generator: Adobe Illustrator 19.1.0, SVG Export Plug-In . SVG Version: 6.00 Build 0)  -->
<!-- License: CC0 1.0 Universal: http://creativecommons.org/publicdomain/zero/1.0/ Contributors: Dario Ferrando, Benjamin Sigidi https://github.com/linea-io/Linea-Iconset -->

<svg version="1.1" stroke="#000" id="Layer_1" xmlns="http://www.w3.org/2000/svg" xmlns:xlink="http://www.w3.org/1999/xlink" x="0px" y="0px"
	 viewBox="0 0 800 800" style="enable-background:new 0 0 800 800" width="800px" height="800px" xml:space="preserve">

<polygon fill="none" stroke-width="28" stroke-linecap="round" stroke-linejoin="round" stroke-miterlimit="10" points="108.4,326.9 685.1,326.9 691.6,772.5 114.9,772.5 "/>
<path fill="none" stroke-width="28" stroke-linecap="round" stroke-linejoin="round" stroke-miterlimit="10"  d="M211,326.9V219.8c0-106.2,86.1-192.3,192.3-192.3s192.3,86.1,192.3,192.3v107.1"/>
<path fill="none" stroke-width="28" stroke-linecap="round" stroke-linejoin="round" stroke-miterlimit="10"  d="M426.2,554.4l25.7,94.4h-98.1l24.7-94.4l0,0c-13.1-8-21.9-22.5-21.9-39c0-25.3,20.5-45.7,45.7-45.7
	c25.3,0,45.7,20.5,45.7,45.7C448,531.9,439.3,546.4,426.2,554.4L426.2,554.4z"/>
</svg>
