<?xml version="1.0" encoding="utf-8"?>
<!-- Generator: Adobe Illustrator 19.1.0, SVG Export Plug-In . SVG Version: 6.00 Build 0)  -->
<svg version="1.1" stroke="#000" id="Layer_1" xmlns="http://www.w3.org/2000/svg" xmlns:xlink="http://www.w3.org/1999/xlink" x="0px" y="0px"
	 viewBox="0 0 800 800" style="enable-background:new 0 0 800 800" width="800px" height="800px" xml:space="preserve">
<path fill="none" stroke-width="28" stroke-linecap="round" stroke-linejoin="round" stroke-miterlimit="10"  d="M638.2,197.9c131.6,131.5,131.6,344.9,0,476.4c-131.6,131.6-344.9,131.6-476.4,0
	c-131.6-131.5-131.6-344.9,0-476.4C293.3,66.3,506.6,66.3,638.2,197.9z"/>
<polyline fill="none" stroke-width="28" stroke-linecap="round" stroke-linejoin="round" stroke-miterlimit="10"  points="400,99.2 400,27 472.2,27 "/>
<line fill="none" stroke-width="28" stroke-linecap="round" stroke-linejoin="round" stroke-miterlimit="10"  x1="327.8" y1="27" x2="400" y2="27"/>
<line fill="none" stroke-width="28" stroke-linecap="round" stroke-linejoin="round" stroke-miterlimit="10"  x1="190.2" y1="226.3" x2="224.3" y2="260.4"/>
<line fill="none" stroke-width="28" stroke-linecap="round" stroke-linejoin="round" stroke-miterlimit="10"  x1="575.7" y1="611.8" x2="609.8" y2="645.9"/>
<line fill="none" stroke-width="28" stroke-linecap="round" stroke-linejoin="round" stroke-miterlimit="10"  x1="609.8" y1="226.3" x2="575.7" y2="260.4"/>
<line fill="none" stroke-width="28" stroke-linecap="round" stroke-linejoin="round" stroke-miterlimit="10"  x1="224.3" y1="611.8" x2="190.2" y2="645.9"/>
<line fill="none" stroke-width="28" stroke-linecap="round" stroke-linejoin="round" stroke-miterlimit="10"  x1="529.8" y1="309.3" x2="427.7" y2="411.4"/>
<circle fill="none" stroke-width="28" stroke-linecap="round" stroke-linejoin="round" stroke-miterlimit="10"  cx="400" cy="436.1" r="36.1"/>
<line fill="none" stroke-width="28" stroke-linecap="round" stroke-linejoin="round" stroke-miterlimit="10"  x1="400" y1="139.4" x2="400" y2="187.6"/>
<line fill="none" stroke-width="28" stroke-linecap="round" stroke-linejoin="round" stroke-miterlimit="10"  x1="400" y1="684.6" x2="400" y2="732.8"/>
<line fill="none" stroke-width="28" stroke-linecap="round" stroke-linejoin="round" stroke-miterlimit="10"  x1="103.3" y1="436.1" x2="151.5" y2="436.1"/>
<line fill="none" stroke-width="28" stroke-linecap="round" stroke-linejoin="round" stroke-miterlimit="10"  x1="648.5" y1="436.1" x2="696.7" y2="436.1"/>
</svg>
