<?xml version="1.0" encoding="utf-8"?>
<!-- Generator: Adobe Illustrator 19.1.0, SVG Export Plug-In . SVG Version: 6.00 Build 0)  -->
<svg version="1.1" stroke="#000" id="Layer_1" xmlns="http://www.w3.org/2000/svg" xmlns:xlink="http://www.w3.org/1999/xlink" x="0px" y="0px"
	 viewBox="0 0 800 800" style="enable-background:new 0 0 800 800" width="800px" height="800px" xml:space="preserve">

<g>
	<path fill="none" stroke-width="28" stroke-linecap="round" stroke-linejoin="round" stroke-miterlimit="10"  d="M677.3,300.3c0,133.3-111.1,244.4-244.4,244.4c-133.2,0-244.4-111.1-244.4-244.4
		c0-133.3,111.1-244.4,244.4-244.4C566.2,55.9,677.3,167,677.3,300.3z"/>
	<path fill="none" stroke-width="28" stroke-linecap="round" stroke-linejoin="round" stroke-miterlimit="10"  d="M663.3,525c-125.6,125.7-329.3,125.7-455,0c-125.6-125.7-125.6-329.5,0-455.2"/>
	<line fill="none" stroke-width="28" stroke-linecap="round" stroke-linejoin="round" stroke-miterlimit="10"  x1="609" y1="472.4" x2="685.9" y2="544.7"/>
	<line fill="none" stroke-width="28" stroke-linecap="round" stroke-linejoin="round" stroke-miterlimit="10"  x1="251.3" y1="111.5" x2="171.4" y2="27"/>
	<line fill="none" stroke-width="28" stroke-linecap="round" stroke-linejoin="round" stroke-miterlimit="10"  x1="325" y1="773" x2="556" y2="773"/>
	<line fill="none" stroke-width="28" stroke-linecap="round" stroke-linejoin="round" stroke-miterlimit="10"  x1="441" y1="632" x2="441" y2="760"/>
</g>
</svg>
