<?xml version="1.0" encoding="utf-8"?>
<!-- Generator: Adobe Illustrator 19.1.0, SVG Export Plug-In . SVG Version: 6.00 Build 0)  -->
<svg version="1.1" stroke="#000" id="Layer_1" xmlns="http://www.w3.org/2000/svg" xmlns:xlink="http://www.w3.org/1999/xlink" x="0px" y="0px"
	 viewBox="0 0 800 800" style="enable-background:new 0 0 800 800" width="800px" height="800px" xml:space="preserve">

<line fill="none" stroke-width="28" stroke-linecap="round" stroke-linejoin="round" stroke-miterlimit="10"  x1="295" y1="479.2" x2="355.9" y2="418.3"/>
<polygon fill="none" stroke-width="28" stroke-linecap="round" stroke-linejoin="round" stroke-miterlimit="10"  points="721.2,77.2 696.9,52.9 575.1,126 648.2,199 "/>
<line fill="none" stroke-width="28" stroke-linecap="round" stroke-linejoin="round" stroke-miterlimit="10"  x1="611.6" y1="162.5" x2="453.3" y2="320.8"/>
<path fill="none" stroke-width="28" stroke-linecap="round" stroke-linejoin="round" stroke-miterlimit="10"  d="M87.9,156.4c0,121.8,60.9,152.2,121.8,152.2h48.7l414.9,408l73.8,18.3l25.9-24.4l-21.3-73.1l-408-414.1v-48.7
	c0-60.9-30.4-121-152.2-121l0,0l42.6,98.2l-48.7,50.2L87.9,156.4L87.9,156.4z"/>
<line fill="none" stroke-width="28" stroke-linecap="round" stroke-linejoin="round" stroke-miterlimit="10"  x1="258.4" y1="442.6" x2="27" y2="674"/>
<line fill="none" stroke-width="28" stroke-linecap="round" stroke-linejoin="round" stroke-miterlimit="10"  x1="27" y1="674" x2="100.1" y2="747.1"/>
<line fill="none" stroke-width="28" stroke-linecap="round" stroke-linejoin="round" stroke-miterlimit="10"  x1="100.1" y1="747.1" x2="331.5" y2="515.7"/>
<line fill="none" stroke-width="28" stroke-linecap="round" stroke-linejoin="round" stroke-miterlimit="10"  x1="331.5" y1="515.7" x2="258.4" y2="442.6"/>
</svg>
