<?xml version="1.0" encoding="utf-8"?>
<!-- Generator: Adobe Illustrator 19.1.0, SVG Export Plug-In . SVG Version: 6.00 Build 0)  -->
<svg version="1.1" stroke="#000" id="Layer_2" xmlns="http://www.w3.org/2000/svg" xmlns:xlink="http://www.w3.org/1999/xlink" x="0px" y="0px"
	 viewBox="0 0 800 800" width="800px" height="800px" style="enable-background:new 0 0 800 800;" xml:space="preserve">

<g>
	<g>
		<g>
			<path fill="none" stroke-width="28" stroke-linecap="round" stroke-linejoin="round" stroke-miterlimit="10" d="M565.4,48c-22.8-23.6-60.4-23.7-82.2-1.6c-21.5,21.8-20,57.6,0,79.1c21.2,22.7,58.5,24.5,83,2.4"/>
			<path fill="none" stroke-width="28" stroke-linecap="round" stroke-linejoin="round" stroke-miterlimit="10" d="M439.1,27c-29.5,3-52.1,27.2-53.2,55.5c-1.1,30.4,22.9,57.7,54.7,60.1"/>
			<path fill="none" stroke-width="28" stroke-linecap="round" stroke-linejoin="round" stroke-miterlimit="10" d="M357.5,27c-29.5,3-52.1,27.2-53.2,55.5c-1.1,30.4,22.9,57.7,54.7,60.1"/>
			<path fill="none" stroke-width="28" stroke-linecap="round" stroke-linejoin="round" stroke-miterlimit="10" d="M274.8,27c-29.5,3-52.1,27.2-53.2,55.5c-1.1,30.4,22.9,57.7,54.7,60.1"/>
		</g>
		<polyline fill="none" stroke-width="28" stroke-linecap="round" stroke-linejoin="round" stroke-miterlimit="10" points="221.3,84.8 30.2,84.8 30.2,773 769.8,773 769.8,84.8 523.3,88.2 		"/>
	</g>
	<g>
		<line fill="none" stroke-width="28" stroke-linecap="round" stroke-linejoin="round" stroke-miterlimit="10" x1="30.2" y1="269.8" x2="769.8" y2="269.8"/>
		<path fill="none" stroke-width="28" stroke-linecap="round" stroke-linejoin="round" stroke-miterlimit="10" d="M140.9,420c31-7.2,69.4-6.3,84.5,25.8c9.4,20.1-3.7,43.5-9.9,54.5c-8.8,15.7-22.2,27.9-34.6,40.6
			c-8.9,9.1-17.6,18.3-26,27.8c-7.3,8.1-17.5,16.3-17.5,28v26.2h91.3"/>
		<path fill="none" stroke-width="28" stroke-linecap="round" stroke-linejoin="round" stroke-miterlimit="10" d="M378.3,517.9c0-76.6-11.4-101.5-47.6-101.5c-34.5,0-46,25.1-46,101.5c0,79.9,11.2,105.1,45.9,105.1
			C367.2,623,378.3,597.8,378.3,517.9z"/>
		<path fill="none" stroke-width="28" stroke-linecap="round" stroke-linejoin="round" stroke-miterlimit="10" d="M438.8,420.7c31-7.2,69.4-6.3,84.5,25.8c9.4,20.1-3.7,43.5-9.9,54.5c-8.8,15.7-22.2,27.9-34.6,40.6
			c-8.9,9.1-17.6,18.3-26,27.8c-7.3,8.1-17.5,16.3-17.5,28v26.2h91.3"/>
		<path fill="none" stroke-width="28" stroke-linecap="round" stroke-linejoin="round" stroke-miterlimit="10" d="M676.2,518.6c0-76.6-11.4-101.5-47.6-101.5c-34.5,0-46,25.1-46,101.5c0,79.9,11.2,105.1,45.9,105.1
			C665,623.8,676.2,598.5,676.2,518.6z"/>
	</g>
</g>
</svg>
