<?xml version="1.0" encoding="utf-8"?>
<!-- Generator: Adobe Illustrator 19.1.0, SVG Export Plug-In . SVG Version: 6.00 Build 0)  -->
<svg version="1.1" stroke="#000" id="Layer_1" xmlns="http://www.w3.org/2000/svg" xmlns:xlink="http://www.w3.org/1999/xlink" x="0px" y="0px" viewBox="0 0 800 800" style="enable-background:new 0 0 800 800" width="800px" height="800px" xml:space="preserve">

<path fill="none" stroke-width="28" stroke-linecap="round" stroke-linejoin="round" stroke-miterlimit="10"  d="M267.7,496.2v60.2h264.7l0-61.4c72.2-44.5,120.3-124.3,120.3-215.3C652.7,140.1,539.5,27,400,27
	S147.3,140.1,147.3,279.7C147.3,370.7,195.4,451.8,267.7,496.2z"/>
<polyline fill="none" stroke-width="28" stroke-linecap="round" stroke-linejoin="round" stroke-miterlimit="10"  points="351.9,556.4 315.8,315.8 315.8,315.8 363.9,352.6 400,316.5 436.1,352.6 484.2,315.8 484.2,315.8 
	448.1,556.4 "/>
<rect fill="none" stroke-width="28" stroke-linecap="round" stroke-linejoin="round" stroke-miterlimit="10" x="267.7" y="556.4"  width="264.7" height="72.2"/>
<rect fill="none" stroke-width="28" stroke-linecap="round" stroke-linejoin="round" stroke-miterlimit="10" x="291.7" y="628.6"  width="216.6" height="72.2"/>s
<rect fill="none" stroke-width="28" stroke-linecap="round" stroke-linejoin="round" stroke-miterlimit="10" x="315.8" y="700.8"  width="168.4" height="72.2"/>
</svg>
