<?xml version="1.0" encoding="utf-8"?>
<!-- Generator: Adobe Illustrator 19.1.0, SVG Export Plug-In . SVG Version: 6.00 Build 0)  -->
<svg version="1.1" stroke="#000" id="Layer_1" xmlns="http://www.w3.org/2000/svg" xmlns:xlink="http://www.w3.org/1999/xlink" x="0px" y="0px"
	 viewBox="0 0 800 800" style="enable-background:new 0 0 800 800" width="800px" height="800px" xml:space="preserve">

<line fill="none" stroke-width="28" stroke-linecap="round" stroke-linejoin="round" stroke-miterlimit="10"  x1="400" y1="679.4" x2="400" y2="769.4"/>
<circle fill="none" stroke-width="28" stroke-linecap="round" stroke-linejoin="round" stroke-miterlimit="10"  cx="400" cy="434.2" r="338.8"/>
<polygon fill="none" stroke-width="28" stroke-linecap="round" stroke-linejoin="round" stroke-miterlimit="10"  points="542,576 442.2,402.7 258,292 368.7,476.2 "/>
<line fill="none" stroke-width="28" stroke-linecap="round" stroke-linejoin="round" stroke-miterlimit="10"  x1="368.7" y1="476.2" x2="442.2" y2="402.7"/>
<path fill="none" stroke-width="28" stroke-linecap="round" stroke-linejoin="round" stroke-miterlimit="10"  d="M458.7,98.9c0.8-3.9,1.2-7.9,1.2-12c0-33.1-26.8-59.9-59.9-59.9s-59.9,26.8-59.9,59.9c0,4.1,0.4,8.1,1.2,12"/>
<line fill="none" stroke-width="28" stroke-linecap="round" stroke-linejoin="round" stroke-miterlimit="10"  x1="400" y1="98.9" x2="400" y2="188.7"/>
<line fill="none" stroke-width="28" stroke-linecap="round" stroke-linejoin="round" stroke-miterlimit="10"  x1="735.3" y1="434.2" x2="645.4" y2="434.2"/>
<line fill="none" stroke-width="28" stroke-linecap="round" stroke-linejoin="round" stroke-miterlimit="10"  x1="154.6" y1="434.2" x2="64.7" y2="434.2"/>
<line fill="none" stroke-width="28" stroke-linecap="round" stroke-linejoin="round" stroke-miterlimit="10"  x1="601.7" y1="635.8" x2="637" y2="671.2"/>
<line fill="none" stroke-width="28" stroke-linecap="round" stroke-linejoin="round" stroke-miterlimit="10"  x1="162.9" y1="197.1" x2="198.1" y2="232.3"/>
<line fill="none" stroke-width="28" stroke-linecap="round" stroke-linejoin="round" stroke-miterlimit="10"  x1="637.1" y1="197.1" x2="601.8" y2="232.4"/>
<line fill="none" stroke-width="28" stroke-linecap="round" stroke-linejoin="round" stroke-miterlimit="10"  x1="198.2" y1="636" x2="162.9" y2="671.3"/>
</svg>
