<?xml version="1.0" encoding="utf-8"?>
<!-- Generator: Adobe Illustrator 19.1.0, SVG Export Plug-In . SVG Version: 6.00 Build 0)  -->
<svg version="1.1" stroke="#000" id="Layer_1" xmlns="http://www.w3.org/2000/svg" xmlns:xlink="http://www.w3.org/1999/xlink" x="0px" y="0px"
	 viewBox="0 0 800 800" style="enable-background:new 0 0 800 800" width="800px" height="800px" xml:space="preserve">

<polygon fill="none" stroke-width="28" stroke-linecap="round" stroke-linejoin="round" stroke-miterlimit="10"  points="230.2,181.2 695.2,359.7 582.5,653.4 117.5,474.9 27,271.7 "/>
<polyline fill="none" stroke-width="28" stroke-linecap="round" stroke-linejoin="round" stroke-miterlimit="10"  points="308,146.6 773,325.1 660.3,618.8 "/>
<circle fill="none" stroke-width="28" stroke-linecap="round" stroke-linejoin="round" stroke-miterlimit="10"  cx="139.7" cy="314.8" r="31.5"/>
<path fill="none" stroke-width="28" stroke-linecap="round" stroke-linejoin="round" stroke-miterlimit="10"  d="M294.3,294.7c-18.1-13.6-38.3-17-49.1-9.1c-24,17.7-14,50.7-4.7,73.2c3,7.4,6.1,13.5,6.3,14.1
	c8.9,18,16.8,39.6-2,54.9c-16.4,13.3-41.3,5.6-57.3-4.5c-2-1.3-3.5-2.6-4.5-3.5"/>
<polyline fill="none" stroke-width="28" stroke-linecap="round" stroke-linejoin="round" stroke-miterlimit="10"  points="279.5,459.9 361.6,317 394.7,329.5 361,492 "/>
<line fill="none" stroke-width="28" stroke-linecap="round" stroke-linejoin="round" stroke-miterlimit="10"  x1="303.4" y1="422.4" x2="368.7" y2="447.1"/>
<polyline fill="none" stroke-width="28" stroke-linecap="round" stroke-linejoin="round" stroke-miterlimit="10"  points="466.1,354.6 407.4,509.6 451.2,526.2 "/>
<polyline fill="none" stroke-width="28" stroke-linecap="round" stroke-linejoin="round" stroke-miterlimit="10"  points="614,412.6 560.1,392.2 502.1,545.5 559.1,567.1 "/>
<line fill="none" stroke-width="28" stroke-linecap="round" stroke-linejoin="round" stroke-miterlimit="10"  x1="580.1" y1="483.4" x2="532.4" y2="465.3"/>
</svg>
