<?xml version="1.0" encoding="utf-8"?>
<!-- Generator: Adobe Illustrator 19.1.0, SVG Export Plug-In . SVG Version: 6.00 Build 0)  -->
<svg version="1.1" stroke="#000" id="Layer_1" xmlns="http://www.w3.org/2000/svg" xmlns:xlink="http://www.w3.org/1999/xlink" x="0px" y="0px"
	 viewBox="0 0 800 800" style="enable-background:new 0 0 800 800" width="800px" height="800px" xml:space="preserve">
<path fill="none" stroke-width="28" stroke-linecap="round" stroke-linejoin="round" stroke-miterlimit="10" d="M40.1,749.1c-7.3,0-13.1-5.8-13.1-11.7v-236c0-97.6,42.3-161.7,104.9-202.5c62.6-42.3,144.2-59.7,224.4-59.7
	h18.9V62.6c0-4.4,2.9-8.7,7.3-10.2c4.4-1.5,8.7-2.9,13.1,1.5l373,300.3c1.5,1.5,4.4,5.8,4.4,10.2s-2.9,7.3-4.4,8.7l-373,292.6
	c-4.4,4.4-8.7,2.9-13.1,1.5c-4.4-1.5-7.3-5.8-7.3-11.7V513h-18.9c-45.2,0-122.4,5.8-186.5,36.4c-64.1,30.6-118,87.4-118,188
	C51.8,743.2,45.9,749.1,40.1,749.1L40.1,749.1z"/>
</svg>
