<?xml version="1.0" encoding="utf-8"?>
<!-- Generator: Adobe Illustrator 19.1.0, SVG Export Plug-In . SVG Version: 6.00 Build 0)  -->
<svg version="1.1" stroke="#000" id="Layer_3" xmlns="http://www.w3.org/2000/svg" xmlns:xlink="http://www.w3.org/1999/xlink" x="0px" y="0px" widthviewBox="0 0 800 800" style="enable-background:new 0 0 800 800" width="800px" height="800px" xml:space="preserve">

<circle fill="none" stroke-width="28" stroke-linecap="round" stroke-linejoin="round" stroke-miterlimit="10"  cx="351.7" cy="271.3" r="7.9"/>
<path fill="none" stroke-width="28" stroke-linecap="round" stroke-linejoin="round" stroke-miterlimit="10"  d="M234.9,72.6c0-0.2,0.1-0.3,0.1-0.5c5.2,13.3,23.6,16.5,36.8,11.2c29-11.8,54.9-38.9,85.9-43.8
	c80-12.7,114,55.2,136.4,114.2c6.9,18.1,13.7,36.6,22.2,54.1c5.3,10.9-2.8,27.8-14.8,29.6c-6.1,0.9-10.8-2.5-21.8-8.2
	c0,0.2-13.4-7.5-47.8-17.3c-11.3-3.1-23.2-4.5-47.1-5.5c-54.9-1.4-69.2,7.1-75.1,9.5c-13.9,7.1-15.8,16.7-24.9,17.2
	c-17,1-30.1-18.2-23.4-33.4c3.7-8.3,10.4-14.8,14.7-22.8c4.4-8.3,6-17.9,7.4-27.2c1.1-6.9,2.1-14.1-0.7-20.5
	c-4-9.2-14.3-13.5-23.5-17.4C243.5,104.9,231.6,91,234.9,72.6z"/>
<circle fill="none" stroke-width="28" stroke-linecap="round" stroke-linejoin="round" stroke-miterlimit="10"  cx="214.8" cy="48.7" r="21.7"/>
<path fill="none" stroke-width="28" stroke-linecap="round" stroke-linejoin="round" stroke-miterlimit="10"  d="M338.8,328.8c2.1,2.5,18.3,21.1,46.5,21.8c32,0.8,50.2-22.3,51.5-24"/>
<g>
	<path fill="none" stroke-width="28" stroke-linecap="round" stroke-linejoin="round" stroke-miterlimit="10"  d="M302.6,378.6c-8.5,3-32.6,19.2-33.4,29.8c-1.1,14.1,20.3,23.2,30.7,27.5c18.6,8,36.7,17.3,55.5,23.5
		c50,16.2,91.5-4.6,135.3-33.9c4.3-2.9,12-8.4,13-15.3c2-13.8-25.2-22.6-29.1-24.1"/>
</g>
<circle fill="none" stroke-width="28" stroke-linecap="round" stroke-linejoin="round" stroke-miterlimit="10"  cx="417" cy="271.3" r="7.9"/>
<path fill="none" stroke-width="28" stroke-linecap="round" stroke-linejoin="round" stroke-miterlimit="10"  d="M489,235.5c9,16.3,14.1,35.1,14.1,55c0,34.5-15.3,65.5-39.5,86.5c-20,17.3-46.2,27.8-74.8,27.8
	c-29,0-55.5-10.8-75.7-28.6c-23.7-20.9-38.6-51.5-38.6-85.6c0-18.8,4.6-36.6,12.6-52.3"/>
<path fill="none" stroke-width="28" stroke-linecap="round" stroke-linejoin="round" stroke-miterlimit="10"  d="M463.5,376.9c75.7,30.3,129.1,104.3,129.1,190.7c0,113.4-91.9,205.4-205.4,205.4s-205.4-91.9-205.4-205.4
	c0-87.3,54.4-161.8,131.2-191.5"/>
<circle fill="none" stroke-width="28" stroke-linecap="round" stroke-linejoin="round" stroke-miterlimit="10"  cx="388.8" cy="664" r="8.2"/>
<circle fill="none" stroke-width="28" stroke-linecap="round" stroke-linejoin="round" stroke-miterlimit="10"  cx="388.8" cy="522.8" r="8.2"/>
<circle fill="none" stroke-width="28" stroke-linecap="round" stroke-linejoin="round" stroke-miterlimit="10"  cx="388.8" cy="592.5" r="8.2"/>
<path fill="none" stroke-width="28" stroke-linecap="round" stroke-linejoin="round" stroke-miterlimit="10"  d="M278.1,170c32.1-10.4,67.7-21.1,105.8-20c38.9,1.2,79.6,13,110.4,24.1"/>
<polyline fill="none" stroke-width="28" stroke-linecap="round" stroke-linejoin="round" stroke-miterlimit="10"  points="207.8,463.4 176.4,434 102.2,434 102.2,388.6 155.4,388.6 155.4,307.6 199.2,307.6 199.2,387.6 
	236.8,428 "/>
<polyline fill="none" stroke-width="28" stroke-linecap="round" stroke-linejoin="round" stroke-miterlimit="10"  points="567.7,457.4 599.2,428 697,428 697,384.5 623.5,384.5 623.5,326.8 582.1,326.8 582.1,387.6 538.8,428 
	"/>
<g>
	<path fill="none" stroke-width="28" stroke-linecap="round" stroke-linejoin="round" stroke-miterlimit="10"  d="M295,445c-17.1,15.6-31,34.5-40.8,55.5c-8,17.3-21.7,46.6-8.5,64.3c2.5,3.5,13,5.5,34.2,9.5
		c9.6,1.8,30.1,7.6,33.6-3.9c1.2-3.8,0.9-8.2,0.9-12.4c-0.9-21.3,7.4-58.8,26.9-74.6c6.2-5.4,13.1-13.3,20.6-17.4"/>
	<path fill="none" stroke-width="28" stroke-linecap="round" stroke-linejoin="round" stroke-miterlimit="10"  d="M240.2,558c-2.3,16.3-2.8,32.5-1.3,48.1"/>
	<path fill="none" stroke-width="28" stroke-linecap="round" stroke-linejoin="round" stroke-miterlimit="10"  d="M276.9,577c-1.3,14.6-1,29,1.1,43"/>
	<path fill="none" stroke-width="28" stroke-linecap="round" stroke-linejoin="round" stroke-miterlimit="10"  d="M313.3,569.2c-0.3,18.7,2,37.2,6.7,54.8"/>
</g>
</svg>
