<?xml version="1.0" encoding="utf-8"?>
<!-- Generator: Adobe Illustrator 19.1.0, SVG Export Plug-In . SVG Version: 6.00 Build 0)  -->
<!-- License: CC0 1.0 Universal: http://creativecommons.org/publicdomain/zero/1.0/ Design by: LogoFolder https://logofolder.com | Get icons from: http://animated-svg.com  -->

<svg version="1.1" stroke="#000" id="Layer_1" xmlns="http://www.w3.org/2000/svg" xmlns:xlink="http://www.w3.org/1999/xlink" x="0px" y="0px" widthviewBox="0 0 800 800" style="enable-background:new 0 0 800 800" width="800px" height="800px" xml:space="preserve">
<g>
	<g>
		<path fill="none" stroke-width="28" stroke-linecap="round" stroke-linejoin="round" stroke-miterlimit="10"  d="M350.7,239.4c-4.4-5.8-7-13-7-20.8v-17.4c0-19,15.4-34.5,34.5-34.5h43.7c19,0,34.5,15.4,34.5,34.5v17.4
			c0,7.8-2.6,15-7,20.8"/>
		<ellipse fill="none" stroke-width="28" stroke-linecap="round" stroke-linejoin="round" stroke-miterlimit="10"  cx="400" cy="96.2" rx="43.8" ry="69.2"/>
	</g>
	<g>
		<path fill="none" stroke-width="28" stroke-linecap="round" stroke-linejoin="round" stroke-miterlimit="10"  d="M669.1,503.9C669.1,652.5,548.6,773,400,773S130.9,652.5,130.9,503.9s120.5-269,269.1-269
			c14.9,0,29.5,1.2,43.7,3.5C571.5,259.3,669.1,370.2,669.1,503.9z"/>
	</g>
</g>
<g>
	<g>
		<line fill="none" stroke-width="28" stroke-linecap="round" stroke-linejoin="round" stroke-miterlimit="10"  x1="192.5" y1="531.8" x2="220.7" y2="503.9"/>
		<line fill="none" stroke-width="28" stroke-linecap="round" stroke-linejoin="round" stroke-miterlimit="10"  x1="220.7" y1="503.9" x2="192.5" y2="475.3"/>
		<line fill="none" stroke-width="28" stroke-linecap="round" stroke-linejoin="round" stroke-miterlimit="10"  x1="247.6" y1="531.8" x2="275.8" y2="503.9"/>
		<line fill="none" stroke-width="28" stroke-linecap="round" stroke-linejoin="round" stroke-miterlimit="10"  x1="275.8" y1="503.9" x2="247.6" y2="475.3"/>
	</g>
	<g>
		<line fill="none" stroke-width="28" stroke-linecap="round" stroke-linejoin="round" stroke-miterlimit="10"  x1="366.2" y1="300.5" x2="398.6" y2="333.3"/>
		<line fill="none" stroke-width="28" stroke-linecap="round" stroke-linejoin="round" stroke-miterlimit="10"  x1="398.6" y1="333.3" x2="431.8" y2="300.5"/>
		<line fill="none" stroke-width="28" stroke-linecap="round" stroke-linejoin="round" stroke-miterlimit="10"  x1="345.5" y1="343.3" x2="398.6" y2="396.7"/>
		<line fill="none" stroke-width="28" stroke-linecap="round" stroke-linejoin="round" stroke-miterlimit="10"  x1="398.6" y1="396.7" x2="452.5" y2="343.3"/>
	</g>
	<g>
		<line fill="none" stroke-width="28" stroke-linecap="round" stroke-linejoin="round" stroke-miterlimit="10"  x1="223.5" y1="395.4" x2="269.6" y2="395.6"/>
		<line fill="none" stroke-width="28" stroke-linecap="round" stroke-linejoin="round" stroke-miterlimit="10"  x1="269.6" y1="395.6" x2="269.9" y2="349"/>
		<line fill="none" stroke-width="28" stroke-linecap="round" stroke-linejoin="round" stroke-miterlimit="10"  x1="239.1" y1="440.3" x2="314.5" y2="440.5"/>
		<line fill="none" stroke-width="28" stroke-linecap="round" stroke-linejoin="round" stroke-miterlimit="10"  x1="314.5" y1="440.5" x2="314.8" y2="364.6"/>
	</g>
	<g>
		<line fill="none" stroke-width="28" stroke-linecap="round" stroke-linejoin="round" stroke-miterlimit="10"  x1="366.2" y1="706.6" x2="398.6" y2="673.8"/>
		<line fill="none" stroke-width="28" stroke-linecap="round" stroke-linejoin="round" stroke-miterlimit="10"  x1="398.6" y1="673.8" x2="431.8" y2="706.6"/>
		<line fill="none" stroke-width="28" stroke-linecap="round" stroke-linejoin="round" stroke-miterlimit="10"  x1="345.5" y1="663.8" x2="398.6" y2="610.4"/>
		<line fill="none" stroke-width="28" stroke-linecap="round" stroke-linejoin="round" stroke-miterlimit="10"  x1="398.6" y1="610.4" x2="452.5" y2="663.8"/>
	</g>
	<g>
		<line fill="none" stroke-width="28" stroke-linecap="round" stroke-linejoin="round" stroke-miterlimit="10"  x1="223.5" y1="611.7" x2="269.6" y2="611.5"/>
		<line fill="none" stroke-width="28" stroke-linecap="round" stroke-linejoin="round" stroke-miterlimit="10"  x1="269.6" y1="611.5" x2="269.9" y2="658.1"/>
		<line fill="none" stroke-width="28" stroke-linecap="round" stroke-linejoin="round" stroke-miterlimit="10"  x1="239.1" y1="566.8" x2="314.5" y2="566.6"/>
		<line fill="none" stroke-width="28" stroke-linecap="round" stroke-linejoin="round" stroke-miterlimit="10"  x1="314.5" y1="566.6" x2="314.8" y2="642.5"/>
	</g>
	<g>
		<line fill="none" stroke-width="28" stroke-linecap="round" stroke-linejoin="round" stroke-miterlimit="10"  x1="605.8" y1="532.2" x2="577.6" y2="504.3"/>
		<line fill="none" stroke-width="28" stroke-linecap="round" stroke-linejoin="round" stroke-miterlimit="10"  x1="577.6" y1="504.3" x2="605.8" y2="475.7"/>
		<line fill="none" stroke-width="28" stroke-linecap="round" stroke-linejoin="round" stroke-miterlimit="10"  x1="550.7" y1="532.2" x2="522.5" y2="504.3"/>
		<line fill="none" stroke-width="28" stroke-linecap="round" stroke-linejoin="round" stroke-miterlimit="10"  x1="522.5" y1="504.3" x2="550.7" y2="475.7"/>
	</g>
	<g>
		<line fill="none" stroke-width="28" stroke-linecap="round" stroke-linejoin="round" stroke-miterlimit="10"  x1="573.8" y1="395.8" x2="527.7" y2="396.1"/>
		<line fill="none" stroke-width="28" stroke-linecap="round" stroke-linejoin="round" stroke-miterlimit="10"  x1="527.7" y1="396.1" x2="527.4" y2="349.4"/>
		<line fill="none" stroke-width="28" stroke-linecap="round" stroke-linejoin="round" stroke-miterlimit="10"  x1="558.2" y1="440.7" x2="482.8" y2="440.9"/>
		<line fill="none" stroke-width="28" stroke-linecap="round" stroke-linejoin="round" stroke-miterlimit="10"  x1="482.8" y1="440.9" x2="482.5" y2="365"/>
	</g>
	<g>
		<line fill="none" stroke-width="28" stroke-linecap="round" stroke-linejoin="round" stroke-miterlimit="10"  x1="573.8" y1="612.2" x2="527.7" y2="611.9"/>
		<line fill="none" stroke-width="28" stroke-linecap="round" stroke-linejoin="round" stroke-miterlimit="10"  x1="527.7" y1="611.9" x2="527.4" y2="658.6"/>
		<line fill="none" stroke-width="28" stroke-linecap="round" stroke-linejoin="round" stroke-miterlimit="10"  x1="558.2" y1="567.3" x2="482.8" y2="567"/>
		<line fill="none" stroke-width="28" stroke-linecap="round" stroke-linejoin="round" stroke-miterlimit="10"  x1="482.8" y1="567" x2="482.5" y2="642.9"/>
	</g>
</g>
</svg>
