<?xml version="1.0" encoding="utf-8"?>
<!-- Generator: Adobe Illustrator 19.1.0, SVG Export Plug-In . SVG Version: 6.00 Build 0)  -->
<svg version="1.1" stroke="#000" id="Layer_3" xmlns="http://www.w3.org/2000/svg" xmlns:xlink="http://www.w3.org/1999/xlink" x="0px" y="0px" widthviewBox="0 0 800 800" style="enable-background:new 0 0 800 800" width="800px" height="800px" xml:space="preserve">

<g>
	<path fill="none" stroke-width="28" stroke-linecap="round" stroke-linejoin="round" stroke-miterlimit="10"  d="M284.1,350.6c7.4-10.7,18.9-30.1,23.8-57c5.7-31.3-0.7-55.9-4-67.9c-14.3-52.2-59.9-77.2-54-85.2
		c2.7-3.7,11.7,2.6,36,4.3c6.7,0.5,23.1,1.2,42.5-2.7c19-3.8,32.3-10.4,45.5-17.2c18.8-9.5,31-15.7,42.8-27.8
		c22.9-23.6,24.4-49.7,30.5-48.8c6.6,0.9,0.7,30.5,14.3,66.7c3.4,9.1,13.2,34.1,37,54.8c22.2,19.3,48.7,28,58.8,30.9
		c19.8,5.7,34,5.6,34.6,10.7c0.7,5.9-18.4,7.2-36.9,24c-31.4,28.4-56.7,90.5-49.9,132.5c3.9,24,16.6,46.5,35.2,62.1
		c-36.3,1.4-71.3,0.7-105.3,15.7"/>
	<path fill="none" stroke-width="28" stroke-linecap="round" stroke-linejoin="round" stroke-miterlimit="10"  d="M224.9,353.1c-4.4-10.2-8.6-24.1-6.6-40c4.6-36.8,39.1-60.2,35.5-64.5c-3.1-3.7-23.8,18.2-56.2,19.9
		c-18.9,1-34.4-5.3-44.9-9.5c-9.4-3.8-25.4-10.4-39.9-25.2c-14-14.3-18.1-27.4-21.2-26.3c-3.6,1.3,2,18.2,2,45.7
		c0,16,0.1,30.6-6.7,47.2c-1.4,3.5-8.7,20.8-26.1,36.4c-18.2,16.2-34.7,19.1-33.7,24.7c0.9,4.9,13.7,2.7,32.7,12
		c16.2,7.9,25.5,18.6,27.4,20.9c12.9,15.3,16.3,31.6,17.3,37.2c1,6.1,2.8,21-3,37.9c-8,23.4-25.5,36.2-23.3,38.6
		c1.9,2.2,13.9-10.1,34.6-12.8c3.9-0.5,11.2-1.4,19.9,0.9c15.2,3.9,37.7,18.4,41.2,23"/>
	<path fill="none" stroke-width="28" stroke-linecap="round" stroke-linejoin="round" stroke-miterlimit="10"  d="M511.3,498c7.9-3.1,16.3-7,27.9-14.5c9.7-6.3,25.7-16.7,37.4-34c17-25,14.9-49.4,20.5-49.3
		c4.8,0.1,3.7,17.7,16.9,38.8c9.6,15.4,21.6,24.2,28.9,29.6c4.7,3.5,20.5,14.6,44.1,21.1c22.1,6.1,40.2,5.1,45.9,4.7
		c24-1.8,38.5-9.6,40-6.6c1.8,3.6-20.5,11.9-36.1,35.9c-7.8,12-10.7,23-14.9,38.7c-5,18.7-8,29.8-6,44c3.1,22.3,16,33.9,12.1,37.8
		c-3.6,3.6-14.3-6.7-34.3-12.3c-26.9-7.5-50.5-0.9-57.3,1.3c-16.6,5.3-27.2,13.7-44.4,27.5c-17.1,13.6-35.1,31.1-35.1,31.1
		c-9.7,9.4-14.5,14.8-24.3,20c-6.8,3.6-16,8.4-28.4,7.4c-3.8-0.3-18.3-2-28.8-14.5c-6.6-7.9-7.9-12.3-8.5-16.3"/>
	<path fill="none" stroke-width="28" stroke-linecap="round" stroke-linejoin="round" stroke-miterlimit="10"  d="M134.1,307c0.5,9.6,2.5,25.4,11.1,42.6c3.3,6.5,8.1,16.2,18,25.6c11.6,11.1,9.6,11.5,16.8,13.8"/>
	<path fill="none" stroke-width="28" stroke-linecap="round" stroke-linejoin="round" stroke-miterlimit="10"  d="M421.6,180.7c-23.2,32.8-36.4,69.1-39.8,109c-2.4,28.3-2,56.8,1.1,85.1c2.8,25.4,2.1,41.8,17.1,63"/>
	<path fill="none" stroke-width="28" stroke-linecap="round" stroke-linejoin="round" stroke-miterlimit="10"  d="M537.2,568.3c25.8-4.5,42.9-17.2,67.9-24.1c25.4-7,53.8-6.6,79.6-2.4"/>
	<path fill="none" stroke-width="28" stroke-linecap="round" stroke-linejoin="round" stroke-miterlimit="10"  d="M242.9,410.5c2,14.6,13,26.3,27.3,29.3c14.7,3,29.8-4,37.2-17.3"/>
	<path fill="none" stroke-width="28" stroke-linecap="round" stroke-linejoin="round" stroke-miterlimit="10"  d="M383.8,512.5c-0.6,5.6-1.1,18.8,6.7,31.6c7,11.4,16.8,16.4,24.2,20.2c12.2,6.3,23.8,8,31.7,8.4"/>
	<path fill="none" stroke-width="28" stroke-linecap="round" stroke-linejoin="round" stroke-miterlimit="10"  d="M214,625.7c0.5,3.3,3.5,19.5,18.6,30.8c15.2,11.4,31.7,9.5,34.9,9.1"/>
	<path fill="none" stroke-width="28" stroke-linecap="round" stroke-linejoin="round" stroke-miterlimit="10"  d="M374.1,444.1C373.9,441.3,374.1,444.1,374.1,444.1c-6.4-44.1-39.6-81.5-85.7-91.3
		c-59.2-12.5-117.3,25.3-129.9,84.4s25.3,117.3,84.4,129.9c9.1,1.9,18.2,2.7,27.2,2.3c0,0-3.4,0.5,0,0"/>
	<path fill="none" stroke-width="28" stroke-linecap="round" stroke-linejoin="round" stroke-miterlimit="10"  d="M194.6,543.3c-29.8,14.1-52.9,41.5-60.2,76.3c-12.5,59.2,25.3,117.3,84.4,129.9
		c50.7,10.8,100.7-15.5,121.8-60.5"/>
	<circle fill="none" stroke-width="28" stroke-linecap="round" stroke-linejoin="round" stroke-miterlimit="10"  cx="401.3" cy="572.6" r="131.2"/>
</g>
</svg>
