<?xml version="1.0" encoding="utf-8"?>
<!-- Generator: Adobe Illustrator 19.1.0, SVG Export Plug-In . SVG Version: 6.00 Build 0)  -->
<!-- All rights reserved. Copyright: AnimatedSVG - ASVG © 2020 - https://animated-svg.com You may not reproduce, duplicate, copy or sell this intellectual property.  -->
<svg version="1.1" stroke="#000" xmlns="http://www.w3.org/2000/svg" xmlns:xlink="http://www.w3.org/1999/xlink" x="0px" y="0px" viewBox="0 0 800 800" style="enable-background:new 0 0 800 800" width="800px" height="800px" xml:space="preserve">
<g>
	<g>
		<path fill="none" stroke-width="28" stroke-linecap="round" stroke-linejoin="round" stroke-miterlimit="10" d="
			M277.1,241.4c-47.1,32.7-78,87.2-78,149v191.3l-46.6,46.6c-15.3,15.3-23.9,36-23.9,57.6v6.6h251.7l0,0h251.7v-6.6
			c0-21.6-8.6-42.3-23.9-57.6l-46.6-46.6V390.4c0-27.2-6-53-16.7-76.1"/>
		<path fill="none" stroke-width="28" stroke-linecap="round" stroke-linejoin="round" stroke-miterlimit="10" d="
			M450.8,692.5c0,44.5-36,80.5-80.5,80.5s-80.5-36-80.5-80.5"/>
		
			<line fill="none" stroke-width="28" stroke-linecap="round" stroke-linejoin="round" stroke-miterlimit="10" x1="199.1" y1="551.5" x2="561.6" y2="551.5"/>
		
			<line fill="none" stroke-width="28" stroke-linecap="round" stroke-linejoin="round" stroke-miterlimit="10" x1="199.1" y1="491.1" x2="561.6" y2="491.1"/>
	</g>
	<g>
		<g>
			
				<path fill="none" stroke-width="28" stroke-linecap="round" stroke-linejoin="round" stroke-miterlimit="10" d="
				M489.4,143.4c9-5.3,81.8-46.8,134.2-30.7c7.8,2.4,22.7,7,34,20.8c7.9,9.6,11.7,21.3,13.3,33.6c1.9,14.5-4,22.6-12.4,34
				c-13,17.7-18.9,40.4-16.2,62.1c0.9,6.9,2.6,13.8,2.5,20.7c-0.1,17.6-18.5,35.8-34.1,41.8c-17.3,6.6-33.5,1.5-45.4-2.4
				c-26.5-8.4-44.3-25.9-58.2-39.8c-17.1-17.1-36.9-36.8-39.2-35.5c-2.5,1.4,18.1,31.5,19.4,34.3c12.4,26.9,20.6,55,20.3,84.8
				c-0.1,10.2-1.1,20.4-2.8,30.4l-51.6-32.4c0,0-22.6,32.8-30.6,51.8c-17-30.7-16-106.5-15.2-143.6c0.1-5.5-7.4-7.3-9.8-2.3
				c-16,33.3-49.7,101-79.7,120.4c1.6-20.5-3.4-60-3.4-60c-9,0.8-18,1.5-27.1,2.2c-7.6,0.7-15,2.5-22.7,2.9c-2,0.1-8.6,1.6-9.5-1.2
				c-0.3-1.1,0.1-2.2,0.5-3.2c7.3-18.5,16.3-39.5,29.6-54.6c12.8-14.6,26-25.3,42.4-35.4c2.2-1.4,31.5-19,30.1-20.9
				c-2-2.5-29.4,5.2-53.6,12.8c-18.8,6-42.5,13.3-70,8.6c-12.4-2.1-29.1-5-41.4-18.8c-17.7-19.9-17-44.8-2.1-64.9
				c13.9-18.8,20.2-43.1,17.2-66.2c-0.9-6.7-2.5-13.3-2.3-20.1c0.4-17.2,19.2-34.5,34-40.9c16.4-7.1,31.8-4.3,39.8-2.8
				c54,9.8,99.5,80.2,105,89"/>
		</g>
		<g>
			
				<path fill="none" stroke-width="28" stroke-linecap="round" stroke-linejoin="round" stroke-miterlimit="10" d="
				M414.5,117.6l51,12.4c19.5,4.8,31.6,24.6,26.8,44.1l-12.4,51c-4.8,19.5-24.6,31.6-44.1,26.8l-51-12.4
				c-19.5-4.8-31.6-24.6-26.8-44.1l12.4-51C375.1,124.9,394.9,112.9,414.5,117.6z"/>
			
				<path fill="none" stroke-width="28" stroke-linecap="round" stroke-linejoin="round" stroke-miterlimit="10" d="
				M363.9,147c-17.6-15.6-34.8-32.2-51.7-49.9"/>
			
				<path fill="none" stroke-width="28" stroke-linecap="round" stroke-linejoin="round" stroke-miterlimit="10" d="
				M494.6,178.8c22.8-5.7,45.7-12.6,68.8-20.5"/>
			
				<polyline fill="none" stroke-width="28" stroke-linecap="round" stroke-linejoin="round" stroke-miterlimit="10" points="
				272.3,144.3 359.7,165.6 359.7,165.6 			"/>
			
				<polyline fill="none" stroke-width="28" stroke-linecap="round" stroke-linejoin="round" stroke-miterlimit="10" points="
				489.7,197.3 489.7,197.3 577.1,218.6 			"/>
			
				<path fill="none" stroke-width="28" stroke-linecap="round" stroke-linejoin="round" stroke-miterlimit="10" d="
				M354.9,183.9c-22.3,4-44.9,9-67.5,15.2"/>
			
				<path fill="none" stroke-width="28" stroke-linecap="round" stroke-linejoin="round" stroke-miterlimit="10" d="
				M485.6,215.7c18,13.8,35.7,28.7,53,44.6"/>
		</g>
	</g>
</g>
</svg>
