<?xml version="1.0" encoding="utf-8"?>
<!-- Generator: Adobe Illustrator 19.1.0, SVG Export Plug-In . SVG Version: 6.00 Build 0)  -->
<svg version="1.1" stroke="#000" id="Layer_4" xmlns="http://www.w3.org/2000/svg" xmlns:xlink="http://www.w3.org/1999/xlink" x="0px" y="0px" widthviewBox="0 0 800 800" style="enable-background:new 0 0 800 800" width="800px" height="800px" xml:space="preserve">

<g>
	<path fill="none" stroke-width="28" stroke-linecap="round" stroke-linejoin="round" stroke-miterlimit="10" d="M484.1,252.4c11.7-11.3,106.8-101.2,192.2-96.1c12.7,0.8,37,2.2,59.3,19c15.6,11.7,25.6,28,32.6,46
		c8.3,21.3,2.3,35.8-6.2,56.1c-13.2,31.6-13.8,68.2-1.6,100.2c3.9,10.1,9,19.9,11.5,30.4c6.3,26.8-14.8,61.2-36.3,76
		c-23.8,16.4-50.2,14.6-69.8,13.2c-43.3-3-76.7-22.9-103-38.9c-32.2-19.6-69.5-42.2-72.5-39.3c-3.3,3.1,39.1,41,42.1,44.8
		c28.7,36.2,51.5,75.8,62.1,121.1c3.6,15.5,5.9,31.4,7,47.2l-90.2-30.1c0,0-22.1,58.1-27.3,89.8c-37.1-40.3-63.6-155.6-76.1-212.1
		c-1.9-8.4-13.9-8.4-15.7,0.1c-12,56.4-38,171.6-76.4,212c-5.2-31.7-27.3-89.8-27.3-89.8c-13.4,4.5-26.8,8.9-40.2,13.4
		c-11.3,3.8-21.9,9.3-33.3,12.7c-3,0.9-12.5,5.6-14.8,1.6c-0.9-1.5-0.7-3.4-0.4-5.1c4.2-30.7,10.1-66,24.7-93.7
		c14-26.8,30-48,51.2-69.3c2.9-2.9,40.8-40.5,38-42.8c-3.9-3.1-42.7,18.7-76.6,39.3c-26.3,16-59.6,35.9-103,38.9
		c-19.6,1.4-45.9,3.2-69.8-13.2c-34.2-23.6-42.3-61.7-27.2-97.7c14.1-33.6,14.7-72.8,1.6-106.8c-3.8-9.8-8.7-19.3-10.9-29.6
		c-5.8-26.3,16.3-59.4,36.5-74.6c22.3-16.8,46.6-18.2,59.3-19c85.5-5.1,180.6,84.9,192.2,96.1"/>
</g>
<g>
	<path fill="none" stroke-width="28" stroke-linecap="round" stroke-linejoin="round" stroke-miterlimit="10" d="M360.9,241h82c31.4,0,57,25.7,57,57v82c0,31.4-25.6,57-57,57h-82c-31.4,0-57-25.6-57-57v-82
	C303.9,266.6,329.5,241,360.9,241z"/>
	<path fill="none" stroke-width="28" stroke-linecap="round" stroke-linejoin="round" stroke-miterlimit="10" d="M295.1,304.2c-32.4-17.1-64.7-36-96.8-56.5"/>
	<path fill="none" stroke-width="28" stroke-linecap="round" stroke-linejoin="round" stroke-miterlimit="10" d="M505,304.2c32.4-17.1,64.7-36,96.8-56.5"/>
	<path fill="none" stroke-width="28" stroke-linecap="round" stroke-linejoin="round" stroke-miterlimit="10" d="M295.1,363.5c-32.4,14.3-64.7,30.3-96.8,48"/>
	<path fill="none" stroke-width="28" stroke-linecap="round" stroke-linejoin="round" stroke-miterlimit="10" d="M505,363.5c32.4,14.3,64.7,30.3,96.8,48"/>
	<polyline fill="none" stroke-width="28" stroke-linecap="round" stroke-linejoin="round" stroke-miterlimit="10" points="504.4,334 504.4,334 644.8,334 	"/>
	<polyline fill="none" stroke-width="28" stroke-linecap="round" stroke-linejoin="round" stroke-miterlimit="10" points="155.2,334 295.6,334 295.6,334 	"/>
</g>
</svg>
