<?xml version="1.0" encoding="utf-8"?>
<!-- Generator: Adobe Illustrator 19.1.0, SVG Export Plug-In . SVG Version: 6.00 Build 0)  -->
<svg version="1.1" stroke="#000" id="Layer_3" xmlns="http://www.w3.org/2000/svg" xmlns:xlink="http://www.w3.org/1999/xlink" x="0px" y="0px" widthviewBox="0 0 800 800" style="enable-background:new 0 0 800 800" width="800px" height="800px" xml:space="preserve">
<path fill="none" stroke-width="28" stroke-linecap="round" stroke-linejoin="round" stroke-miterlimit="10"  d="M616.4,649.8c0,68-95.7,123.2-213.8,123.2s-213.8-55.1-213.8-123.2c0-30.9,19.7-59.1,52.4-80.8
	c39.2-26,97-42.4,161.4-42.4C520.7,526.7,616.4,581.8,616.4,649.8z"/>
<ellipse fill="none" stroke-width="28" stroke-linecap="round" stroke-linejoin="round" stroke-miterlimit="10"  cx="403.7" cy="633.9" rx="67.5" ry="53.5"/>
<path fill="none" stroke-width="28" stroke-linecap="round" stroke-linejoin="round" stroke-miterlimit="10"  d="M312.5,535.4c-0.5-0.8-1-1.6-1.5-2.5c-7.2-13-12-31.8-12.4-52.8c-0.8-39.7,14.1-72.2,33.3-72.6
	c19.2-0.4,35.5,31.5,36.4,71.3c0.4,16.8-2.1,32.3-6.5,44.7c-0.6,1.8-1.3,3.5-2,5.1"/>
<path fill="none" stroke-width="28" stroke-linecap="round" stroke-linejoin="round" stroke-miterlimit="10"  d="M298.8,324.6c-47,11.9-99.3-0.3-142.3-20.4c-16.5-7.7-27.8-7.9-23.3,11.7c5.5,23.9,16.7,45,33.6,63
	c17.8,18.9,40,33.1,63.6,44.1"/>
<path fill="none" stroke-width="28" stroke-linecap="round" stroke-linejoin="round" stroke-miterlimit="10"  d="M502.3,322.6c47,11.9,99.3-0.3,142.3-20.4c16.5-7.7,27.8-7.9,23.3,11.7c-5.5,23.9-16.7,45-33.6,63
	c-17.8,18.9-40,33.1-63.6,44.1"/>
<path fill="none" stroke-width="28" stroke-linecap="round" stroke-linejoin="round" stroke-miterlimit="10"  d="M228.7,563.6c-0.7-2.5-1.4-5.1-2-7.7c-4.1-17-6.4-34.9-6.4-53.5c0-111.4,80.2-201.7,179.2-201.7
	s179.2,90.3,179.2,201.7c0,19.3-2.4,38-6.9,55.7c-0.6,2.5-1.3,5-2.1,7.5"/>
<path fill="none" stroke-width="28" stroke-linecap="round" stroke-linejoin="round" stroke-miterlimit="10"  d="M492.3,535.4c0.5-0.8,1-1.6,1.5-2.5c7.2-13,12-31.8,12.4-52.8c0.8-39.7-14.1-72.2-33.3-72.6
	c-19.2-0.4-35.5,31.5-36.4,71.3c-0.4,16.8,2.1,32.3,6.5,44.7c0.6,1.8,1.3,3.5,2,5.1"/>
<g>
	<path fill="none" stroke-width="28" stroke-linecap="round" stroke-linejoin="round" stroke-miterlimit="10"  d="M146.2,29.7c-16.1,47-10.8,210.7,167.3,285.7"/>
	<path fill="none" stroke-width="28" stroke-linecap="round" stroke-linejoin="round" stroke-miterlimit="10"  d="M241.5,94.8c-18.3,21-42.6,77-36.2,146.3"/>
</g>
<g>
	<path fill="none" stroke-width="28" stroke-linecap="round" stroke-linejoin="round" stroke-miterlimit="10"  d="M655,29.7c16.1,47,4.1,210.7-174.2,285.7"/>
	<path fill="none" stroke-width="28" stroke-linecap="round" stroke-linejoin="round" stroke-miterlimit="10"  d="M552.9,94.8c18.3,21,42.6,77,36.2,146.3"/>
</g>
</svg>
