<?xml version="1.0" encoding="utf-8"?>
<!-- Generator: Adobe Illustrator 19.1.0, SVG Export Plug-In . SVG Version: 6.00 Build 0)  -->
<svg version="1.1" stroke="#000" id="Layer_3" xmlns="http://www.w3.org/2000/svg" xmlns:xlink="http://www.w3.org/1999/xlink" x="0px" y="0px" widthviewBox="0 0 800 800" style="enable-background:new 0 0 800 800" width="800px" height="800px" xml:space="preserve">
<g>
<path fill="none" stroke-width="28" stroke-linecap="round" stroke-linejoin="round" stroke-miterlimit="10"  d="M411.8,27c-26.1,0-52.2,4.8-77,14.2l-8.9,3.4c-52.7,20.5-95.1,59.5-118.3,110.1c-23.9,51.3-26,108.1-6.2,160.7
		l158.7,415.8c6.2,16.4,18.5,29.4,34.2,36.2c8.2,3.4,17.1,5.5,26.7,5.5c8.2,0,15.7-1.4,23.3-4.1c16.4-6.2,29.4-18.5,36.2-34.2
		s7.5-33.5,1.4-49.9L324.6,268.3c-7.5-19.1-6.8-40.3,2.1-59.5c9.6-19.1,26-34.2,46.5-42.4l8.9-3.4c9.8-3.6,20.1-5.5,30.4-5.5
		c11.1,0,22.2,2.2,32.5,6.8c19.1,8.2,33.5,23.3,41,42.4c9.6,25.3,34.2,42.4,60.9,42.4c8.2,0,15.7-1.4,23.3-4.1
		c16.4-6.2,29.4-18.5,36.2-34.2c6.8-15.7,7.5-33.5,1.4-49.9c-19.8-52.7-59.5-93.7-111.5-116.3C469.4,32.8,440.6,27,411.8,27
		L411.8,27z"/>
	<line fill="none" stroke-width="28" stroke-linecap="round" stroke-linejoin="round" stroke-miterlimit="10"  x1="558.6" y1="85.9" x2="485.4" y2="205"/>
	<line fill="none" stroke-width="28" stroke-linecap="round" stroke-linejoin="round" stroke-miterlimit="10"  x1="455" y1="32" x2="433.9" y2="160.3"/>
	<line fill="none" stroke-width="28" stroke-linecap="round" stroke-linejoin="round" stroke-miterlimit="10"  x1="319.1" y1="47.4" x2="370.3" y2="167.6"/>
	<line fill="none" stroke-width="28" stroke-linecap="round" stroke-linejoin="round" stroke-miterlimit="10"  x1="211.6" y1="146.6" x2="330.2" y2="200.7"/>
	<line fill="none" stroke-width="28" stroke-linecap="round" stroke-linejoin="round" stroke-miterlimit="10"  x1="188" y1="251.7" x2="330.2" y2="285"/>
	<line fill="none" stroke-width="28" stroke-linecap="round" stroke-linejoin="round" stroke-miterlimit="10"  x1="218.6" y1="352.9" x2="370.9" y2="389.6"/>
	<line fill="none" stroke-width="28" stroke-linecap="round" stroke-linejoin="round" stroke-miterlimit="10"  x1="257.1" y1="460" x2="409.5" y2="496.7"/>
	<line fill="none" stroke-width="28" stroke-linecap="round" stroke-linejoin="round" stroke-miterlimit="10"  x1="294.8" y1="559.5" x2="447.1" y2="596.2"/>
	<line fill="none" stroke-width="28" stroke-linecap="round" stroke-linejoin="round" stroke-miterlimit="10"  x1="332.2" y1="657.9" x2="484.5" y2="693.6"/>
	
</g>
</svg>
