<?xml version="1.0" encoding="utf-8"?>
<!-- Generator: Adobe Illustrator 19.1.0, SVG Export Plug-In . SVG Version: 6.00 Build 0)  -->
<!-- License: CC0 1.0 Universal: http://creativecommons.org/publicdomain/zero/1.0/ Design by: LogoFolder https://logofolder.com | Get icons from: http://animated-svg.com  -->

<svg version="1.1" stroke="#000" id="Layer_1" xmlns="http://www.w3.org/2000/svg" xmlns:xlink="http://www.w3.org/1999/xlink" x="0px" y="0px" widthviewBox="0 0 800 800" style="enable-background:new 0 0 800 800" width="800px" height="800px" xml:space="preserve">
<g>
	<path fill="none" stroke-width="28" stroke-linecap="round" stroke-linejoin="round" stroke-miterlimit="10"  d="M350.7,238c-4.4-5.8-7-13-7-20.8v-17.4c0-19,15.4-34.5,34.5-34.5h43.7c19,0,34.5,15.4,34.5,34.5v17.4
		c0,7.8-2.6,15-7,20.8"/>
	<ellipse fill="none" stroke-width="28" stroke-linecap="round" stroke-linejoin="round" stroke-miterlimit="10"  cx="400" cy="94.8" rx="43.8" ry="69.2"/>
</g>
<g>
	<path fill="none" stroke-width="28" stroke-linecap="round" stroke-linejoin="round" stroke-miterlimit="10"  d="M669.1,502.5c0,148.6-120.5,269.1-269.1,269.1S130.9,651.1,130.9,502.5S251.4,233.5,400,233.5
		c14.9,0,29.5,1.2,43.7,3.5C571.5,257.9,669.1,368.8,669.1,502.5z"/>
	<g>
		<line fill="none" stroke-width="28" stroke-linecap="round" stroke-linejoin="round" stroke-miterlimit="10"  x1="400" y1="301.6" x2="400" y2="703.3"/>
		<line fill="none" stroke-width="28" stroke-linecap="round" stroke-linejoin="round" stroke-miterlimit="10"  x1="226" y1="402" x2="574" y2="602.9"/>
		<line fill="none" stroke-width="28" stroke-linecap="round" stroke-linejoin="round" stroke-miterlimit="10"  x1="226" y1="602.9" x2="574" y2="402"/>
		<line fill="none" stroke-width="28" stroke-linecap="round" stroke-linejoin="round" stroke-miterlimit="10"  x1="507" y1="376.8" x2="488.2" y2="451.6"/>
		<line fill="none" stroke-width="28" stroke-linecap="round" stroke-linejoin="round" stroke-miterlimit="10"  x1="488.2" y1="451.6" x2="562.3" y2="472.6"/>
		<line fill="none" stroke-width="28" stroke-linecap="round" stroke-linejoin="round" stroke-miterlimit="10"  x1="344.7" y1="346.9" x2="400" y2="400.7"/>
		<line fill="none" stroke-width="28" stroke-linecap="round" stroke-linejoin="round" stroke-miterlimit="10"  x1="400" y1="400.7" x2="455.3" y2="346.9"/>
		<line fill="none" stroke-width="28" stroke-linecap="round" stroke-linejoin="round" stroke-miterlimit="10"  x1="293" y1="376.8" x2="311.8" y2="451.6"/>
		<line fill="none" stroke-width="28" stroke-linecap="round" stroke-linejoin="round" stroke-miterlimit="10"  x1="311.8" y1="451.6" x2="237.7" y2="472.6"/>
		<line fill="none" stroke-width="28" stroke-linecap="round" stroke-linejoin="round" stroke-miterlimit="10"  x1="237.7" y1="532.3" x2="311.8" y2="553.4"/>
		<line fill="none" stroke-width="28" stroke-linecap="round" stroke-linejoin="round" stroke-miterlimit="10"  x1="311.8" y1="553.4" x2="297.6" y2="628.7"/>
		<line fill="none" stroke-width="28" stroke-linecap="round" stroke-linejoin="round" stroke-miterlimit="10"  x1="344.7" y1="658" x2="400" y2="604.3"/>
		<line fill="none" stroke-width="28" stroke-linecap="round" stroke-linejoin="round" stroke-miterlimit="10"  x1="400" y1="604.3" x2="455.3" y2="658"/>
		<line fill="none" stroke-width="28" stroke-linecap="round" stroke-linejoin="round" stroke-miterlimit="10"  x1="562.3" y1="532.3" x2="488.2" y2="553.4"/>
		<line fill="none" stroke-width="28" stroke-linecap="round" stroke-linejoin="round" stroke-miterlimit="10"  x1="488.2" y1="553.4" x2="507" y2="628.1"/>
	</g>
</g>
</svg>
