<?xml version="1.0" encoding="utf-8"?>
<!-- Generator: Adobe Illustrator 19.1.0, SVG Export Plug-In . SVG Version: 6.00 Build 0)  -->
<svg version="1.1" stroke="#A40024" id="Layer_4" xmlns="http://www.w3.org/2000/svg" xmlns:xlink="http://www.w3.org/1999/xlink" x="0px" y="0px" widthviewBox="0 0 800 800" style="enable-background:new 0 0 800 800" width="800px" height="800px" xml:space="preserve">
<g>
	<g>
		<path fill="none" stroke-width="12" stroke-linecap="round" stroke-linejoin="round" stroke-miterlimit="10"  d="M67.9,295.5c-7.6,1-14.9-4.1-18.9-10.7c-11.4-18.8-7.1-42.7,2.6-61c5-9.5,11.5-18.6,20.6-24.3
			c6.5-4.1,14.3-6.2,22-6c5.7,0.1,11.5,1.6,15.9,5.2c9.3,7.8,8.7,21.9,7.2,33.9c-5.4,42.2-12.7,84-20.1,125.9
			c2.7-27.3,7.6-54.5,13.1-81.4c3.9-18.8,6.6-42.1,16.7-58.9c7.4-12.3,21.7-19.7,36.1-18.8c15.9,1,20.1,11.4,20.4,25.6
			c0.1,5.8-0.5,10.1-2.2,20.7c-2.2,13.2-3.4,19.8-3.7,21.4c-4.8,24.1-1.8,11.6-14.3,77.5c-0.7,3.7-2,16.7-2,11.1
			c0-1.6,25.5-123.9,31.4-135.1c7.7-14.7,28.4-26.4,44.4-18.3c13.9,7,14.2,20.8,12.4,34.3c-1.2,9.1-3,15.5-3,15.5
			c-4.6,16.8-1.5,9.6-13.3,70.9c-0.7,3.8-2.3,12.1,0.7,21.4c1.3,4,3.4,10.3,9.6,13.3c7.1,3.4,14.3-0.1,15.5-0.7
			c16.3-8.2,28.6-23.8,41.9-36c15.2-13.9,26.7-34.7,30.6-54.8c0.9-4.4,1.4-9.1,0.4-13.5c-3-13.4-16.4-14.1-26.3-7.4
			c-22.5,15.2-23.2,41.6-24.4,65.9c-0.3,7-1,14.1-0.1,21.1c1.6,12,7.9,19.3,19.2,23.2c2.3,0.8,10,3.2,19.9,1.5
			c1.8-0.3,7.6-1.4,14-5.2c2-1.2,8-4.8,13.3-11.8c4.4-5.8,6-10.8,8.9-19.2c6.6-19.9,7.9-41,12.3-61.3c0.8-3.5,1.4-7.1,1.8-10.7
			c0.2-1.5-0.5-8.7,1.4-9.2c0.8-0.2,6.2,5.9,7.2,6.6c6.3,4.7,14.4,5.6,20.2,11.1c4.5,4.3,6,9.6,6.6,11.8c1.7,6.2,0.5,10.3-2.2,22.9
			c-5.1,23.5-3.1,19.3-5.9,29.5c-2.7,9.9-4.3,13-3.7,19.2c0.3,3.7,1.1,11.9,7.4,16.2c6.8,4.7,16.2,2.3,21.4-0.7
			c6.9-4,9.6-10.4,13.3-19.2c4.4-10.6,5.2-19.2,5.9-25.1c2.8-21.6,4.1-19,8.1-42.1c1.8-10.6,4.2-21.2,4.5-32c0-0.6,0.3-1.4,0.9-1.1
			c0.2,0.1,0.3,0.3,0.4,0.4c2.9,5.7,4.4,10.4,10.2,14c5.5,3.3,14.1,3.9,18.8,8.4c5,4.8,3.7,14,2.2,23.6c-0.9,6-1.6,6.3-5.2,20.7
			c-3.3,13.2-4.1,18-4.4,20.7c-1.8,13-0.5,17.7,0,19.2c1,3.4,2.9,9.3,8.1,12.6c8.8,5.4,22.8,0.6,28.8-7.4c2.3-3.1,3.6-7,5.9-14
			c1.2-3.7,1.9-6.7,2.8-10.2c1.9-8,2.9-14.1,3.1-15.6c7-43,5.8-33.5,9.1-54.4c0.2-1.1,0.5-3.2,0.5-3.2c-0.1,0-5.5,33-5.8,35.1
			c-1.9,13.5-3.9,26.9-5.5,40.4c-0.7,6.5-2.7,14.5-2,21c0.5,4.3,4.6,8.4,8.5,10.2c5.6,2.7,11.5,1,13.7,0.4c5.8-1.7,9.3-5,13.3-8.9
			c6.7-6.4,10.1-12.9,11.1-14.8c3.4-6.6,4-11.1,6.3-23.2c4-21.1,8.2-42,11.4-63.2c-2.8,18.6-5.5,37.2-8,55.8
			c-2.1,15.5-4.3,31.5-8.6,46.6c-0.5,1.7-2.5,8.5-4.8,16.2c-2.7,8.8-4,13.3-5.2,16.2c-3.4,8.7-7.3,14.7-10,18.8
			c-6.1,9.4-10.2,15.7-18.1,21.4c-7.1,5.2-13.9,7.3-18.8,8.9c-7.8,2.5-13.9,3.1-20.7,3.7c-7.3,0.7-14.8,1.4-24.4,0
			c-10-1.5-16.4-2.4-21.8-7.8c-8.7-8.7-9.3-22.9-0.3-31.6c6-5.8,14.5-8.2,22.9-8.3c9.8-0.1,19.9,2.6,29.2,5.6
			c9.8,3.1,17.5,6.3,28.4,11.1c10.6,4.6,15.9,7.2,36.2,16.6c18.5,8.6,22,10.1,28.1,12.2c15.6,5.3,24.1,5.9,28.8,5.9
			c6.4,0.1,13.1,0.1,20.7-3.3c10-4.5,15.4-12.3,17.7-16.2"/>
	</g>
	<g>
		<path fill="none" stroke-width="12" stroke-linecap="round" stroke-linejoin="round" stroke-miterlimit="10"  d="M102,483.2c3.1-0.4,8.8-1.6,14.4-5.5c2.4-1.7,11.6-8.2,12.7-19.9c1.1-11.6-6.4-19.7-7.8-21
			c-9.2-9.5-22.2-8.6-26-8.3c-11.5,0.8-19.3,6.8-27.1,12.7c-2.1,1.6-11.6,9-20.5,22.7c-11,17-17,37-19.4,56.9
			c-2.3,19.4-2.6,41.1,6.6,58.8c3.3,6.3,8.1,15.5,18.8,21.6c13.2,7.5,26.6,5.2,31,4.4c10.7-1.9,18.3-7,22.2-10
			c14.5-11.3,23.1-25.1,23.1-25.1c2.6,0.9-2.2,21.8-2.1,21.8c0.1,0,3.1-21.4,6.7-49.9c2.1-17.3,4.2-34.6,7.2-51.8
			c2.2-12.3,4-25.5,8.3-37.4c4.3-12.1,9.7-20.4,11.6-23.3c3.8-5.7,9-13.4,18.3-20.5c11.8-9,23.4-11.9,29.4-13.3
			c16.6-3.9,29.6-1.7,36-0.6c11.4,2,19.3,3.5,24.4,10.5c5.8,8.2,3.5,18.1,3.3,18.8c-2.5,9.9-10.7,14.4-12.7,15.5
			c-6.8,3.7-13.1,3.3-22.7,2.8c-3.3-0.2-11.4-0.9-23.3-4.4c-10.3-3.1-17.3-6.5-28.8-12.2c-12.5-6.2-12.7-7.1-27.1-14.4
			c-12.2-6.2-18.5-9.4-27.7-12.7c-7.3-2.7-16.3-5.5-27.1-7.2c-14.8-2.4-20.3-0.8-22.7,0c-4.3,1.5-10.9,3.3-13.8,9.4
			c-2.8,5.8-0.7,12.1,0,13.8"/>
		<path fill="none" stroke-width="12" stroke-linecap="round" stroke-linejoin="round" stroke-miterlimit="10"  d="M143.5,498.8c1.3-2,11.2-10.9,15.5-13.4c2.3-1.3,7.5-4.3,14.4-3.3c1,0.1,9.6,1.5,13.8,8.3
			c2.4,3.9,2,7.4,0,22.2c-2.2,16-3.3,23.9-3.9,27.1c-1.9,10.7-3,14.5-3.9,23.3c-1.2,12.3-0.2,16.2,1.7,19.4c0.6,1,4.4,7.2,12.2,8.9
			c9,1.9,16.4-4.4,18.3-6.1c5.2-4.5,7.4-9.8,11.6-24.9c3.4-12.1,5.1-18.2,7.2-28.2c6.3-30.7,9.5-46.1,9.1-56.5c0-0.4-0.2-5.8,0.9-6
			c1.1-0.2,1.7,5.4,6.1,10c3.4,3.4,5.9,3.1,12.2,6.6c5.4,3,8.2,4.7,10.5,7.8c3.7,5,3.8,10.6,3.9,12.7c0.1,5.4-1.9,11.3-2.8,16.6
			c-2.1,12.4-4.2,24.7-6.6,37.1c-2.1,10.9-3,23.1,8.5,29.1c14.9,7.8,24.1-5.1,30.2-16.4c1.2-2.2,2.9-5.5,4.4-10
			c2.3-6.8,4.3-11.7,4.5-13.9c1.7-17.7,5.6-45.7,9.1-68.3c0.2-1.4,2.2-3.9,0.8-4.3c-1.2-0.3-13.2,82.1-11.1,105.2
			c0.2,2.1,3.4,7.1,8.9,9.4c8.6,3.6,18.1-2.8,18.8-3.3c3.7-2.6,6.5-6.2,10.5-16.1c4.3-10.6,6.1-19,8.3-29.4
			c3.3-15.9,5-23.9,6.6-33.8c3-18.1,4.6-27.2,4.5-32.1c0,0,0-3.9,0.4-4c0.8-0.1,0.4,12.2,6.1,24.9c1.1,2.5,4.1,7,10,16.1
			c4.5,7,2.3,3.8,5.4,8.3c5.9,8.5,12.2,16.9,13.9,21.6c0.4,1.2,2,5.8,2.2,12.2c0.2,9.4-3.4,22.4-9.9,29.4c-5.6,6-18.8,9-26.2,4.7
			c-7.8-4.5-6.6-17.6-0.2-22.7c8.8-7.2,21.9,0.5,29.4,6.2c3.9,2.9,7.4,6.6,12.4,7.3c7.5,1.1,13.5-3.6,13.9-3.9
			c7.5-6.2,8.4-15.8,9.4-24.8c3.4-33.1,10.2-65.8,15.4-98.6c-3.3,20.9-7,41.7-9.7,62.6c-2.7,21-7.5,41.7-7.1,63
			c0,2.1,2.9,6.6,7.8,9.6c7.3,4.4,16.2,2,19.2,1.1c2.7-0.7,8.3-2.4,12.9-7.4c2.2-2.4,4.1-5.4,6.6-13.7c2.9-9.5,4-17,4.4-20.3
			c0,0,3.7-26,7.9-47.4c1.2-5.9,1.7-6.8,2.4-11.8c0.4-3.1,0.6-5.4,1.1-5.5c1.3-0.1-5.3,26.8-5.3,26.8c6.6-11.4,18.1-25.7,32.7-25.9
			c22.3-0.3,19.8,22.3,17.3,37.9c-3.6,23.5-9.7,46.5-14.1,69.8c6-27.4,12-54.9,18-82.3c1.1-5.2,2.3-10.6,5.5-14.8
			c7.8-10.4,29.7-15.6,38.3-3.4c5.6,8,1.4,20.2-0.1,28.8c-1.6,9.6-3.2,19.2-4.8,28.8c-1.5,8.9-3.8,18.5-2.5,27.5
			c0.6,4.4,2.6,8.8,6.1,11.5c3.2,2.4,7.3,3.2,11.3,2.8c7-0.7,13.7-4.5,18.1-10c5.4-6.7,5.5-13.4,7.4-13.3c0.9,0.1,0.9,2,2.9,7.3
			c0.6,1.6,1.6,4.3,3,6.7c1.4,2.5,3.4,6.1,7,8.1c12.3,6.8,29.3-3.4,35.4-14.1c5.8-10.2,6.7-22.2,8.6-33.5
			c3.3-20.3,7.8-40.3,11.4-60.5c-0.8,4.2-1.7,8.3-2.5,12.5c-0.2,0.7-0.6,1.7-1.3,1.5c-0.3-0.1-0.5-0.3-0.7-0.5
			c-6.3-7-16.3-15.3-26.3-12.5c-8.9,2.5-15.7,11.3-19.9,19.2c-8.3,15.8-12.8,33.5-13,51.4"/>
		<path fill="none" stroke-width="12" stroke-linecap="round" stroke-linejoin="round" stroke-miterlimit="10"  d="M673.5,572.8c0.4,1.6,6.9,12.2,11,15.4c5.1,4,10.8,3.5,12.9,3.3c7-0.6,11.5-4.6,12.9-5.9
			c2.7-2.5,4.7-5.5,7.8-13.7c3.7-9.9,5.5-17.9,6.3-21.4c3.4-15.8,5.9-31.8,8.9-47.6c3-15.9,4.5-23.9,4.8-28.1c0-0.4,0.2-2.9,0.4-2.9
			c0.4,0,0.5,6.8,1.8,14.8c0.6,3.3,1.6,8.9,4.1,15.1c1.8,4.6,4.3,8.4,9.2,15.9c7.4,11.3,8.3,10.9,11.4,17c3.5,6.7,5.3,12.7,6.3,17
			c1.3,5.6,2.1,9.1,1.5,14c-1,8.2-5.2,13.8-7,15.9c-1.3,1.6-5.1,5.7-11.4,8.5c-1.5,0.6-5.4,2.2-10.7,2.6c-8.1,0.6-14.5-2.1-17.7-3.7
			"/>
	</g>
	<g>
		<path fill="none" stroke-width="12" stroke-linecap="round" stroke-linejoin="round" stroke-miterlimit="10"  d="M325.6,451.7c-0.4,3-0.9,6-1.3,8.9"/>
		<path fill="none" stroke-width="12" stroke-linecap="round" stroke-linejoin="round" stroke-miterlimit="10"  d="M419.4,480.4c4-2.1,8.9-0.6,13.3,0.4c14.5,3.6,29.8,5.2,39.7,1"/>
	</g>
</g>
</svg>
