<?xml version="1.0" encoding="utf-8"?>
<!-- Generator: Adobe Illustrator 19.1.0, SVG Export Plug-In . SVG Version: 6.00 Build 0)  -->
<!-- All rights reserved. Copyright: AnimatedSVG - ASVG © 2020 - https://animated-svg.com You may not reproduce, duplicate, copy or sell this intellectual property.  -->

<svg version="1.1" stroke="#000" id="Layer_1" xmlns="http://www.w3.org/2000/svg" xmlns:xlink="http://www.w3.org/1999/xlink" x="0px" y="0px" viewBox="0 0 800 800" style="enable-background:new 0 0 800 800" width="800px" height="800px" xml:space="preserve">

<g>
	<g>
		<path fill="none" stroke-width="28" stroke-linecap="round" stroke-linejoin="round" stroke-miterlimit="10"  d="M434,405.7c0,25-20.2,45.1-45.1,45.1c-24.9,0-45.1-20.1-45.1-45.1c0-24.9,20.2-45.1,45.1-45.1
			C413.8,360.6,434,380.8,434,405.7z"/>
		<path fill="none" stroke-width="28" stroke-linecap="round" stroke-linejoin="round" stroke-miterlimit="10"  d="M450.9,676.3v101.5h-124V676.3c0-34.2,27.8-62,62-62S450.9,642,450.9,676.3"/>
	</g>
	<g>
		<polygon fill="none" stroke-width="28" stroke-linecap="round" stroke-linejoin="round" stroke-miterlimit="10" points="580,778 580,567.5 389,511.9 198,567.5 198,778 		"/>
		<polyline fill="none" stroke-width="28" stroke-linecap="round" stroke-linejoin="round" stroke-miterlimit="10"  points="340.5,298.7 248,352.3 248,551 		"/>
		<polyline fill="none" stroke-width="28" stroke-linecap="round" stroke-linejoin="round" stroke-miterlimit="10"  points="529,552 529,352.3 437.4,298.7 		"/>
		<line fill="none" stroke-width="28" stroke-linecap="round" stroke-linejoin="round" stroke-miterlimit="10"  x1="118" y1="778" x2="660" y2="778"/>
		<rect fill="none" stroke-width="28" stroke-linecap="round" stroke-linejoin="round" stroke-miterlimit="10" x="340.1" y="204"  width="97.7" height="94.6"/>
		<polyline fill="none" stroke-width="28" stroke-linecap="round" stroke-linejoin="round" stroke-miterlimit="10"  points="340.1,204 317.5,204 362.6,128.8 415.2,128.8 460.3,204 438.1,204 		"/>
	</g>
	<g>
		<line fill="none" stroke-width="28" stroke-linecap="round" stroke-linejoin="round" stroke-miterlimit="10"  x1="388.9" y1="21.8" x2="388.9" y2="128.8"/>
		<line fill="none" stroke-width="28" stroke-linecap="round" stroke-linejoin="round" stroke-miterlimit="10"  x1="355.1" y1="58.4" x2="422.7" y2="58.4"/>
	</g>
</g>
</svg>
