<?xml version="1.0" encoding="utf-8"?>
<!-- Generator: Adobe Illustrator 19.1.0, SVG Export Plug-In . SVG Version: 6.00 Build 0)  -->
<svg version="1.1" stroke="#000" id="Layer_2" xmlns="http://www.w3.org/2000/svg" xmlns:xlink="http://www.w3.org/1999/xlink" x="0px" y="0px" widthviewBox="0 0 800 800" style="enable-background:new 0 0 800 800" width="800px" height="800px" xml:space="preserve">

<path fill="none" stroke-width="28" stroke-linecap="round" stroke-linejoin="round" stroke-miterlimit="10"  d="M320.8,271.2c0.3,0.3,0.6,0.7,0.8,1c-29.5-17.9-59.5-35.1-89.9-51.4c-25.5-13.7-52.6-33-82.7-32.5
	c-5.8,0.1-55.3,1.8-77.5,39.6c-13.8,23.5-11.1,52.1-1.2,76.5c11.3,27.9,37.1,47,62.7,61c9.1,5,14.1,7.1,29.8,12.4
	c33,11.3,63.4,25.7,93.2,44c11.3,6.9,19.3,12.4,24.4,22.7c8.6,17.3,2.7,35.7,1.2,40.2c-8.7,27.1-35.6,46-55.2,65
	c-27.5,26.6-58.7,55.2-77.8,88.6c-19.2,33.6-23.5,81.2,2.1,112.9c36,44.7,101.2,31.5,140.6-0.5c29.2-23.7,50.8-56.1,73.5-85.7
	c38.7-50.6,47.3-59.1,60.2-59.8c4.2-0.2,12.4,0.2,44.2,24.1c59.6,44.8,155,171.8,237.4,92.4c17.6-16.9,22.9-36.1,25-44.3
	c2.3-8.6,8-31.6-1.5-55.9c-3.3-8.4-8.3-17-39-45.1c-26.9-24.8-56.4-46.5-85.5-68.7c-22.2-16.9-67.1-42.2-66.5-74.7
	c0.4-19.5,17.2-34.3,28.9-44.6c16.1-14.1,36.9-22.4,54.8-33.8c18.7-11.9,36.2-25.5,53.7-39.1c14.5-11.4,34.4-22.2,45.1-37.6
	c3.9-5.5,21.8-31.2,14.7-63.1c-5.2-23-20.6-36.7-26.9-42.1c-24.2-20.8-58.3-27-86.2-19.8c-14.7,3.8-26.3,15.3-38.1,24.5
	c-25.8,20.1-50.6,41.3-76.9,60.7c-8.8,6.5-20.9,18.4-31.8,20.4c1.2-7,11.3-15.9,15.7-22.3c15.2-21.8,23.9-43.9,26.9-70.2
	C534.9,24.6,336.4-34.7,275.6,96.4c-14.5,31.4-16,68.6-3.8,101C282.2,225.2,301.6,248.5,320.8,271.2z"/>
<path fill="none" stroke-width="28" stroke-linecap="round" stroke-linejoin="round" stroke-miterlimit="10"  d="M120.1,345.1c10.4-3.2,20.9-7.5,27.7-16.4c4.9-6.3,9.7-13.4,10.8-21.3c4.6-34.9,16.2-68.1,74.1-86.6"/>
<path fill="none" stroke-width="28" stroke-linecap="round" stroke-linejoin="round" stroke-miterlimit="10"  d="M549.6,206c15.6,1.3,35.3,1.1,49.1,9.5c15.8,9.6,24.4,32,30.1,48.5c2,5.8,4,11.9,8.1,16.6
	c12.8,14.7,44,18.3,62.1,18.9"/>
<path fill="none" stroke-width="28" stroke-linecap="round" stroke-linejoin="round" stroke-miterlimit="10"  d="M188.2,587.4c0.5,19.8,3.9,51.5,19.2,65.9c18.9,17.7,50.2,18.6,68.8,37.5c5.9,6.1,13.9,34.8,15,60.1"/>
<path fill="none" stroke-width="28" stroke-linecap="round" stroke-linejoin="round" stroke-miterlimit="10"  d="M570.4,716.1c2.6-10.4,15.5-43.5,27.9-57.6c14.7-16.6,27.5-18.1,39.9-30.7c10-10.2,19.8-43.4,19.3-80.2"/>
<path fill="none" stroke-width="28" stroke-linecap="round" stroke-linejoin="round" stroke-miterlimit="10"  d="M342.2,197c3.2,3.1,24.1,28,54.3,24.9c30.9-3.2,47.2-33,49.7-36.7"/>
<circle fill="none" stroke-width="28" stroke-linecap="round" stroke-linejoin="round" stroke-miterlimit="10" class="st1" cx="429.4" cy="120.1" r="11"/>
<circle fill="none" stroke-width="28" stroke-linecap="round" stroke-linejoin="round" stroke-miterlimit="10" class="st1" cx="349.6" cy="124.9" r="11"/>
<circle fill="#000" stroke-width="28" stroke-linecap="round" stroke-linejoin="round" stroke-miterlimit="10" class="st1" cx="407.2" cy="356" r="25"/>
<circle fill="#000" stroke-width="28" stroke-linecap="round" stroke-linejoin="round" stroke-miterlimit="10" class="st1" cx="416.6" cy="475.2" r="26.5"/>
</svg>
