<?xml version="1.0" encoding="utf-8"?>
<!-- Generator: Adobe Illustrator 19.1.0, SVG Export Plug-In . SVG Version: 6.00 Build 0)  -->
<!-- All rights reserved. Copyright: AnimatedSVG - ASVG © 2020 - https://animated-svg.com You may not reproduce, duplicate, copy or sell this intellectual property.  -->
<svg version="1.1" stroke="#000" xmlns="http://www.w3.org/2000/svg" xmlns:xlink="http://www.w3.org/1999/xlink" x="0px" y="0px" viewBox="0 0 800 800" style="enable-background:new 0 0 800 800" width="800px" height="800px" xml:space="preserve">
<g id="Layer_2">
	<path fill="none" stroke-width="22" stroke-linecap="round" stroke-linejoin="round" stroke-miterlimit="10"   class="st0" d="M473.4,361.1l27.2,0.2h151.6c15.6,0.3,27.8,10.4,27.5,22.7c-0.3,12.3-13.2,22-28.7,21.7h-30.9H576"/>
	<path fill="none" stroke-width="22" stroke-linecap="round" stroke-linejoin="round" stroke-miterlimit="10"   class="st0" d="M527.4,405.7H576c15.5,0.2,27.7,10.8,27.4,23.1c-0.3,12.3-13.2,22-28.7,21.7h-55.3"/>
	<path fill="none" stroke-width="22" stroke-linecap="round" stroke-linejoin="round" stroke-miterlimit="10"   class="st0" d="M548.5,450.6c15.5,0.2,27.7,10.8,27.4,23.1c-0.3,12.3-13.2,22-28.7,21.7 M498.4,495.4h48.7"/>
	<g>
		<g>
			<g>
				<path fill="none" stroke-width="22" stroke-linecap="round" stroke-linejoin="round" stroke-miterlimit="10"   class="st0" d="M532.4,497.6c10.9,4.2,17.8,12.4,17.8,20.3c0,8.5-7.8,14.9-8.7,15.6c-6.8,5.5-14.9,6-20,6.2
					c-27.3,1.3-41,2-55.5,0.4c-24.5-2.7-36.7-4-49.7-9.1c-11.1-4.4-22.8-9-31.7-16.9c-15.4-13.6-22-30.4-46.1-30.5h-17.2"/>
				<path fill="none" stroke-width="22" stroke-linecap="round" stroke-linejoin="round" stroke-miterlimit="10"   class="st0" d="M321.3,483.6H242h-95.3"/>
				<path fill="none" stroke-width="22" stroke-linecap="round" stroke-linejoin="round" stroke-miterlimit="10"   class="st0" d="M146.7,483.6H81.3c-29.9,0-54.3-22.9-54.3-50.9v-57.4"/>
				<path fill="none" stroke-width="22" stroke-linecap="round" stroke-linejoin="round" stroke-miterlimit="10"   class="st0" d="M27,375.4v-47.5c0-6.2,1.2-12.2,3.4-17.7c7.8-19.4,27.5-33.3,50.7-33.3c0,0,25.8,0,65.6,0"/>
				<path fill="none" stroke-width="22" stroke-linecap="round" stroke-linejoin="round" stroke-miterlimit="10"   class="st0" d="M146.7,276.9c55.9,0,139.5,0,217.3,0"/>
				<path fill="none" stroke-width="22" stroke-linecap="round" stroke-linejoin="round" stroke-miterlimit="10"   class="st0" d="M364,276.9c86.9,0,166.5,0,192.7,0"/>
				<path fill="none" stroke-width="22" stroke-linecap="round" stroke-linejoin="round" stroke-miterlimit="10"   class="st0" d="M556.8,276.9c5.8,0,9,0,9,0c20.3-11.8,46-17.7,71.6-17.9c33.7-0.3,64.7,11.3,88.6,30.6
					c11.3,9.2,21.1,20.1,28.7,32.3"/>
				<path fill="none" stroke-width="22" stroke-linecap="round" stroke-linejoin="round" stroke-miterlimit="10"   class="st0" d="M754.7,321.9c11.5,18.5,18.1,39.8,18.3,62.6c0.3,38.7-18.1,73.5-47.1,96.9c-10.1,8.2-21.6,15-34.1,20.1
					c-30.6,12.4-65.8,14.1-97.4,4.4"/>
			</g>
			<path fill="none" stroke-width="22" stroke-linecap="round" stroke-linejoin="round" stroke-miterlimit="10"   class="st0" d="M620.1,302.6c5.9-1.1,11.9-1.7,18.1-1.7c49.7,0,90.1,37.8,90.1,84.5s-40.3,84.5-90.1,84.5
				c-6.1,0-12.1-0.6-17.9-1.7"/>
		</g>
	</g>
</g>
<g id="Layer_1_1_">
	<g>
		<path fill="none" stroke-width="22" stroke-linecap="round" stroke-linejoin="round" stroke-miterlimit="10"   class="st0" d="M133,340.1c-5.7-4.5-12.6-8.2-24.2-8.2c-38.7,0-45.3,39-40.6,65.6c3.8,22,17.8,34,37.5,34
			c12.7,0,20.3-4.6,25.5-8.5"/>
		<path fill="none" stroke-width="22" stroke-linecap="round" stroke-linejoin="round" stroke-miterlimit="10"   class="st0" d="M168,333.1l-0.4,97.1h45.5l0.1,0.3"/>
		<path fill="none" stroke-width="22" stroke-linecap="round" stroke-linejoin="round" stroke-miterlimit="10"   class="st0" d="M247.4,333.1l-0.4,97.4"/>
		<path fill="none" stroke-width="22" stroke-linecap="round" stroke-linejoin="round" stroke-miterlimit="10"   class="st0" d="M347.2,340.1c-5.7-4.5-12.6-8.2-24.2-8.2c-38.7,0-45.3,39-40.6,65.6c3.8,22,17.8,34,37.5,34
			c12.7,0,20.3-4.6,25.5-8.5"/>
		<path fill="none" stroke-width="22" stroke-linecap="round" stroke-linejoin="round" stroke-miterlimit="10"   class="st0" d="M381.4,333.1l-0.4,97.2 M437,430.4L381.7,378l53.1-45"/>
	</g>
</g>
</svg>
