<?xml version="1.0" encoding="utf-8"?>
<!-- Generator: Adobe Illustrator 19.1.0, SVG Export Plug-In . SVG Version: 6.00 Build 0)  -->
<!-- All rights reserved. Copyright: AnimatedSVG - ASVG © 2020 - https://animated-svg.com You may not reproduce, duplicate, copy or sell this intellectual property.  -->
<svg version="1.1" stroke="#000" xmlns="http://www.w3.org/2000/svg" xmlns:xlink="http://www.w3.org/1999/xlink" x="0px" y="0px" viewBox="0 0 800 800" style="enable-background:new 0 0 800 800" width="800px" height="800px" xml:space="preserve">
<g id="Layer_2">
	<g>
		<path fill="none" stroke-width="22" stroke-linecap="round" stroke-linejoin="round" stroke-miterlimit="10"    d="M326.5,361.1l-27.2,0.2H147.8c-15.5,0.3-27.8,10.4-27.5,22.7c0.3,12.3,13.2,22,28.7,21.7h30.9H224"/>
	</g>
	<g>
		<path fill="none" stroke-width="22" stroke-linecap="round" stroke-linejoin="round" stroke-miterlimit="10"    d="M272.6,405.7H224c-15.5,0.3-27.8,10.9-27.4,23.1c0.3,12.3,13.2,22,28.7,21.7h55.3"/>
	</g>
	<g>
		<path fill="none" stroke-width="22" stroke-linecap="round" stroke-linejoin="round" stroke-miterlimit="10"    d="M251.5,450.5c-15.5,0.3-27.7,10.9-27.4,23.1c0.3,12.3,13.2,22,28.7,21.7"/>
		<path fill="none" stroke-width="22" stroke-linecap="round" stroke-linejoin="round" stroke-miterlimit="10"    d="M252.8,495.4h48.7"/>
	</g>
	<g>
		<g>
			<g>
				<path fill="none" stroke-width="22" stroke-linecap="round" stroke-linejoin="round" stroke-miterlimit="10"    d="M267.5,497.8c-10.9,4.2-17.8,12.3-17.8,20.3c0,8.5,7.8,14.9,8.7,15.6c6.8,5.4,15,5.9,20,6.2
					c27.3,1.3,41,1.9,55.5,0.4c24.5-2.7,36.7-4,49.7-9.1c11.1-4.4,22.8-9,31.7-16.9c15.4-13.6,22-30.4,46.1-30.5h17.2"/>
				<path fill="none" stroke-width="22" stroke-linecap="round" stroke-linejoin="round" stroke-miterlimit="10"    d="M478.7,483.6H558h95.3"/>
				<path fill="none" stroke-width="22" stroke-linecap="round" stroke-linejoin="round" stroke-miterlimit="10"    d="M653.3,483.6h65.4c29.9,0,54.3-22.9,54.3-50.9v-57.4"/>
				<path fill="none" stroke-width="22" stroke-linecap="round" stroke-linejoin="round" stroke-miterlimit="10"    d="M773,375.3v-47.5c0-6.2-1.2-12.2-3.4-17.7c-7.7-19.3-27.4-33.3-50.7-33.3c0,0-25.8,0-65.6,0"/>
				<path fill="none" stroke-width="22" stroke-linecap="round" stroke-linejoin="round" stroke-miterlimit="10"    d="M653.3,276.9c-56,0-139.5,0-217.3,0"/>
				<path fill="none" stroke-width="22" stroke-linecap="round" stroke-linejoin="round" stroke-miterlimit="10"    d="M436,276.9c-86.8,0-166.5,0-192.7,0"/>
				<path fill="none" stroke-width="22" stroke-linecap="round" stroke-linejoin="round" stroke-miterlimit="10"    d="M243.3,276.9c-5.8,0-9,0-9,0c-20.3-11.8-46-17.8-71.6-17.9c-33.7-0.2-64.8,11.4-88.6,30.6
					c-11.4,9.2-21.1,20.1-28.7,32.3"/>
				<path fill="none" stroke-width="22" stroke-linecap="round" stroke-linejoin="round" stroke-miterlimit="10"    d="M45.3,321.9c-11.5,18.4-18.2,39.8-18.3,62.6c-0.3,38.8,18,73.6,47.1,96.9c10.2,8.2,21.7,15,34.1,20.1
					c30.6,12.5,65.8,14.1,97.4,4.4"/>
			</g>
			<path fill="none" stroke-width="22" stroke-linecap="round" stroke-linejoin="round" stroke-miterlimit="10"    d="M179.9,302.6c-5.9-1.1-11.9-1.7-18.1-1.7c-49.7,0-90.1,37.8-90.1,84.5s40.3,84.5,90.1,84.5
				c6.1,0,12.1-0.6,17.9-1.7"/>
		</g>
	</g>
</g>
<g id="Layer_1">
	<g>
		<path fill="none" stroke-width="22" stroke-linecap="round" stroke-linejoin="round" stroke-miterlimit="10"    d="M429.1,340.1c-5.7-4.5-12.6-8.2-24.2-8.2c-38.7,0-45.3,39-40.6,65.6c3.8,22,17.8,34,37.5,34
			c12.7,0,20.3-4.6,25.5-8.5"/>
		<path fill="none" stroke-width="22" stroke-linecap="round" stroke-linejoin="round" stroke-miterlimit="10"    d="M464.1,333.1l-0.4,97.1h45.5l0.1,0.3"/>
		<path fill="none" stroke-width="22" stroke-linecap="round" stroke-linejoin="round" stroke-miterlimit="10"    d="M543.4,333.1l-0.4,97.4"/>
		<path fill="none" stroke-width="22" stroke-linecap="round" stroke-linejoin="round" stroke-miterlimit="10"    d="M643.3,340.1c-5.7-4.5-12.6-8.2-24.2-8.2c-38.7,0-45.3,39-40.6,65.6c3.8,22,17.8,34,37.5,34
			c12.7,0,20.3-4.6,25.5-8.5"/>
		<path fill="none" stroke-width="22" stroke-linecap="round" stroke-linejoin="round" stroke-miterlimit="10"    d="M677.4,333.1l-0.4,97.2 M733.1,430.4L677.8,378l53.1-45"/>
	</g>
</g>
</svg>
