<?xml version="1.0" encoding="utf-8"?>
<!-- Generator: Adobe Illustrator 19.1.0, SVG Export Plug-In . SVG Version: 6.00 Build 0)  -->
<!-- All rights reserved. Copyright: AnimatedSVG - ASVG © 2020 - https://animated-svg.com You may not reproduce, duplicate, copy or sell this intellectual property.  -->
<svg version="1.1" stroke="#000" id="Layer_1" xmlns="http://www.w3.org/2000/svg" xmlns:xlink="http://www.w3.org/1999/xlink" x="0px" y="0px" viewBox="0 0 800 800" style="enable-background:new 0 0 800 800" width="800px" height="800px" xml:space="preserve">

<g>
	<g>
		<g>
			<path fill="none" stroke-width="26" stroke-linecap="round" stroke-linejoin="round" stroke-miterlimit="10"    d="M219.9,249.9c-7.7-6.1-17.1-11.1-32.7-11.1c-52.5,0-61.5,52.9-55.1,88.9c5.2,29.8,24,46,50.8,46
				c17.2,0,27.6-6.2,34.5-11.5"/>
			<path fill="none" stroke-width="26" stroke-linecap="round" stroke-linejoin="round" stroke-miterlimit="10"    d="M272.9,240.4L272.4,372h61.7l0.1,0.4"/>
			<path fill="none" stroke-width="26" stroke-linecap="round" stroke-linejoin="round" stroke-miterlimit="10"    d="M386.2,240.4l-0.5,132"/>
			<path fill="none" stroke-width="26" stroke-linecap="round" stroke-linejoin="round" stroke-miterlimit="10"    d="M538.8,249.9c-7.7-6.1-17.1-11.1-32.7-11.1c-52.5,0-61.5,52.9-55.1,88.9c5.2,29.8,24,46,50.8,46
				c17.2,0,27.6-6.2,34.5-11.5"/>
			<path fill="none" stroke-width="26" stroke-linecap="round" stroke-linejoin="round" stroke-miterlimit="10"    d="M591.7,240.4l-0.5,131.8 M667.2,372.4l-75-71.1l71.9-60.9"/>
			<path fill="none" stroke-width="26" stroke-linecap="round" stroke-linejoin="round" stroke-miterlimit="10"    d="M214.4,539.3h-83.6l-0.3,70.8h-0.5 M215.1,478.1l-0.8,132 M131,478.1l-0.3,60.8"/>
			<path fill="none" stroke-width="26" stroke-linecap="round" stroke-linejoin="round" stroke-miterlimit="10"    d="M343,540.3h-56.6l0.4,69.5h67.1 M286.4,540.3l0.5-62.1h65.5"/>
			<path fill="none" stroke-width="26" stroke-linecap="round" stroke-linejoin="round" stroke-miterlimit="10"    d="M408.9,545.2v-67.1h29.6c30.9,0,43.6,10.1,46.7,27.6c3.3,19-7.3,38.8-37,39.6l40.7,64.9 M447.5,545.2H446
				h-37l-0.4,64.9"/>
			<path fill="none" stroke-width="26" stroke-linecap="round" stroke-linejoin="round" stroke-miterlimit="10"    d="M613.6,610.1H546l0.5-132 M602.6,540.3h-56.4 M612,478.5h-65"/>
			<path fill="none" stroke-width="26" stroke-linecap="round" stroke-linejoin="round" stroke-miterlimit="10"    d="M669.9,609.6c0,1-0.8,1.8-1.8,1.8c-1,0-1.8-0.8-1.8-1.8c0-1,0.8-1.8,1.8-1.8c0.9,0,1.5,0.6,1.8,1.4"/>
			<path fill="none" stroke-width="26" stroke-linecap="round" stroke-linejoin="round" stroke-miterlimit="10"    d="M668.7,478.1l-0.1,89.1"/>
		</g>
	</g>
	<g>
		<path fill="none" stroke-width="26" stroke-linecap="round" stroke-linejoin="round" stroke-miterlimit="10"    d="M387.4,425.1c0,1-0.8,1.8-1.8,1.8c-1,0-1.8-0.8-1.8-1.8s0.8-1.8,1.8-1.8c0.9,0,1.5,0.6,1.8,1.4"/>
		<line fill="none" stroke-width="26" stroke-linecap="round" stroke-linejoin="round" stroke-miterlimit="10"    x1="325.3" y1="425.6" x2="155.3" y2="425.6"/>
		<path fill="none" stroke-width="26" stroke-linecap="round" stroke-linejoin="round" stroke-miterlimit="10"    d="M155.3,425.6H93.8c-36.8,0-66.8,30.1-66.8,66.8v51.4"/>
		<path fill="none" stroke-width="26" stroke-linecap="round" stroke-linejoin="round" stroke-miterlimit="10"    d="M27,543.8v51.4c0,36.8,30.1,66.8,66.8,66.8h61.5"/>
		<line fill="none" stroke-width="26" stroke-linecap="round" stroke-linejoin="round" stroke-miterlimit="10"    x1="155.3" y1="662.1" x2="383.9" y2="662.1"/>
		<line fill="none" stroke-width="26" stroke-linecap="round" stroke-linejoin="round" stroke-miterlimit="10"    x1="383.9" y1="662.1" x2="624.4" y2="662.1"/>
		<path fill="none" stroke-width="26" stroke-linecap="round" stroke-linejoin="round" stroke-miterlimit="10"    d="M624.4,662.1h81.7c36.8,0,66.8-30.1,66.8-66.8v-50.8"/>
		<path fill="none" stroke-width="26" stroke-linecap="round" stroke-linejoin="round" stroke-miterlimit="10"    d="M773,544.5v-52c0-36.8-30.1-66.8-66.8-66.8h-81.7"/>
		<line fill="none" stroke-width="26" stroke-linecap="round" stroke-linejoin="round" stroke-miterlimit="10"    x1="624.4" y1="425.6" x2="449.1" y2="425.6"/>
	</g>
</g>
</svg>
