<?xml version="1.0" encoding="utf-8"?>
<!-- Generator: Adobe Illustrator 19.1.0, SVG Export Plug-In . SVG Version: 6.00 Build 0)  -->
<!-- All rights reserved. Copyright: AnimatedSVG - ASVG © 2020 - https://animated-svg.com You may not reproduce, duplicate, copy or sell this intellectual property.  -->
<svg version="1.1" stroke="#000" id="Layer_1" xmlns="http://www.w3.org/2000/svg" xmlns:xlink="http://www.w3.org/1999/xlink" x="0px" y="0px" viewBox="0 0 800 800" style="enable-background:new 0 0 800 800" width="800px" height="800px" xml:space="preserve">
<g>
	<g>
		<g>
			<g>
				<path fill="none" stroke-width="28" stroke-linecap="round" stroke-linejoin="round" stroke-miterlimit="10"    d="M268.6,478.1c4.4,8.7,7.8,28.8,0.4,44.6c-11.5,20.5,13.2,14.7,40.9,10.6c21-1.5,56.1-5.2,41.6-20.2
					c-15.8-15.6-26.4-22.2-17.1-39.7"/>
				<path fill="none" stroke-width="28" stroke-linecap="round" stroke-linejoin="round" stroke-miterlimit="10"    d="M394.3,753.8c5.3-18.6,4.6-35.5,1.6-52.6c-4.2-22.7-2.7-42.4-25.3-55.9c-16.9-10-35.6-20.9-42.8-35.8
					c-6.3-11.1-7.2-24.6-9.8-37.7c-1.8-13.3-5.4-26,0.9-38.5"/>
			</g>
			<g>
				<path fill="none" stroke-width="28" stroke-linecap="round" stroke-linejoin="round" stroke-miterlimit="10"    d="M345.6,468c6.9-3.6,13.5-8,19.5-13.6c14-12.8,25.6-28,35.5-44c21.3-34.9,37-77.6,45.6-117.5
					C473,168.7,351.2,7.3,216.6,54.8C106.8,93.6,68.9,236.7,110.8,346c30,78.1,73.9,117.9,140.4,129.2
					C283.1,480.6,317.1,482.6,345.6,468z"/>
				<path fill="none" stroke-width="28" stroke-linecap="round" stroke-linejoin="round" stroke-miterlimit="10"    d="M332.4,415.7c5.3-3.6,10.3-7.8,14.8-13c10.3-11.8,18.5-25.3,25.1-39.5c2.2-4.8,4.4-9.7,6.3-14.7"/>
				<path fill="none" stroke-width="28" stroke-linecap="round" stroke-linejoin="round" stroke-miterlimit="10"    d="M223.4,105.4c-31.9,17.1-56.1,46.2-70.6,80"/>
			</g>
		</g>
		<g>
			<g>
				<path fill="none" stroke-width="28" stroke-linecap="round" stroke-linejoin="round" stroke-miterlimit="10"    d="M590.7,453.7c-4.3,7.5-8.4,24.8-3.6,39.3c7.9,19-12.5,11.8-35.5,6.1c-17.7-3-46.9-8.7-33.5-20.2
					c14.5-12,24-17.2,17.1-32.5"/>
				<path fill="none" stroke-width="28" stroke-linecap="round" stroke-linejoin="round" stroke-miterlimit="10"    d="M445.8,686.4c-0.5-21,6.9-44.8,15.7-63.8c4.2-9.1,10.3-17.7,18.2-24c9.7-7.6,22.5-10.2,32.7-17.3
					c16.3-11.4,22.3-29.4,28.1-47.5c3.2-12.1,7.7-23.7,3.6-35.8"/>
			</g>
			<g>
				<path fill="none" stroke-width="28" stroke-linecap="round" stroke-linejoin="round" stroke-miterlimit="10"    d="M434.5,180.1c8.9-21.1,22.2-41.7,40.2-61.4c42.1-45.2,94.3-78.4,156.7-61.8
					c50.7,12.9,95.4,57.3,117.4,112.3c22.4,54.9,22.1,120.4-8.7,174.4c-41.8,76.6-91.3,108.2-150.1,109.1
					c-28.9,0.5-58.7-2.9-83.3-19.5c-5.9-4-11.6-8.7-16.8-14.4c-11.9-12.8-22.1-27-30.6-41.7c-9.3-15.3-17.1-30.8-23.2-46.4"/>
				<g>
					<path fill="none" stroke-width="28" stroke-linecap="round" stroke-linejoin="round" stroke-miterlimit="10"    d="M614.3,100.1c12.7,3.7,24.2,10,34.7,18.3"/>
					<path fill="none" stroke-width="28" stroke-linecap="round" stroke-linejoin="round" stroke-miterlimit="10"    d="M680.6,144.4c3.7,3.9,7.3,7.9,10.8,12.1c4.1,4.9,7.8,9.8,11.1,14.8"/>
				</g>
			</g>
			<path fill="none" stroke-width="28" stroke-linecap="round" stroke-linejoin="round" stroke-miterlimit="10"    d="M526.6,207.9c19-2.6,41.9,0.2,49.1,20.2c4.5,12.6-4.7,25.8-9,32.1c-6.2,8.9-14.9,15.4-23,22.3
				c-5.8,4.9-11.6,10-17.1,15.2c-4.8,4.4-11.4,8.8-12.1,15.8l-1.5,15.7l54.6,5.2"/>
			<path fill="none" stroke-width="28" stroke-linecap="round" stroke-linejoin="round" stroke-miterlimit="10"    d="M668.1,280.4c4.3-45.8-1.1-61.4-22.7-63.4c-20.6-2-28.9,12.4-33.3,58.1c-4.5,47.8,0.8,63.5,21.5,65.5
				C655.5,342.7,663.5,328.3,668.1,280.4z"/>
		</g>
		<path fill="none" stroke-width="28" stroke-linecap="round" stroke-linejoin="round" stroke-miterlimit="10"    d="M191.5,225.4c17.8-6.9,40.8-9.6,52.5,8.2c7.3,11.2,1.5,26.2-1.3,33.3c-3.9,10.1-10.8,18.5-17.2,27.1
			c-4.5,6.2-8.9,12.4-13.1,18.7c-3.7,5.4-9,11.2-8,18.1l2.2,15.6l54.3-7.7"/>
		<path fill="none" stroke-width="28" stroke-linecap="round" stroke-linejoin="round" stroke-miterlimit="10"    d="M346,262.9c-6.5-45.6-15.4-59.4-36.9-56.4c-20.5,2.9-25.2,18.8-18.8,64.3c6.8,47.5,15.6,61.6,36.2,58.7
			C348.4,326.4,352.8,310.4,346,262.9z"/>
	</g>
	<g>
		<path fill="none" stroke-width="24" stroke-linecap="round" stroke-linejoin="round" stroke-miterlimit="10"    d="M633.4,608.1c-4.5-1.6-9.5-0.5-12.9,2.9c-3.4,3.3-4.6,8.3-3.1,12.9l7.3,22.3l-14.2,18.7
			c-2.9,3.8-3.4,8.9-1.3,13.2c2.1,4.3,6.5,7,11.3,7L644,685l13.4,19.3c1.2,1.7,2.7,3.1,4.5,4c2.3,1.2,5,1.7,7.7,1.3
			c4.7-0.7,8.6-4,10.1-8.6l7.2-22.3l22.5-6.7c4.6-1.4,8-5.2,8.8-9.9s-1.2-9.5-5-12.3l-19-13.8l0.5-23.5c0.2-9.6-12.2-16.1-20-10.4
			l-19,13.8L633.4,608.1z"/>
		<path fill="none" stroke-width="24" stroke-linecap="round" stroke-linejoin="round" stroke-miterlimit="10"    d="M712.5,556c19.9,0,36-16.1,36-36s-16.1-36-36-36s-36,16.1-36,36C676.5,539.9,692.6,556,712.5,556z"/>
		<circle fill="none" stroke-width="24" stroke-linecap="round" stroke-linejoin="round" stroke-miterlimit="10"    cx="552.7" cy="712.4" r="8"/>
		<circle fill="none" stroke-width="24" stroke-linecap="round" stroke-linejoin="round" stroke-miterlimit="10"    cx="169.6" cy="632.9" r="8"/>
		<circle fill="none" stroke-width="24" stroke-linecap="round" stroke-linejoin="round" stroke-miterlimit="10"    cx="117.8" cy="705" r="8"/>
		<path fill="none" stroke-width="24" stroke-linecap="round" stroke-linejoin="round" stroke-miterlimit="10"    d="M173.1,576.6c18-2.9,30.2-20,27.2-37.9c-2.9-18-20-30.2-37.9-27.2s-30.2,20-27.2,37.9
			C138.1,567.4,155.1,579.6,173.1,576.6z"/>
		<path fill="none" stroke-width="24" stroke-linecap="round" stroke-linejoin="round" stroke-miterlimit="10"    d="M73.7,669.3c18-2.9,30.2-20,27.2-37.9c-2.9-18-20-30.2-37.9-27.2c-18,2.9-30.2,20-27.2,37.9
			C38.8,660,55.8,672.3,73.7,669.3z"/>
		<path fill="none" stroke-width="24" stroke-linecap="round" stroke-linejoin="round" stroke-miterlimit="10"    d="M215.3,690.1c-3.7,1.3-6.3,4.5-6.8,8.4s1.2,7.7,4.5,9.8l15.9,10.6l0.3,19.2c0.1,3.9,2.3,7.4,5.9,9.1
			c3.5,1.7,7.7,1.2,10.8-1.2l15-11.9l18.3,5.6c1.6,0.5,3.3,0.6,4.9,0.3c2.1-0.4,4.1-1.4,5.6-3c2.7-2.8,3.5-6.9,2.2-10.6l-6.7-18
			l11-15.7c2.2-3.2,2.5-7.4,0.6-10.8c-1.9-3.4-5.5-5.5-9.4-5.3l-19.1,0.8l-11.5-15.3c-4.7-6.3-16-4.1-18.1,3.4l-5.2,18.4
			L215.3,690.1z"/>
	</g>
</g>
</svg>
