<?xml version="1.0" encoding="utf-8"?>
<!-- Generator: Adobe Illustrator 19.1.0, SVG Export Plug-In . SVG Version: 6.00 Build 0)  -->
<!-- All rights reserved. Copyright: AnimatedSVG - ASVG © 2020 - https://animated-svg.com You may not reproduce, duplicate, copy or sell this intellectual property.  -->
<svg version="1.1" stroke="#000" id="Layer_1" xmlns="http://www.w3.org/2000/svg" xmlns:xlink="http://www.w3.org/1999/xlink" x="0px" y="0px" viewBox="0 0 800 800" style="enable-background:new 0 0 800 800" width="800px" height="800px" xml:space="preserve">

<g>
	<path fill="none" stroke-width="28" stroke-linecap="round" stroke-linejoin="round" stroke-miterlimit="10" class="st0" d="M663.7,136.3c145.7,145.7,145.7,381.8,0,527.5s-381.8,145.7-527.5,0s-145.7-381.8,0-527.5
		S518.1-9.4,663.7,136.3z"/>
	<g>
		<circle fill="none" stroke-width="28" stroke-linecap="round" stroke-linejoin="round" stroke-miterlimit="10" class="st0" cx="399.1" cy="81.3" r="8"/>
		<circle fill="none" stroke-width="28" stroke-linecap="round" stroke-linejoin="round" stroke-miterlimit="10" class="st0" cx="316.8" cy="92.3" r="8"/>
		<circle fill="none" stroke-width="28" stroke-linecap="round" stroke-linejoin="round" stroke-miterlimit="10" class="st0" cx="240.1" cy="124.2" r="8"/>
		<circle fill="none" stroke-width="28" stroke-linecap="round" stroke-linejoin="round" stroke-miterlimit="10" class="st0" cx="174.6" cy="174.6" r="8"/>
		<circle fill="none" stroke-width="28" stroke-linecap="round" stroke-linejoin="round" stroke-miterlimit="10" class="st0" cx="123.7" cy="241" r="8"/>
		<circle fill="none" stroke-width="28" stroke-linecap="round" stroke-linejoin="round" stroke-miterlimit="10" class="st0" cx="92" cy="317.8" r="8"/>
		<circle fill="none" stroke-width="28" stroke-linecap="round" stroke-linejoin="round" stroke-miterlimit="10" class="st0" cx="81.2" cy="400.7" r="8"/>
		<circle fill="none" stroke-width="28" stroke-linecap="round" stroke-linejoin="round" stroke-miterlimit="10" class="st0" cx="92.2" cy="483" r="8"/>
		<circle fill="none" stroke-width="28" stroke-linecap="round" stroke-linejoin="round" stroke-miterlimit="10" class="st0" cx="124.2" cy="559.7" r="8"/>
		<circle fill="none" stroke-width="28" stroke-linecap="round" stroke-linejoin="round" stroke-miterlimit="10" class="st0" cx="174.6" cy="625.2" r="8"/>
		<circle fill="none" stroke-width="28" stroke-linecap="round" stroke-linejoin="round" stroke-miterlimit="10" class="st0" cx="241" cy="676.1" r="8"/>
		<circle fill="none" stroke-width="28" stroke-linecap="round" stroke-linejoin="round" stroke-miterlimit="10" class="st0" cx="317.8" cy="707.8" r="8"/>
		<circle fill="none" stroke-width="28" stroke-linecap="round" stroke-linejoin="round" stroke-miterlimit="10" class="st0" cx="398.5" cy="719.6" r="8"/>
		<circle fill="none" stroke-width="28" stroke-linecap="round" stroke-linejoin="round" stroke-miterlimit="10" class="st0" cx="480.9" cy="708.6" r="8"/>
		<circle fill="none" stroke-width="28" stroke-linecap="round" stroke-linejoin="round" stroke-miterlimit="10" class="st0" cx="557.6" cy="676.6" r="8"/>
		<circle fill="none" stroke-width="28" stroke-linecap="round" stroke-linejoin="round" stroke-miterlimit="10" class="st0" cx="623" cy="626.2" r="8"/>
		<circle fill="none" stroke-width="28" stroke-linecap="round" stroke-linejoin="round" stroke-miterlimit="10" class="st0" cx="674" cy="559.8" r="8"/>
		<circle fill="none" stroke-width="28" stroke-linecap="round" stroke-linejoin="round" stroke-miterlimit="10" class="st0" cx="705.7" cy="483" r="8"/>
		<circle fill="none" stroke-width="28" stroke-linecap="round" stroke-linejoin="round" stroke-miterlimit="10" class="st0" cx="718.7" cy="400.5" r="8"/>
		<circle fill="none" stroke-width="28" stroke-linecap="round" stroke-linejoin="round" stroke-miterlimit="10" class="st0" cx="707.7" cy="318.2" r="8"/>
		<circle fill="none" stroke-width="28" stroke-linecap="round" stroke-linejoin="round" stroke-miterlimit="10" class="st0" cx="675.7" cy="241.5" r="8"/>
		<circle fill="none" stroke-width="28" stroke-linecap="round" stroke-linejoin="round" stroke-miterlimit="10" class="st0" cx="625.3" cy="176" r="8"/>
		<circle fill="none" stroke-width="28" stroke-linecap="round" stroke-linejoin="round" stroke-miterlimit="10" class="st0" cx="558.9" cy="125" r="8"/>
		<circle fill="none" stroke-width="28" stroke-linecap="round" stroke-linejoin="round" stroke-miterlimit="10" class="st0" cx="482.1" cy="93.4" r="8"/>
	</g>
	<g>
		<path fill="none" stroke-width="28" stroke-linecap="round" stroke-linejoin="round" stroke-miterlimit="10" class="st0" d="M323.5,392.3h70.3c0,0,110.6-10.1,110.6,90.5s-110.6,90.5-110.6,90.5l-88.3-0.1V233.9H385
			c0,0,96.8-8.9,96.8,79.2S385,392.3,385,392.3H323.5"/>
		<g>
			<line fill="none" stroke-width="28" stroke-linecap="round" stroke-linejoin="round" stroke-miterlimit="10" class="st0" x1="358.8" y1="573.5" x2="358.8" y2="624.5"/>
			<line fill="none" stroke-width="28" stroke-linecap="round" stroke-linejoin="round" stroke-miterlimit="10" class="st0" x1="412" y1="573.6" x2="412" y2="624.5"/>
		</g>
		<g>
			<line fill="none" stroke-width="28" stroke-linecap="round" stroke-linejoin="round" stroke-miterlimit="10" class="st0" x1="358.8" y1="183.5" x2="358.8" y2="233.9"/>
			<line fill="none" stroke-width="28" stroke-linecap="round" stroke-linejoin="round" stroke-miterlimit="10" class="st0" x1="412" y1="183.5" x2="412" y2="235.1"/>
		</g>
	</g>
</g>
</svg>
