<?xml version="1.0" encoding="utf-8"?>
<!-- Generator: Adobe Illustrator 19.1.0, SVG Export Plug-In . SVG Version: 6.00 Build 0)  -->
<!-- All rights reserved. Copyright: AnimatedSVG - ASVG © 2020 - https://animated-svg.com You may not reproduce, duplicate, copy or sell this intellectual property.  -->
<svg version="1.1" stroke="#000" id="Layer_1" xmlns="http://www.w3.org/2000/svg" xmlns:xlink="http://www.w3.org/1999/xlink" x="0px" y="0px" viewBox="0 0 800 800" style="enable-background:new 0 0 800 800" width="800px" height="800px" xml:space="preserve">

<g>
	<path fill="none" stroke-width="28" stroke-linecap="round" stroke-linejoin="round" stroke-miterlimit="10"  d="M663.7,136.3c145.7,145.7,145.7,381.8,0,527.5s-381.8,145.7-527.5,0s-145.7-381.8,0-527.5
		S518.1-9.4,663.7,136.3z"/>
	<g>
		<circle fill="none" stroke-width="28" stroke-linecap="round" stroke-linejoin="round" stroke-miterlimit="10"  cx="399.1" cy="81.3" r="8"/>
		<circle fill="none" stroke-width="28" stroke-linecap="round" stroke-linejoin="round" stroke-miterlimit="10"  cx="316.8" cy="92.3" r="8"/>
		<circle fill="none" stroke-width="28" stroke-linecap="round" stroke-linejoin="round" stroke-miterlimit="10"  cx="240.1" cy="124.2" r="8"/>
		<circle fill="none" stroke-width="28" stroke-linecap="round" stroke-linejoin="round" stroke-miterlimit="10"  cx="174.6" cy="174.6" r="8"/>
		<circle fill="none" stroke-width="28" stroke-linecap="round" stroke-linejoin="round" stroke-miterlimit="10"  cx="123.7" cy="241" r="8"/>
		<circle fill="none" stroke-width="28" stroke-linecap="round" stroke-linejoin="round" stroke-miterlimit="10"  cx="92" cy="317.8" r="8"/>
		<circle fill="none" stroke-width="28" stroke-linecap="round" stroke-linejoin="round" stroke-miterlimit="10"  cx="81.2" cy="400.7" r="8"/>
		<circle fill="none" stroke-width="28" stroke-linecap="round" stroke-linejoin="round" stroke-miterlimit="10"  cx="92.2" cy="483" r="8"/>
		<circle fill="none" stroke-width="28" stroke-linecap="round" stroke-linejoin="round" stroke-miterlimit="10"  cx="124.2" cy="559.7" r="8"/>
		<circle fill="none" stroke-width="28" stroke-linecap="round" stroke-linejoin="round" stroke-miterlimit="10"  cx="174.6" cy="625.2" r="8"/>
		<circle fill="none" stroke-width="28" stroke-linecap="round" stroke-linejoin="round" stroke-miterlimit="10"  cx="241" cy="676.1" r="8"/>
		<circle fill="none" stroke-width="28" stroke-linecap="round" stroke-linejoin="round" stroke-miterlimit="10"  cx="317.8" cy="707.8" r="8"/>
		<circle fill="none" stroke-width="28" stroke-linecap="round" stroke-linejoin="round" stroke-miterlimit="10"  cx="398.5" cy="719.6" r="8"/>
		<circle fill="none" stroke-width="28" stroke-linecap="round" stroke-linejoin="round" stroke-miterlimit="10"  cx="480.9" cy="708.6" r="8"/>
		<circle fill="none" stroke-width="28" stroke-linecap="round" stroke-linejoin="round" stroke-miterlimit="10"  cx="557.6" cy="676.6" r="8"/>
		<circle fill="none" stroke-width="28" stroke-linecap="round" stroke-linejoin="round" stroke-miterlimit="10"  cx="623" cy="626.2" r="8"/>
		<circle fill="none" stroke-width="28" stroke-linecap="round" stroke-linejoin="round" stroke-miterlimit="10"  cx="674" cy="559.8" r="8"/>
		<circle fill="none" stroke-width="28" stroke-linecap="round" stroke-linejoin="round" stroke-miterlimit="10"  cx="705.7" cy="483" r="8"/>
		<circle fill="none" stroke-width="28" stroke-linecap="round" stroke-linejoin="round" stroke-miterlimit="10"  cx="718.7" cy="400.5" r="8"/>
		<circle fill="none" stroke-width="28" stroke-linecap="round" stroke-linejoin="round" stroke-miterlimit="10"  cx="707.7" cy="318.2" r="8"/>
		<circle fill="none" stroke-width="28" stroke-linecap="round" stroke-linejoin="round" stroke-miterlimit="10"  cx="675.7" cy="241.5" r="8"/>
		<circle fill="none" stroke-width="28" stroke-linecap="round" stroke-linejoin="round" stroke-miterlimit="10"  cx="625.3" cy="176" r="8"/>
		<circle fill="none" stroke-width="28" stroke-linecap="round" stroke-linejoin="round" stroke-miterlimit="10"  cx="558.9" cy="125" r="8"/>
		<circle fill="none" stroke-width="28" stroke-linecap="round" stroke-linejoin="round" stroke-miterlimit="10"  cx="482.1" cy="93.4" r="8"/>
	</g>
	<g>
		<path fill="none" stroke-width="28" stroke-linecap="round" stroke-linejoin="round" stroke-miterlimit="10"  d="M505.5,301.1c0-9.6-1.4-29.7-13.9-50c-20.7-33.6-55.9-41.8-65.9-43.7c-6-1.1-38.8-6.8-71.6,12.7
			c-6.8,4.1-33,19.6-42.4,50c-4.6,14.9-3.6,27.9-2.5,41.2c1,12.9,4.1,24.2,10.1,46.2c5.9,21.4,7.1,22.1,12.7,42.4
			c5.7,20.7,11.8,36.6,8.3,58.4c-3.9,24.2-13.1,50.3-24.8,71.8c-8.7,15.9-24.1,27.1-38.3,37.9c-2,1.5-30.9,19.7-30.1,21.4
			c0.6,1.3,19.7-9.7,21.1-10.4c16.6-8.3,34.3-14.7,52.7-17.4c23.9-3.5,46.4,3,70,7.6c28.3,5.5,59.2,15.8,88.1,15.8
			c32.3,0,58.5-12,75.4-22.2"/>
		<line fill="none" stroke-width="28" stroke-linecap="round" stroke-linejoin="round" stroke-miterlimit="10"  x1="254.7" y1="397.5" x2="436.4" y2="397.5"/>
	</g>
</g>
</svg>
