<?xml version="1.0" encoding="utf-8"?>
<!-- Generator: Adobe Illustrator 19.1.0, SVG Export Plug-In . SVG Version: 6.00 Build 0)  -->
<svg version="1.1" id="Layer_1" xmlns="http://www.w3.org/2000/svg" xmlns:xlink="http://www.w3.org/1999/xlink" x="0px" y="0px" widthviewBox="0 0 800 800" style="enable-background:new 0 0 800 800;" xml:space="preserve">
<style type="text/css">
	.st0{fill:none;stroke:#000000;stroke-width:28;stroke-linecap:round;stroke-linejoin:round;stroke-miterlimit:10;}
</style>
<g>
	<path class="st0" d="M646.4,357.8h126.5c-9.3-84.6-46.7-163.2-107.2-223.4c-60.5-60.5-139-97.9-223.4-107.2v126.7
		c50.8,8.6,97.9,32.6,134.7,69.4C613.7,259.9,637.8,307,646.4,357.8z"/>
	<path class="st0" d="M603.6,543.2l89.7,89.7c44.3-55.3,71.8-122.2,79.6-192.7H646.4C640.1,477.4,625.6,512.4,603.6,543.2z"/>
	<path class="st0" d="M359.9,27c-84.5,9.3-163.2,46.7-223.4,107.2C66,204.7,27.1,298.8,27.1,398.9s38.9,194,109.4,264.7
		C207,734.1,300.9,773,401,773c85.8,0,167.8-28.8,234-81.9l-89.7-89.7c-42,30.1-92.5,46.3-144.2,46.3
		c-137.3,0-248.9-111.6-248.9-248.9c0-63.6,24-124.1,67.5-170.2c37.6-40,86.7-66,140.1-75L359.9,27L359.9,27z"/>
</g>
</svg>
