<?xml version="1.0" encoding="utf-8"?>
<!-- Generator: Adobe Illustrator 19.1.0, SVG Export Plug-In . SVG Version: 6.00 Build 0)  -->
<!-- All rights reserved. Copyright: AnimatedSVG - ASVG © 2020 - https://animated-svg.com You may not reproduce, duplicate, copy or sell this intellectual property.  -->
<svg version="1.1" stroke="#000" id="Layer_1" xmlns="http://www.w3.org/2000/svg" xmlns:xlink="http://www.w3.org/1999/xlink" x="0px" y="0px" viewBox="0 0 800 800" style="enable-background:new 0 0 800 800" width="800px" height="800px" xml:space="preserve">
<g>
	<g>
		<path fill="none" stroke-width="28" stroke-linecap="round" stroke-linejoin="round" stroke-miterlimit="10"    d="M31,474c6.9-21.6,21.3-40.9,38.2-57.7c52-51.7,124.7-76.1,195.6-88.1c70.6-12,145.8-16.9,216.7-5
			c10.7,1.8,21.4,4,32.1,6.2c80,17.1,179,50.5,232.4,116.3c26.1,32.1,35.5,76.1,18.2,114.6c-25.9,57.3-93.4,72.5-149.6,80.7
			c-75.5,11-152,12.7-228.1,10.2c-74.2-2.5-145.6-8.8-216.9-30.8c-38-11.8-87-24.1-115.2-53.8C31,542,20.7,506.7,31,474z"/>
		<path fill="none" stroke-width="28" stroke-linecap="round" stroke-linejoin="round" stroke-miterlimit="10"    d="M303.5,332.4c-22.2,28.4-47.2,56-53.9,92.6"/>
		<path fill="none" stroke-width="28" stroke-linecap="round" stroke-linejoin="round" stroke-miterlimit="10"    d="M423.9,321.7c-23.5,22.5-39.8,57.2-51.6,87.2c-3.4,8.6-5.4,16-6.5,21"/>
		<path fill="none" stroke-width="28" stroke-linecap="round" stroke-linejoin="round" stroke-miterlimit="10"    d="M535.9,348.8c-22.7,28.4-39.7,61.2-45.6,97.3"/>
	</g>
	<g>
		<path fill="none" stroke-width="28" stroke-linecap="round" stroke-linejoin="round" stroke-miterlimit="10"    d="M96.7,386.8c-4-3.1-7.7-6.4-11.2-10c-21.4-22.4-30.8-54.7-21.3-84.7c6.3-19.8,19.5-37.4,35-52.8
			c47.6-47.4,114.2-69.7,179.1-80.7c64.7-11,133.5-15.5,198.4-4.6c9.8,1.6,19.6,3.6,29.4,5.7c73.2,15.7,164,46.2,212.8,106.5
			c23.9,29.4,32.6,69.7,16.6,104.9c-5.9,13.1-14.2,23.8-24.1,32.6"/>
		<path fill="none" stroke-width="28" stroke-linecap="round" stroke-linejoin="round" stroke-miterlimit="10"    d="M313.7,162.6c-20.4,26-43.2,51.3-49.3,84.8"/>
		<path fill="none" stroke-width="28" stroke-linecap="round" stroke-linejoin="round" stroke-miterlimit="10"    d="M424,152.7c-21.5,20.6-36.5,52.4-47.3,79.9c-3.1,7.9-4.9,14.7-6,19.2"/>
		<path fill="none" stroke-width="28" stroke-linecap="round" stroke-linejoin="round" stroke-miterlimit="10"    d="M526.4,176.2c-20.8,26-36.4,56-41.7,89.1"/>
	</g>
</g>
</svg>
