<?xml version="1.0" encoding="utf-8"?>
<!-- Generator: Adobe Illustrator 19.1.0, SVG Export Plug-In . SVG Version: 6.00 Build 0)  -->
<!-- All rights reserved. Copyright: AnimatedSVG - ASVG © 2020 - https://animated-svg.com You may not reproduce, duplicate, copy or sell this intellectual property.  -->
<svg version="1.1" stroke="#000" id="Layer_1" xmlns="http://www.w3.org/2000/svg" xmlns:xlink="http://www.w3.org/1999/xlink" x="0px" y="0px" viewBox="0 0 800 800" style="enable-background:new 0 0 800 800" width="800px" height="800px" xml:space="preserve">
<g>
	<path fill="none" stroke-width="28" stroke-linecap="round" stroke-linejoin="round" stroke-miterlimit="10"    d="M426,247.4c1.9-0.9,4-2,6.1-3.1c100-53.3,233.9-10.2,276.4,97.3c14.4,36.5,13.6,66.6,12.8,98.2
		c-2,79.9-30.8,159-75.4,224.9c-35.1,51.7-89.7,116.6-159.3,107.1c-21.8-3-41.6-13.1-63-17.8c-22.2-4.9-40.7,3.3-61.7,9.9
		c-33.5,10.5-75.4,14.3-107.9-1.2c-37.9-18-66.5-56.4-90.9-89.4c-28.2-38.2-50.2-81.2-64.3-126.5c-17.9-57.2-29.7-131.3-10.8-189.6
		c14.8-45.7,46.6-85.6,88.1-109.9c44.7-26.2,90.3-27,139.6-16.8c21.5,4.4,42,12.4,62.8,19.2C399.1,256.4,408.6,256,426,247.4z"/>
	<path fill="none" stroke-width="28" stroke-linecap="round" stroke-linejoin="round" stroke-miterlimit="10"    d="M289.2,52.6c56.9,35.8,85.5,78.3,99.6,143.7c4.1,19.3,6.7,38.9,10,58.4"/>
	<path fill="none" stroke-width="28" stroke-linecap="round" stroke-linejoin="round" stroke-miterlimit="10"    d="M374.7,145.2c22.2-31.7,48.9-61.6,81.9-82.3c25.4-15.9,54.8-24.4,84.1-30c11.1-2.1,65.1-17.1,52.8,10.6
		C552.3,136,482.5,166.8,386,176"/>
	<path fill="none" stroke-width="28" stroke-linecap="round" stroke-linejoin="round" stroke-miterlimit="10"    d="M162.1,496.7c-10.5-34.4-15.5-72.3-6.6-105.1c9.7-35.2,33.9-67.2,67-88.1c8.2-5.1,16.4-9.3,24.8-12.6"/>
</g>
</svg>
