<?xml version="1.0" encoding="utf-8"?>
<!-- Generator: Adobe Illustrator 19.1.0, SVG Export Plug-In . SVG Version: 6.00 Build 0)  -->
<!-- All rights reserved. Copyright: AnimatedSVG - ASVG © 2020 - https://animated-svg.com You may not reproduce, duplicate, copy or sell this intellectual property.  -->
<svg version="1.1" stroke="#000" id="Layer_1" xmlns="http://www.w3.org/2000/svg" xmlns:xlink="http://www.w3.org/1999/xlink" x="0px" y="0px" viewBox="0 0 800 800" style="enable-background:new 0 0 800 800" width="800px" height="800px" xml:space="preserve">
<g>
	<g>
		<polyline fill="none" stroke-width="28" stroke-linecap="round" stroke-linejoin="round" stroke-miterlimit="10"    points="134.9,521 222.4,773 570,773 660.1,530.8 		"/>
		<line fill="none" stroke-width="28" stroke-linecap="round" stroke-linejoin="round" stroke-miterlimit="10"    x1="269.5" y1="607.1" x2="305.4" y2="773"/>
		<line fill="none" stroke-width="28" stroke-linecap="round" stroke-linejoin="round" stroke-miterlimit="10"    x1="395.1" y1="607.1" x2="395.1" y2="773"/>
		<line fill="none" stroke-width="28" stroke-linecap="round" stroke-linejoin="round" stroke-miterlimit="10"    x1="518.4" y1="607.1" x2="478.1" y2="773"/>
	</g>
	<g>
		<path fill="none" stroke-width="28" stroke-linecap="round" stroke-linejoin="round" stroke-miterlimit="10"    d="M71.9,446.5c-30.6-128.2,126.4-246.3,241-248.9c42.2-1,87.8-1.7,125,18.3c35.9,19.3,75.7-8.6,130.9-6.7
			c121.2,4.1,160.8,137.5,163.1,228.1c2.3,90.3-151.2,122.8-196.3,49.8c-4.9-8-10.3-18.5-19.7-18.1c-7.4,0.3-12.3,7.4-16.6,13.4
			c-20.6,28.7-55.1,46.8-90.4,47.4s-70.4-16.2-92-44.1c-6.1-7.9-15.6-17.7-24.1-12.5c-3.4,2.1-5.1,6.1-6.9,9.7
			c-21.1,42.8-78.9,54-125.3,42.9c-36.7-8.8-73.3-30.5-85.6-68.2C73.9,453.8,72.8,450.1,71.9,446.5z"/>
		<g>
			<path fill="none" stroke-width="28" stroke-linecap="round" stroke-linejoin="round" stroke-miterlimit="10"    d="M354.9,183.4c-14.1-25.7-15.1-57.8,0-85.3c19.2-35,58.7-52,95.9-44.1c9.3,2,12.3,15,20.6,19.2
				c10.8,5.4,22.2,2,30.5,12.2c7.3,9,12.7,19.5,15.8,30.6c6.6,22.4,3.9,46.9-7.4,67.3c-8.7,15.9-21.6,28.1-36.6,35.9"/>
			<path fill="none" stroke-width="28" stroke-linecap="round" stroke-linejoin="round" stroke-miterlimit="10"    d="M546.1,27.3c-39-2.9-67.5,19.3-75.2,43.8"/>
		</g>
	</g>
</g>
</svg>
