<?xml version="1.0" encoding="utf-8"?>
<!-- Generator: Adobe Illustrator 19.1.0, SVG Export Plug-In . SVG Version: 6.00 Build 0)  -->
<!-- All rights reserved. Copyright: AnimatedSVG - ASVG © 2020 - https://animated-svg.com You may not reproduce, duplicate, copy or sell this intellectual property.  -->
<svg version="1.1" stroke="#000" id="Layer_1" xmlns="http://www.w3.org/2000/svg" xmlns:xlink="http://www.w3.org/1999/xlink" x="0px" y="0px" viewBox="0 0 800 800" style="enable-background:new 0 0 800 800" width="800px" height="800px" xml:space="preserve">

<g>
	<path fill="none" stroke-width="28" stroke-linecap="round" stroke-linejoin="round" stroke-miterlimit="10"    d="M344.3,588.5c0,0,0,117.7,0,128.8c0,30.7,24.9,55.7,55.7,55.7s55.7-24.9,55.7-55.7c0-13.4,0-128.8,0-128.8"/>
	<g>
		<path fill="none" stroke-width="28" stroke-linecap="round" stroke-linejoin="round" stroke-miterlimit="10"    d="M590.8,473c-11.1,11.8-29.6,17.2-45.9,13.4c-36.5-8.4-33.5-36.4-28.8-63.4c5.3-29.9,4.8-65.4-19.4-88.5
			c-27.1-25.9-64.6-16.8-78.1,17c-10.3,25.8-4.7,54.7-24,77.2c-27.3,31.7-65.2,5.8-75-25.2c-6.6-20.7-5.6-52.9-22.6-69.4
			c-22.4-21.8-70-18.7-87.8,7.5"/>
		<path fill="none" stroke-width="28" stroke-linecap="round" stroke-linejoin="round" stroke-miterlimit="10"    d="M541.4,590L541.4,590c-12.1,6.7-17.1,26.9-32.7,27c-10.5,0.1-17-9.8-21.3-18.1c-2.6-5.1-5.4-10.4-11.9-10.4
			c-28.5,0-57,0-85.4,0c-13.8,0-27.5,0-41.3,0s-27.5,0-41.3,0s-27.6,0-41.5,0c-3,0-6,0-8.9,0c-3.2,0-20.2-0.3-33.9-14.1
			c-8.7-8.7-14.1-20.7-14.1-33.9V228.7v-10.9C209.2,112.4,294.6,27,400,27s190.8,85.4,190.8,190.8v322.8c-1.3,8.7-5.7,30-23.2,41.1
			C559.4,586.9,549.4,585.6,541.4,590z"/>
	</g>
</g>
</svg>
