<?xml version="1.0" encoding="utf-8"?>
<!-- Generator: Adobe Illustrator 19.1.0, SVG Export Plug-In . SVG Version: 6.00 Build 0)  -->
<!-- All rights reserved. Copyright: AnimatedSVG - ASVG © 2020 - https://animated-svg.com You may not reproduce, duplicate, copy or sell this intellectual property.  -->
<svg version="1.1" stroke="#000" id="Layer_1" xmlns="http://www.w3.org/2000/svg" xmlns:xlink="http://www.w3.org/1999/xlink" x="0px" y="0px" viewBox="0 0 800 800" style="enable-background:new 0 0 800 800" width="800px" height="800px" xml:space="preserve">
<g>
	<path fill="none" stroke-width="28" stroke-linecap="round" stroke-linejoin="round" stroke-miterlimit="10"    d="M90.6,224.3c-9.1,7.7-17.6,16.5-25.3,26.2c-42.9,54.8-50.4,129.5-19.4,191.8l1.6,3.3
		c6.7,13.6,18.6,23.9,32.9,28.7c4.7,1.6,9.7,2.5,14.6,2.8c20.4,1.4,39.9-8.2,51.2-25.2l26-38.6l34.5,94.2c0.9,2.8,2.1,5.4,3.4,8.1
		c16.1,32.2,55.3,45.2,87.5,29.1l1-0.5c32.2-16.2,45.2-55.3,29.1-87.5c-1.3-2.7-2.9-5.3-4.6-7.7l-54.7-83.9l46.5,2.2
		c9.8,0.5,19.6-1.6,28.4-6c28.3-14.2,39.8-48.6,25.6-76.9l-1.6-3.3c-11.9-23.7-28.8-44.4-49.6-60.8
		C249.6,166.6,154.5,170.2,90.6,224.3"/>
	<path fill="none" stroke-width="28" stroke-linecap="round" stroke-linejoin="round" stroke-miterlimit="10"    d="M726.1,321.2c-49.7-56.5-130.7-80-205.9-53c-26.1,9.4-49.9,24.5-69.6,44.1l-2.7,2.7
		c-23.5,23.5-23.5,61.6,0,85.1c7.3,7.3,16.4,12.6,26.3,15.4l47.1,13.2l-82.3,65.5c-2.5,1.9-4.9,4-7.1,6.2
		c-26.7,26.8-26.7,70.1,0,96.9l0.8,0.8c26.7,26.7,70.1,26.7,96.8,0c2.2-2.2,4.2-4.5,6-6.9l65.6-82.5l13.2,47.1
		c5.7,20.7,22,36.7,42.7,42c5.1,1.3,10.3,2,15.5,2c15.9,0,31.1-6.4,42.3-17.7l2.7-2.7c51.6-51.8,68.8-128.7,44.2-197.5
		C753.7,358.9,741.4,338.5,726.1,321.2"/>
	<path fill="none" stroke-width="28" stroke-linecap="round" stroke-linejoin="round" stroke-miterlimit="10"    d="M139.4,260.7c-7.1,5.7-13.7,12.2-19.6,19.4c-26.4,32.4-34.9,74.6-24.5,114.4"/>
	<path fill="none" stroke-width="28" stroke-linecap="round" stroke-linejoin="round" stroke-miterlimit="10"    d="M697.6,500.9c15.5-33.2,16.4-70.3,1.1-105c-8.3-18.5-20.6-35-35.8-48.9"/>
</g>
</svg>
