<?xml version="1.0" encoding="utf-8"?>
<!-- Generator: Adobe Illustrator 19.1.0, SVG Export Plug-In . SVG Version: 6.00 Build 0)  -->
<!-- All rights reserved. Copyright: AnimatedSVG - ASVG © 2020 - https://animated-svg.com You may not reproduce, duplicate, copy or sell this intellectual property.  -->
<svg version="1.1" stroke="#000" id="Layer_1" xmlns="http://www.w3.org/2000/svg" xmlns:xlink="http://www.w3.org/1999/xlink" x="0px" y="0px" viewBox="0 0 800 800" style="enable-background:new 0 0 800 800" width="800px" height="800px" xml:space="preserve">
<path fill="none" stroke-width="28" stroke-linecap="round" stroke-linejoin="round" stroke-miterlimit="10"    d="M470.5,629.5c-14.7,0-17.6-23.5-21.6-56.1c-5.4-43.7-12.1-98.2-49.2-100.8c-36.7-2.8-43.3,53.5-48.6,98.5
	c-4,33.9-6.9,58.4-21.6,58.4c-25.7,0-30.7-49.9-34-67.1c-10.2-52-14.8-115.8-41.2-162.7c-12.5-22.2-25.4-45.1-25.4-82.6
	c0-55.4,45.2-100.6,100.7-100.6c26.7,0,51.5,10.2,70.5,29c18.9-18.7,43.8-29,70.5-29c55.5,0,100.7,45.2,100.7,100.7
	c0,37.5-13,60.4-25.4,82.6c-21,37.2-28.2,88.6-35.4,130C500.3,587.7,493,629.5,470.5,629.5z"/>
<path fill="none" stroke-width="28" stroke-linecap="round" stroke-linejoin="round" stroke-miterlimit="10"    d="M400,773c163.9,0,298-137.9,298-308.1V124.4C533,133.8,470.4,96.5,400,27c-70.4,69.5-133,106.8-298,97.4v340.6
	C102,635.1,236.2,773,400,773z"/>
</svg>
