<?xml version="1.0" encoding="utf-8"?>
<!-- Generator: Adobe Illustrator 19.1.0, SVG Export Plug-In . SVG Version: 6.00 Build 0)  -->
<!-- License: CC0 1.0 Universal: http://creativecommons.org/publicdomain/zero/1.0/ Contributors: Dario Ferrando, Benjamin Sigidi https://github.com/linea-io/ | Download icons from: http://animated-svg.com  -->

<svg version="1.1" stroke="#000" id="Layer_1" xmlns="http://www.w3.org/2000/svg" xmlns:xlink="http://www.w3.org/1999/xlink" x="0px" y="0px" viewBox="0 0 800 800" style="enable-background:new 0 0 800 800" width="800px" height="800px" xml:space="preserve">
<g>
	<g>
		<polygon fill="none" stroke-width="28" stroke-linecap="round" stroke-linejoin="round" stroke-miterlimit="10"  points="366.6,154.2 178.7,198.2 178.7,77.1 366.6,33.1 		"/>
		<path fill="none" stroke-width="28" stroke-linecap="round" stroke-linejoin="round" stroke-miterlimit="10"  d="M102.9,407.1h75.8v75.8c0,41.9-34,75.9-75.8,75.9C61,558.9,27,524.7,27,482.9
			C27,441.2,61.1,407.1,102.9,407.1z"/>
		<line fill="none" stroke-width="28" stroke-linecap="round" stroke-linejoin="round" stroke-miterlimit="10"  x1="178.7" y1="153.5" x2="178.7" y2="407.1"/>
	</g>
	<g>
		<polygon fill="none" stroke-width="28" stroke-linecap="round" stroke-linejoin="round" stroke-miterlimit="10"  points="773,330.1 407.4,411.4 407.4,292.1 773,210.8 		"/>
		<path fill="none" stroke-width="28" stroke-linecap="round" stroke-linejoin="round" stroke-miterlimit="10"  d="M332.7,617.3h74.7V692c0,41.3-33.5,74.9-74.7,74.9c-41.3,0-74.9-33.6-74.9-74.9
			C257.8,650.8,291.4,617.3,332.7,617.3z"/>
		<line fill="none" stroke-width="28" stroke-linecap="round" stroke-linejoin="round" stroke-miterlimit="10"  x1="407.4" y1="367.3" x2="407.4" y2="617.3"/>
		<path fill="none" stroke-width="28" stroke-linecap="round" stroke-linejoin="round" stroke-miterlimit="10"  d="M698.3,507.3H773V582c0,41.3-33.5,74.9-74.7,74.9c-41.3,0-74.9-33.6-74.9-74.9
			C623.5,540.8,657.1,507.3,698.3,507.3z"/>
		<line fill="none" stroke-width="28" stroke-linecap="round" stroke-linejoin="round" stroke-miterlimit="10"  x1="773" y1="257.3" x2="773" y2="507.3"/>
	</g>
</g>
</svg>
