<?xml version="1.0" encoding="utf-8"?>
<!-- Generator: Adobe Illustrator 19.1.0, SVG Export Plug-In . SVG Version: 6.00 Build 0)  -->
<!-- License: CC0 1.0 Universal: http://creativecommons.org/publicdomain/zero/1.0/ Contributors: Dario Ferrando, Benjamin Sigidi https://github.com/linea-io/ | Download icons from: http://animated-svg.com  -->

<svg version="1.1" stroke="#000" id="Layer_1" xmlns="http://www.w3.org/2000/svg" xmlns:xlink="http://www.w3.org/1999/xlink" x="0px" y="0px" viewBox="0 0 800 800" style="enable-background:new 0 0 800 800" width="800px" height="800px" xml:space="preserve">
<g>
	<g>
		<g>
			<g>
				<path fill="none" stroke-width="28" stroke-linecap="round" stroke-linejoin="round" stroke-miterlimit="10"  d="M82.5,712.7c-31.9-73.7-48-166.5-48-270.9c0-228.7,126.5-349.6,366-349.6s366,120.9,366,349.6
					c0,104.4-16.4,197.2-48.4,270.9"/>
			</g>
		</g>
		<g>
			<g>
				<path fill="none" stroke-width="28" stroke-linecap="round" stroke-linejoin="round" stroke-miterlimit="10"  d="M83.9,716.1C51.9,634,34.5,533.3,34.5,416.9C34.5,161.8,161.1,27,400.5,27s366,134.8,366,389.8
					c0,116.4-17.4,217.1-49.3,299.3"/>
			</g>
		</g>
	</g>
	<g>
		<path fill="none" stroke-width="28" stroke-linecap="round" stroke-linejoin="round" stroke-miterlimit="10"  d="M660.5,439c-20.5,0-38,14.7-41.6,34.9l-44,249.5c-2,11.1,0.5,22.3,7,31.6c6.5,9.2,16.1,15.4,27.2,17.4
			c2.5,0.4,4.9,0.6,7.4,0.6l0,0c20.5,0,38-14.7,41.6-34.9l44-249.5c4-22.9-11.3-44.9-34.3-48.9C665.3,439.2,662.9,439,660.5,439z"/>
		<path fill="none" stroke-width="28" stroke-linecap="round" stroke-linejoin="round" stroke-miterlimit="10"  d="M655.2,754.4c0.4,0.1,3,0.4,6.8,0.4c18.8,0,51.7-8.1,61.2-62.3l23.6-134c12.2-69.4-37.1-80.4-42.8-81.4
			L655.2,754.4z"/>
	</g>
	<g>
		<path fill="none" stroke-width="28" stroke-linecap="round" stroke-linejoin="round" stroke-miterlimit="10"  d="M140.3,438.8c-2.4,0-4.9,0.2-7.4,0.6c-11.1,2-20.8,8.1-27.2,17.4c-6.5,9.2-9,20.5-7,31.5l44,249.5
			c4,22.6,25.8,38.3,48.9,34.3c11.1-2,20.8-8.1,27.2-17.4c6.5-9.2,9-20.5,7-31.5l-44-249.5C178.3,453.5,160.8,438.8,140.3,438.8z"/>
		<path fill="none" stroke-width="28" stroke-linecap="round" stroke-linejoin="round" stroke-miterlimit="10"  d="M96.9,477.2L96.9,477.2c-0.9,0.2-21,3.8-34,22.3C52.7,514,49.7,533.9,54,558.6l23.6,134
			c9.6,54.2,42.5,62.3,61.2,62.3c3.8,0,6.3-0.4,6.9-0.4L96.9,477.2z"/>
	</g>
</g>
</svg>
