<?xml version="1.0" encoding="utf-8"?>
<!-- Generator: Adobe Illustrator 19.1.0, SVG Export Plug-In . SVG Version: 6.00 Build 0)  -->
<!-- All rights reserved. Copyright: AnimatedSVG - ASVG © 2020 - https://animated-svg.com You may not reproduce, duplicate, copy or sell this intellectual property.  -->
<svg version="1.1" stroke="#000" id="Layer_1" xmlns="http://www.w3.org/2000/svg" xmlns:xlink="http://www.w3.org/1999/xlink" x="0px" y="0px" viewBox="0 0 800 800" style="enable-background:new 0 0 800 800" width="800px" height="800px" xml:space="preserve">

<path fill="none" stroke-width="28" stroke-linecap="round" stroke-linejoin="round" stroke-miterlimit="10" d="M760,190.6c-8.7-15.2-21.9-28.3-38.1-34.6c-7-2.7-13.9-4.1-20.7-4.3c-7.2-0.1-13,2.5-17.9,6.6
	c-15.6,13-23.5,41.1-46.1,45.5c-1.8,0.4-4,0.6-6.6,0.8c-1.6-0.4-3.4-1.1-5.2-2c-1.9-0.9-3.4-2.4-4.6-4.4L533.9,47.8L353.1,152.1
	c9.9,7.8,18,14.9,24.5,21.3c6.4,6.4,11.4,12.7,14.9,18.8c5.3,9.1,8.3,19.1,9.3,30.1c0.9,10.9-0.6,22.3-4.6,34.1
	c-3,11.2-8.5,22.1-16.5,32.8c-8,10.7-18.1,19.6-30.2,26.6c-12.2,7-24.6,11.2-37.4,12.5c-12.8,1.3-24.8,0.4-35.9-2.6
	c-12.2-2.4-22.8-6.8-31.8-13c-9-6.3-16.2-14-21.4-23.1c-3.5-6.1-6.5-13.5-8.8-22.3c-2.4-8.8-4.5-19.4-6.2-31.8L28,339.8l86.8,150.4
	c1.2,2,1.7,4.1,1.6,6.2c-0.1,2.1-0.4,4-0.8,5.6c-1.5,2.2-3,4.1-4.8,5.8c-1.8,1.7-3.6,3.1-5.6,4.3c-8.8,5.1-23.8,6.5-33.8,8.4
	c-9.7,1.8-20.6,0.6-29.3,6.2c-16.3,10.6-16.7,38-13.3,54.8c1.9,9.6,5.6,18.6,10.6,26.7c4.5,8.4,10.5,16.1,17.8,22.6
	c12.9,11.4,36.8,24.8,54.1,15.9c9.2-4.7,13.6-14.8,20-22.3c6.6-7.7,15.4-20,24.2-25.1c2-1.2,4.2-2.1,6.5-2.7c2.3-0.6,4.8-1,7.4-1.2
	c1.6,0.4,3.3,1.1,5.2,2c1.9,0.9,3.4,2.4,4.6,4.4l86.8,150.4l180.8-104.4c-9.9-7.8-18.1-14.9-24.5-21.3c-6.4-6.4-11.4-12.7-14.9-18.8
	c-5.3-9.1-8.4-19.1-9.3-30.1c-0.9-10.9,0.6-22.3,4.6-34.1c3-11.2,8.2-22,15.7-32.4c7.5-10.4,17.3-19.1,29.5-26.1
	c12.2-7,24.9-11.3,38.1-12.9c13.3-1.6,25.5-0.9,36.7,2.1c12.2,2.4,22.8,6.8,31.8,13c9,6.3,16.2,14,21.4,23.1
	c3.5,6.1,6.4,13.5,8.8,22.3c2.3,8.8,4.4,19.4,6.2,31.8l180.8-104.4l-86.8-150.4c-1.2-2-1.7-4.1-1.6-6.2c0.1-2.1,0.4-3.9,0.8-5.6
	c1.4-2.2,2.8-3.9,4-5.3c15.1-17.4,43.4-10.2,62.5-17.2c6.1-2.2,11.2-5.9,14.7-12.2c3.3-6,5.5-12.6,6.7-20
	c2.6-17.2-2.1-35.2-10.9-50.3L760,190.6z"/>
</svg>
