<?xml version="1.0" encoding="utf-8"?>
<!-- Generator: Adobe Illustrator 19.1.0, SVG Export Plug-In . SVG Version: 6.00 Build 0)  -->
<!-- All rights reserved. Copyright: AnimatedSVG - ASVG © 2020 - https://animated-svg.com You may not reproduce, duplicate, copy or sell this intellectual property.  -->
<svg version="1.1" stroke="#000" id="Layer_1" xmlns="http://www.w3.org/2000/svg" xmlns:xlink="http://www.w3.org/1999/xlink" x="0px" y="0px" viewBox="0 0 800 800" style="enable-background:new 0 0 800 800" width="800px" height="800px" xml:space="preserve">
<g>
	<path fill="none" stroke-width="28" stroke-linecap="round" stroke-linejoin="round" stroke-miterlimit="10"    d="M607,720c4.2,0,8.2,0.1,11.2-2.9s4.6-5.4,4.5-9.6l-7.4-418.4l82.7,50.3c7.9,2.5,16.3-1.6,19.3-9.3l54.7-118.9
		c2.8-7.1,0-15.5-6.5-19.4L600.9,86.3l-82.4-6.6c-17.7,0-23.6,5.3-25.8,11.6c-11.9,35.2-56.5,62.9-92.8,62.9s-80.8-27.8-92.7-62.9
		c-2.1-6.4-8-11.6-25.7-11.6l-82.4,6.6L34.6,191.7c-6.5,3.9-9.3,12.3-6.5,19.4l54.7,119c3,7.7,11.4,11.8,19.3,9.3l82.7-50.3
		l-7.4,418.5c-0.1,4.2,1.5,6.5,4.5,9.5s7,2.9,11.2,2.9H607z"/>
</g>
</svg>
