<?xml version="1.0" encoding="utf-8"?>
<!-- Generator: Adobe Illustrator 19.1.0, SVG Export Plug-In . SVG Version: 6.00 Build 0)  -->
<!-- All rights reserved. Copyright: AnimatedSVG - ASVG © 2020 - https://animated-svg.com You may not reproduce, duplicate, copy or sell this intellectual property.  -->
<svg version="1.1" stroke="#000" id="Layer_1" xmlns="http://www.w3.org/2000/svg" xmlns:xlink="http://www.w3.org/1999/xlink" x="0px" y="0px" viewBox="0 0 800 800" style="enable-background:new 0 0 800 800" width="800px" height="800px" xml:space="preserve">
<path fill="none" stroke-width="28" stroke-linecap="round" stroke-linejoin="round" stroke-miterlimit="10" d="M275,65.5c5.4,15.8,10.6,32.5,15.5,50.3c5.9,18.7,10.6,37.2,14.1,55.5c9,47.6,12.9,112.4-11.1,156.5
	c-5.9,10.9-12.1,21-18.5,30.3c-6.4,9.4-13.6,19-21.5,28.8c-7.9,10.9-15.8,21.7-23.7,32.5c-7.9,10.9-14.8,22.7-20.7,35.5
	c-5.9,12.8-10.9,26.9-14.8,42.2c-4,15.3-5.9,31.8-5.9,49.6c0,21.7,4.4,45.9,13.3,72.5c8.9,26.6,20.2,51.3,34,74
	c13.8,22.7,29.1,41.7,45.9,57c16.8,15.3,33.5,22.9,50.3,22.9h136.1c16.8,0,33.5-7.7,50.3-22.9c16.8-15.3,32-34.3,45.9-57
	c13.8-22.7,25.1-47.3,34-74c8.9-26.6,13.3-50.8,13.3-72.5c0-17.8-2-34.3-5.9-49.6c-4-15.3-8.9-29.3-14.8-42.2
	c-5.9-11.8-12.8-23.4-20.7-34.8c-7.9-11.3-15.8-21.9-23.7-31.8c-6.9-9.8-13.8-19.5-20.7-28.8c-6.9-9.4-13.3-19.5-19.2-30.3
	C481.9,284,486.4,221,495.4,172c3.4-18.7,8.1-37,14.1-54.7c4.9-17.8,10.1-34.8,15.5-51c5.4-16.3,10.1-29.3,14.1-39.2H260.9
	C264.9,36.9,269.6,49.7,275,65.5z"/>
</svg>
