<?xml version="1.0" encoding="utf-8"?>
<!-- Generator: Adobe Illustrator 19.1.0, SVG Export Plug-In . SVG Version: 6.00 Build 0)  -->
<!-- All rights reserved. Copyright: AnimatedSVG - ASVG © 2020 - https://animated-svg.com You may not reproduce, duplicate, copy or sell this intellectual property.  -->
<svg version="1.1" stroke="#000" id="Layer_1" xmlns="http://www.w3.org/2000/svg" xmlns:xlink="http://www.w3.org/1999/xlink" x="0px" y="0px"
	 width="800px" height="800px" viewBox="0 0 800 800" style="enable-background:new 0 0 800 800" xml:space="preserve">
<style type="text/css">
	.st0{fill:none;stroke-width:28;stroke-linecap:round;stroke-linejoin:round;stroke-miterlimit:10;}
</style>
<g>
	<path class="st0" d="M164.6,773l-6.1-22.7l-26.8-100.2l-2-7.4l3.8-6.5L317,318.1c-33.4-24.6-53.3-76.7-32.2-113.3L376.5,46
		c12.6-21.9,50.5-23.8,72.4-11.1l190.6,110c21.9,12.6,39.2,46.3,26.5,68.2l-91.7,158.8c-21.2,36.7-76.2,45.4-114.2,28.8l-92,159.2
		l-2.1,3.7l-3.6,2.4l-30.6,20.3l-41.5,71.9l-2.2,36.6l-0.6,10.1l-8.8,4.8L185,761.6L164.6,773z"/>
	<path class="st0" d="M530.5,260.2l-127.1-73.4c-13.2-7.6-17.6-24.5-10.1-37.6l9.1-15.8c7.6-13.2,24.5-17.6,37.6-10.1l127.1,73.4
		c13.2,7.6,17.6,24.5,10.1,37.6l-9.1,15.8C560.6,263.3,543.7,267.7,530.5,260.2z"/>
	<line class="st0" x1="161.2" y1="757.7" x2="389.8" y2="361.7"/>
</g>
</svg>
