<?xml version="1.0" encoding="utf-8"?>
<!-- Generator: Adobe Illustrator 19.1.0, SVG Export Plug-In . SVG Version: 6.00 Build 0)  -->
<svg version="1.1" stroke="#000" id="Layer_1" xmlns="http://www.w3.org/2000/svg" xmlns:xlink="http://www.w3.org/1999/xlink" x="0px" y="0px" widthviewBox="0 0 800 800" style="enable-background:new 0 0 800 800" width="800px" height="800px" xml:space="preserve">
<polygon fill="none" stroke-width="28" stroke-linecap="round" stroke-linejoin="round" stroke-miterlimit="10" points="112.8,397.1 602.4,179.1 740.1,488.4 250.5,706.4 27,620.6 "/>
<polyline fill="none" stroke-width="28" stroke-linecap="round" stroke-linejoin="round" stroke-miterlimit="10" points="145.6,311.6 635.3,93.6 773,402.9 "/>
<circle fill="none" stroke-width="28" stroke-linecap="round" stroke-linejoin="round" stroke-miterlimit="10" cx="145.6" cy="567.7" r="33.9"/>
<g>
	<path fill="none" stroke-width="28" stroke-linecap="round" stroke-linejoin="round" stroke-miterlimit="10" d="M241.6,453.6c-2.9,0.3-6.8,1.1-11.4,2.6c-3.2,1-8.9,3-15.1,7.6c-4.4,3.1-7.2,5.1-9.4,9
		c-2.3,4.1-2.7,8.1-2.9,10.6c-0.2,2.5-0.6,6.5,1.1,11.1c0.7,2.1,2.1,4,4.9,8.4c2,2.9,3,4.4,4.1,6c2.8,3.3,5.7,5.3,8.4,7.1
		c4.1,2.8,7.6,4.4,8.8,4.9c6.4,3.1,14.2,6,28.4,10.5c6,2,10.1,3,15.6,5.7c5,2.2,7.9,4.1,10.5,6.4c1.8,1.6,4.4,4.1,6.5,8.2
		c3,6.1,2.6,11.7,2.4,14.2c-0.4,5.5-2.2,9.3-2.8,10.2c-2.2,4.2-4.9,6.5-9.5,10.6c-4.1,3.4-7.3,5.6-8.1,6c-1.1,0.6-4.2,2.5-9.7,4.7
		c-4.1,1.6-9.7,3.6-16.7,5.2"/>
	<g>
		<polyline fill="none" stroke-width="28" stroke-linecap="round" stroke-linejoin="round" stroke-miterlimit="10" points="350.6,555.4 341.7,522.1 315.2,421.1 348.4,406.6 405.7,493.6 424.5,522 		"/>
		<line fill="none" stroke-width="28" stroke-linecap="round" stroke-linejoin="round" stroke-miterlimit="10" x1="405.7" y1="493.6" x2="341.7" y2="522.1"/>
	</g>
	<polyline fill="none" stroke-width="28" stroke-linecap="round" stroke-linejoin="round" stroke-miterlimit="10" points="414.8,378 488.8,493.3 519.9,479.5 483.9,347.4 	"/>
	<g>
		<polyline fill="none" stroke-width="28" stroke-linecap="round" stroke-linejoin="round" stroke-miterlimit="10" points="593.6,296.7 543.4,319.7 599.5,444.1 651.3,420.5 		"/>
		<line fill="none" stroke-width="28" stroke-linecap="round" stroke-linejoin="round" stroke-miterlimit="10" x1="616.9" y1="359.7" x2="570.5" y2="380"/>
	</g>
</g>
</svg>
