<?xml version="1.0" encoding="utf-8"?>
<!-- Generator: Adobe Illustrator 19.1.0, SVG Export Plug-In . SVG Version: 6.00 Build 0)  -->
<svg version="1.1" stroke="#000" id="Layer_1" xmlns="http://www.w3.org/2000/svg" xmlns:xlink="http://www.w3.org/1999/xlink" x="0px" y="0px" widthviewBox="0 0 800 800" style="enable-background:new 0 0 800 800" width="800px" height="800px" xml:space="preserve">
<g>
	<g>
		<path fill="none" stroke-width="28" stroke-linecap="round" stroke-linejoin="round" stroke-miterlimit="10" d="M303.9,211.7c14.9-2.9,35.8-5.5,49,3.8c12.2,8.6,13.7,23.1,10.6,36.5c-0.9,4-3.4,12.8-12.7,25.8
			c-7.1,9.9-10.3,11.3-30.8,32.6c-11.5,12-14.3,15.5-16.6,21.3c-0.8,2.1-0.9,26.7-0.9,26.7l60.4,0.3"/>
		<g>
			<polyline fill="none" stroke-width="28" stroke-linecap="round" stroke-linejoin="round" stroke-miterlimit="10" points="446.7,212.6 418.3,305.9 418.3,327.8 488.5,327.8 508.3,327.8 			"/>
			<line fill="none" stroke-width="28" stroke-linecap="round" stroke-linejoin="round" stroke-miterlimit="10" x1="480.2" y1="281.6" x2="480.2" y2="358.6"/>
		</g>
	</g>
	<g>
		<path fill="none" stroke-width="28" stroke-linecap="round" stroke-linejoin="round" stroke-miterlimit="10" d="M244.6,98.5c-51.7,45.1-84.3,111.4-84.3,185.3c0,135.7,110,245.8,245.8,245.8s245.8-110,245.8-245.8
			S541.8,38,406,38c-6,0-11.9,0.2-17.7,0.6"/>
		<g>
			<polyline fill="none" stroke-width="28" stroke-linecap="round" stroke-linejoin="round" stroke-miterlimit="10" points="149.1,120.5 252.4,84.2 252,84.2 252,193.7 			"/>
		</g>
		<line fill="none" stroke-width="28" stroke-linecap="round" stroke-linejoin="round" stroke-miterlimit="10" x1="406" y1="472" x2="406" y2="529"/>
		<line fill="none" stroke-width="28" stroke-linecap="round" stroke-linejoin="round" stroke-miterlimit="10" x1="406" y1="39" x2="406" y2="94.5"/>
		<line fill="none" stroke-width="28" stroke-linecap="round" stroke-linejoin="round" stroke-miterlimit="10" x1="650.8" y1="283.3" x2="594.8" y2="283.3"/>
		<line fill="none" stroke-width="28" stroke-linecap="round" stroke-linejoin="round" stroke-miterlimit="10" x1="217.2" y1="283.3" x2="161.2" y2="282.5"/>
		<line fill="none" stroke-width="28" stroke-linecap="round" stroke-linejoin="round" stroke-miterlimit="10" x1="557.5" y1="434.7" x2="576.3" y2="453.6"/>
		<line fill="none" stroke-width="28" stroke-linecap="round" stroke-linejoin="round" stroke-miterlimit="10" x1="576.4" y1="113" x2="557.6" y2="131.8"/>
		<line fill="none" stroke-width="28" stroke-linecap="round" stroke-linejoin="round" stroke-miterlimit="10" x1="254.4" y1="434.8" x2="235.6" y2="453.7"/>
	</g>
</g>
<g>
	<path fill="none" stroke-width="28" stroke-linecap="round" stroke-linejoin="round" stroke-miterlimit="10" d="M74.8,636.6c-7.2-2.2-13.2-2.4-17-2.2c-13.2,0.6-23.9,7.2-25.4,20.9c-0.6,5.7,0.5,10.1,1.4,13.4
		c2.3,8.6,6.4,14.4,8.9,17.9c2.7,3.7,5.2,6.3,10.3,11.5c6.6,6.7,8.8,7.9,14.8,14.5c5,5.4,6.6,7.9,7.8,10.3c1.3,2.5,3.1,6.2,3.4,11.5
		c0.2,5.3-1.3,9.4-2,10.9c-0.7,1.5-2.7,5.9-7.3,9.5c-4.7,3.8-9.5,4.7-14.2,5.6c-5.6,1.1-10,0.8-15.1,0.6c-5.6-0.3-10.2-1-13.4-1.7"
		/>
	<g>
		<line fill="none" stroke-width="28" stroke-linecap="round" stroke-linejoin="round" stroke-miterlimit="10" x1="127.8" y1="696.6" x2="189.8" y2="696.6"/>
		<line fill="none" stroke-width="28" stroke-linecap="round" stroke-linejoin="round" stroke-miterlimit="10" x1="127.6" y1="759.2" x2="127.8" y2="636.6"/>
		<line fill="none" stroke-width="28" stroke-linecap="round" stroke-linejoin="round" stroke-miterlimit="10" x1="189.7" y1="759.2" x2="190" y2="636.6"/>
	</g>
	<line fill="none" stroke-width="28" stroke-linecap="round" stroke-linejoin="round" stroke-miterlimit="10" x1="247.4" y1="759.2" x2="247.6" y2="636.6"/>
	<path fill="none" stroke-width="28" stroke-linecap="round" stroke-linejoin="round" stroke-miterlimit="10" d="M306.3,712.8c0,0,28.1,0,28.2,0c5.2,0,10-0.6,14.6-3.1c3.1-1.7,6.3-4.6,8.4-7.4c1.8-2.5,3.1-5.5,3.9-8.4
		c3-10.7,3.1-22.1,2-32.7c-0.3-2.6-0.8-5.5-2.2-9.1c-1.1-2.8-2.4-6-5.6-8.9c-2.2-2-4.4-3-6.4-3.9c-3.1-1.4-5.8-2.2-8-2.4
		c-6.7-0.6-15.7-0.4-15.7-0.4h-20.5l-0.3,122.6"/>
	<path fill="none" stroke-width="28" stroke-linecap="round" stroke-linejoin="round" stroke-miterlimit="10" d="M418.6,712.8c0,0,28.1,0,28.2,0c5.2,0,10-0.6,14.6-3.1c3.1-1.7,6.3-4.6,8.4-7.4c1.8-2.5,3.1-5.5,3.9-8.4
		c3-10.7,3.1-22.1,2-32.7c-0.3-2.6-0.8-5.5-2.2-9.1c-1.1-2.8-2.4-6-5.6-8.9c-2.2-2-4.4-3-6.4-3.9c-3.1-1.4-5.8-2.2-8-2.4
		c-6.7-0.6-15.7-0.4-15.7-0.4h-20.5l-0.3,122.6"/>
	<line fill="none" stroke-width="28" stroke-linecap="round" stroke-linejoin="round" stroke-miterlimit="10" x1="528.7" y1="759.2" x2="529" y2="636.6"/>
	<polyline fill="none" stroke-width="28" stroke-linecap="round" stroke-linejoin="round" stroke-miterlimit="10" points="585,759.2 585.1,636.6 591.8,636.6 646.1,759.2 652.1,759.2 652.4,636.6 	"/>
	<path fill="none" stroke-width="28" stroke-linecap="round" stroke-linejoin="round" stroke-miterlimit="10" d="M767.1,637.3c-2.8-0.5-6.9-1.2-11.9-1.7c-7.5-0.7-11.3-1.1-16.5-0.2c-7,1.2-11.8,3.9-13.1,4.7
		c-2.2,1.3-6.6,3.9-10.3,9.1c-3,4.1-4.1,7.8-5.7,13.1c-0.9,2.8-1.8,6.7-2.7,13c-0.3,2.5-1.2,9.2-1.3,21.2c-0.1,15.1,1,24.6,1.5,27.9
		c0.4,3.1,1.2,8.3,3.4,14.3c0.9,2.6,2.1,5.5,4,8.6c0.9,1.6,2,3.3,3.8,5.3c2.6,2.8,5,4.4,5.5,4.7c3,1.9,5.6,2.6,8.2,3.4
		c3.6,1,6.4,1.3,8.5,1.5c4.3,0.4,7.6,0.2,9.6,0.1c4.4-0.3,7.5-0.9,8.4-1.1c3.2-0.7,5.1-1.4,5.8-1.7c2.8-1.1,4.3-2.2,4.7-2.5
		c1.3-0.9,2.4-1.7,3.1-3.1c1.3-2.2,0.8-5.4,0.8-5.4l-0.2-50.4h-17.4"/>
</g>
</svg>
