<?xml version="1.0" encoding="utf-8"?>
<!-- Generator: Adobe Illustrator 19.1.0, SVG Export Plug-In . SVG Version: 6.00 Build 0)  -->
<!-- All rights reserved. Copyright: AnimatedSVG - ASVG © 2020 - https://animated-svg.com You may not reproduce, duplicate, copy or sell this intellectual property.  -->
<svg version="1.1" stroke="#000" id="Layer_1" xmlns="http://www.w3.org/2000/svg" xmlns:xlink="http://www.w3.org/1999/xlink" x="0px" y="0px" viewBox="0 0 800 800" style="enable-background:new 0 0 800 800" width="800px" height="800px" xml:space="preserve">
<g>
	<path fill="none" stroke-width="28" stroke-linecap="round" stroke-linejoin="round" stroke-miterlimit="10"    d="M742.6,328.8H57.4c-16.7,0-30.4-13.7-30.4-30.4V108.6c0-16.7,13.7-30.4,30.4-30.4h685.3
		c16.7,0,30.4,13.7,30.4,30.4l-87.7,84.8c-5.7,5.5-5.7,14.6,0,20.1l87.7,84.8C773,315.1,759.3,328.8,742.6,328.8z"/>
	<line fill="none" stroke-width="28" stroke-linecap="round" stroke-linejoin="round" stroke-miterlimit="10"    x1="49.7" y1="327.8" x2="288.5" y2="471.2"/>
	<line fill="none" stroke-width="28" stroke-linecap="round" stroke-linejoin="round" stroke-miterlimit="10"    x1="510.1" y1="328.8" x2="748.2" y2="471.7"/>
	<path fill="none" stroke-width="28" stroke-linecap="round" stroke-linejoin="round" stroke-miterlimit="10"    d="M57.4,471.2h685.3c16.7,0,30.4,13.7,30.4,30.4v189.8c0,16.7-13.7,30.4-30.4,30.4H57.4
		c-16.7,0-30.4-13.7-30.4-30.4l87.7-84.8c5.7-5.5,5.7-14.6,0-20.1L27,501.6C27,484.9,40.7,471.2,57.4,471.2z"/>
</g>
<g>
	<line fill="none" stroke-width="28" stroke-linecap="round" stroke-linejoin="round" stroke-miterlimit="10"    x1="106.7" y1="199.5" x2="105.7" y2="198.5"/>
	<g>
		<line fill="none" stroke-width="28" stroke-linecap="round" stroke-linejoin="round" stroke-miterlimit="10"    x1="210.6" y1="199" x2="160.1" y2="198.9"/>
		<polyline fill="none" stroke-width="28" stroke-linecap="round" stroke-linejoin="round" stroke-miterlimit="10"    points="160.2,264.6 160.1,133 210.6,133.1 		"/>
	</g>
	<g>
		<path fill="none" stroke-width="28" stroke-linecap="round" stroke-linejoin="round" stroke-miterlimit="10"    d="M275.1,215c0,0,30.2,0,30.3,0c5.6,0,10.7-0.6,15.7-3.3c3.3-1.8,6.8-4.9,9-7.9c1.9-2.7,3.3-5.9,4.2-9
			c3.2-11.5,3.3-23.7,2.1-35.1c-0.3-2.8-0.9-5.9-2.4-9.8c-1.2-3-2.6-6.4-6-9.6c-2.4-2.1-4.7-3.2-6.9-4.2c-3.3-1.5-6.2-2.4-8.6-2.6
			c-7.2-0.6-16.9-0.4-16.9-0.4h-22l-0.3,131.7"/>
		<line fill="none" stroke-width="28" stroke-linecap="round" stroke-linejoin="round" stroke-miterlimit="10"    x1="318.6" y1="218.3" x2="337.1" y2="264.5"/>
	</g>
	<g>
		<polyline fill="none" stroke-width="28" stroke-linecap="round" stroke-linejoin="round" stroke-miterlimit="10"    points="458.2,264.7 407.7,264.5 407.9,264.6 407.7,132.9 458.2,133.1 		"/>
		<line fill="none" stroke-width="28" stroke-linecap="round" stroke-linejoin="round" stroke-miterlimit="10"    x1="458.2" y1="200.1" x2="407.7" y2="199.9"/>
	</g>
	<g>
		<polyline fill="none" stroke-width="28" stroke-linecap="round" stroke-linejoin="round" stroke-miterlimit="10"    points="577.3,264.6 526.8,264.5 526.9,264.5 526.8,133 577.3,133.1 		"/>
		<line fill="none" stroke-width="28" stroke-linecap="round" stroke-linejoin="round" stroke-miterlimit="10"    x1="577.3" y1="199.1" x2="526.8" y2="198.9"/>
	</g>
	<line fill="none" stroke-width="28" stroke-linecap="round" stroke-linejoin="round" stroke-miterlimit="10"    x1="626.4" y1="199.5" x2="625.4" y2="198.5"/>
</g>
<g>
	<path fill="none" stroke-width="28" stroke-linecap="round" stroke-linejoin="round" stroke-miterlimit="10"    d="M186.1,547.1c-5.8-1.8-10.6-1.9-13.6-1.8c-10.6,0.5-19.1,5.8-20.3,16.7c-0.5,4.6,0.4,8.1,1.1,10.7
		c1.8,6.9,5.1,11.5,7.1,14.3c2.2,3,4.2,5,8.2,9.2c5.3,5.4,7,6.3,11.8,11.6c4,4.3,5.3,6.3,6.2,8.2c1,2,2.5,5,2.7,9.2s-1,7.5-1.6,8.7
		s-2.2,4.7-5.8,7.6c-3.8,3-7.6,3.8-11.4,4.5c-4.5,0.9-8,0.6-12.1,0.5c-4.5-0.2-8.2-0.8-10.7-1.4"/>
	<g>
		<line fill="none" stroke-width="28" stroke-linecap="round" stroke-linejoin="round" stroke-miterlimit="10"    x1="226.4" y1="595" x2="276" y2="595"/>
		<line fill="none" stroke-width="28" stroke-linecap="round" stroke-linejoin="round" stroke-miterlimit="10"    x1="226.3" y1="645.1" x2="226.4" y2="547.1"/>
		<line fill="none" stroke-width="28" stroke-linecap="round" stroke-linejoin="round" stroke-miterlimit="10"    x1="275.9" y1="645.1" x2="276.1" y2="547.1"/>
	</g>
	<line fill="none" stroke-width="28" stroke-linecap="round" stroke-linejoin="round" stroke-miterlimit="10"    x1="320" y1="645.1" x2="320.2" y2="547.1"/>
	<path fill="none" stroke-width="28" stroke-linecap="round" stroke-linejoin="round" stroke-miterlimit="10"    d="M365.1,608h22.5c4.2,0,8-0.5,11.7-2.5c2.5-1.4,5-3.7,6.7-5.9c1.4-2,2.5-4.4,3.1-6.7c2.4-8.6,2.5-17.7,1.6-26.1
		c-0.2-2.1-0.6-4.4-1.8-7.3c-0.9-2.2-1.9-4.8-4.5-7.1c-1.8-1.6-3.5-2.4-5.1-3.1c-2.5-1.1-4.6-1.8-6.4-1.9
		c-5.4-0.5-12.5-0.3-12.5-0.3H364l-0.2,98"/>
	<path fill="none" stroke-width="28" stroke-linecap="round" stroke-linejoin="round" stroke-miterlimit="10"    d="M452.9,608h22.5c4.2,0,8-0.5,11.7-2.5c2.5-1.4,5-3.7,6.7-5.9c1.4-2,2.5-4.4,3.1-6.7c2.4-8.6,2.5-17.7,1.6-26.1
		c-0.2-2.1-0.6-4.4-1.8-7.3c-0.9-2.2-1.9-4.8-4.5-7.1c-1.8-1.6-3.5-2.4-5.1-3.1c-2.5-1.1-4.6-1.8-6.4-1.9
		c-5.4-0.5-12.5-0.3-12.5-0.3h-16.4l-0.2,98"/>
	<line fill="none" stroke-width="28" stroke-linecap="round" stroke-linejoin="round" stroke-miterlimit="10"    x1="538.9" y1="645.1" x2="539.1" y2="547.1"/>
	<polyline fill="none" stroke-width="28" stroke-linecap="round" stroke-linejoin="round" stroke-miterlimit="10"    points="579.9,645.1 580,547.1 585.3,547.1 628.7,645.1 633.5,645.1 633.8,547.1 	"/>
	<path fill="none" stroke-width="28" stroke-linecap="round" stroke-linejoin="round" stroke-miterlimit="10"    d="M723.4,547.6c-2.2-0.4-5.5-1-9.5-1.4c-6-0.6-9-0.9-13.2-0.2c-5.6,1-9.4,3.1-10.5,3.8c-1.8,1-5.3,3.1-8.2,7.3
		c-2.4,3.3-3.3,6.2-4.6,10.5c-0.7,2.2-1.4,5.4-2.2,10.4c-0.2,2-1,7.4-1,16.9c-0.1,12.1,0.8,19.7,1.2,22.3c0.3,2.5,1,6.6,2.7,11.4
		c0.7,2.1,1.7,4.4,3.2,6.9c0.7,1.3,1.6,2.6,3,4.2c2.1,2.2,4,3.5,4.4,3.8c2.4,1.5,4.5,2.1,6.6,2.7c2.9,0.8,5.1,1,6.8,1.2
		c3.4,0.3,6.1,0.2,7.7,0.1c3.5-0.2,6-0.7,6.7-0.9c2.6-0.6,4.1-1.1,4.6-1.4c2.2-0.9,3.4-1.8,3.8-2c1-0.7,1.9-1.4,2.5-2.5
		c1-1.8,0.6-4.3,0.6-4.3l-0.2-40.3H714"/>
</g>
</svg>
