<?xml version="1.0" encoding="utf-8"?>
<!-- Generator: Adobe Illustrator 19.1.0, SVG Export Plug-In . SVG Version: 6.00 Build 0)  -->
<svg version="1.1" stroke="#000" xmlns="http://www.w3.org/2000/svg" xmlns:xlink="http://www.w3.org/1999/xlink" x="0px" y="0px" widthviewBox="0 0 800 800" style="enable-background:new 0 0 800 800" width="800px" height="800px" xml:space="preserve">

<g id="Layer_4">
	<path fill="none" stroke-width="28" stroke-linecap="round" stroke-linejoin="round" stroke-miterlimit="10" d="M663.7,136.3c145.7,145.7,145.7,381.8,0,527.5c-145.7,145.7-381.8,145.7-527.5,0
		c-145.7-145.7-145.7-381.8,0-527.5C281.9-9.4,518.1-9.4,663.7,136.3z"/>
	<g>
		<path fill="none" stroke-width="28" stroke-linecap="round" stroke-linejoin="round" stroke-miterlimit="10" d="M508.1,291.7c0,0,0-72.2-108.3-72.2s-96.3,84.2-96.3,84.2s0,84.2,96.3,84.2c108.3,0,120.5,72.2,120.5,84.2
			c0,24.1,11.9,96.3-120.5,96.3c-108.3,0-108.1-48.1-108.1-60.2"/>
		<line fill="none" stroke-width="28" stroke-linecap="round" stroke-linejoin="round" stroke-miterlimit="10" x1="375.9" y1="171.5" x2="374.7" y2="612.5"/>
		<line fill="none" stroke-width="28" stroke-linecap="round" stroke-linejoin="round" stroke-miterlimit="10" x1="423.4" y1="171.5" x2="422.2" y2="612.5"/>
	</g>
	<g>
		<circle fill="none" stroke-width="28" stroke-linecap="round" stroke-linejoin="round" stroke-miterlimit="10" cx="399.1" cy="81.3" r="8"/>
		<circle fill="none" stroke-width="28" stroke-linecap="round" stroke-linejoin="round" stroke-miterlimit="10" cx="316.8" cy="92.3" r="8"/>
		<circle fill="none" stroke-width="28" stroke-linecap="round" stroke-linejoin="round" stroke-miterlimit="10" cx="240.1" cy="124.2" r="8"/>
		<circle fill="none" stroke-width="28" stroke-linecap="round" stroke-linejoin="round" stroke-miterlimit="10" cx="174.6" cy="174.6" r="8"/>
		<circle fill="none" stroke-width="28" stroke-linecap="round" stroke-linejoin="round" stroke-miterlimit="10" cx="123.7" cy="241" r="8"/>
		<circle fill="none" stroke-width="28" stroke-linecap="round" stroke-linejoin="round" stroke-miterlimit="10" cx="92" cy="317.8" r="8"/>
		<circle fill="none" stroke-width="28" stroke-linecap="round" stroke-linejoin="round" stroke-miterlimit="10" cx="81.2" cy="400.7" r="8"/>
		<circle fill="none" stroke-width="28" stroke-linecap="round" stroke-linejoin="round" stroke-miterlimit="10" cx="92.2" cy="483" r="8"/>
		<circle fill="none" stroke-width="28" stroke-linecap="round" stroke-linejoin="round" stroke-miterlimit="10" cx="124.2" cy="559.7" r="8"/>
		<circle fill="none" stroke-width="28" stroke-linecap="round" stroke-linejoin="round" stroke-miterlimit="10" cx="174.6" cy="625.2" r="8"/>
		<circle fill="none" stroke-width="28" stroke-linecap="round" stroke-linejoin="round" stroke-miterlimit="10" cx="241" cy="676.1" r="8"/>
		<circle fill="none" stroke-width="28" stroke-linecap="round" stroke-linejoin="round" stroke-miterlimit="10" cx="317.8" cy="707.8" r="8"/>
		<circle fill="none" stroke-width="28" stroke-linecap="round" stroke-linejoin="round" stroke-miterlimit="10" cx="398.5" cy="719.6" r="8"/>
		<circle fill="none" stroke-width="28" stroke-linecap="round" stroke-linejoin="round" stroke-miterlimit="10" cx="480.9" cy="708.6" r="8"/>
		<circle fill="none" stroke-width="28" stroke-linecap="round" stroke-linejoin="round" stroke-miterlimit="10" cx="557.6" cy="676.6" r="8"/>
		<circle fill="none" stroke-width="28" stroke-linecap="round" stroke-linejoin="round" stroke-miterlimit="10" cx="623" cy="626.2" r="8"/>
		<circle fill="none" stroke-width="28" stroke-linecap="round" stroke-linejoin="round" stroke-miterlimit="10" cx="674" cy="559.8" r="8"/>
		<circle fill="none" stroke-width="28" stroke-linecap="round" stroke-linejoin="round" stroke-miterlimit="10" cx="705.7" cy="483" r="8"/>
		<circle fill="none" stroke-width="28" stroke-linecap="round" stroke-linejoin="round" stroke-miterlimit="10" cx="718.7" cy="400.5" r="8"/>
		<circle fill="none" stroke-width="28" stroke-linecap="round" stroke-linejoin="round" stroke-miterlimit="10" cx="707.7" cy="318.2" r="8"/>
		<circle fill="none" stroke-width="28" stroke-linecap="round" stroke-linejoin="round" stroke-miterlimit="10" cx="675.7" cy="241.5" r="8"/>
		<circle fill="none" stroke-width="28" stroke-linecap="round" stroke-linejoin="round" stroke-miterlimit="10" cx="625.3" cy="176" r="8"/>
		<circle fill="none" stroke-width="28" stroke-linecap="round" stroke-linejoin="round" stroke-miterlimit="10" cx="558.9" cy="125" r="8"/>
		<circle fill="none" stroke-width="28" stroke-linecap="round" stroke-linejoin="round" stroke-miterlimit="10" cx="482.1" cy="93.4" r="8"/>
	</g>
</g>
<g id="Layer_2">
</g>
</svg>
