<?xml version="1.0" encoding="utf-8"?>
<!-- Generator: Adobe Illustrator 19.1.0, SVG Export Plug-In . SVG Version: 6.00 Build 0)  -->
<!-- All rights reserved. Copyright: AnimatedSVG - ASVG © 2020 - https://animated-svg.com You may not reproduce, duplicate, copy or sell this intellectual property.  -->
<svg version="1.1" stroke="#000" id="Layer_1" xmlns="http://www.w3.org/2000/svg" xmlns:xlink="http://www.w3.org/1999/xlink" x="0px" y="0px" viewBox="0 0 800 800" style="enable-background:new 0 0 800 800" width="800px" height="800px" xml:space="preserve">
<g>
	<g>
		<polygon fill="none" stroke-width="28" stroke-linecap="round" stroke-linejoin="round" stroke-miterlimit="10"    points="351,773 89.5,412.5 179.3,135.5 453.3,110.3 730.9,478.1 		"/>
		<circle fill="none" stroke-width="28" stroke-linecap="round" stroke-linejoin="round" stroke-miterlimit="10"    cx="246.7" cy="248.5" r="43.3"/>
	</g>
	<path fill="none" stroke-width="28" stroke-linecap="round" stroke-linejoin="round" stroke-miterlimit="10"    d="M144.5,227.8c-23.2-10.8-39.5-33.2-52-54.7C79,149.8,67,124.8,69.4,97.1c0.9-10.7,3.1-35.2,23.3-53.2
		c3.1-2.8,19.3-17.2,41.2-16.9c19.1,0.3,31.4,11.7,41.7,21.3c17.8,16.5,25.1,34.6,37.2,65.2c8.5,21.6,13.3,38.8,15,44.9
		c5.8,21.5,12.1,51.2,14.6,88"/>
</g>
<g>
	<g>
		<path fill="none" stroke-width="28" stroke-linecap="round" stroke-linejoin="round" stroke-miterlimit="10"    d="M191.8,397.3c-2.3,0.9-5.5,2.3-9,4.5c-2.4,1.5-6.8,4.3-11.1,9.3c-3,3.5-4.9,5.6-6,9.2
			c-1.1,3.9-0.7,7.3-0.4,9.3c0.3,2.1,0.8,5.5,3,9c1,1.5,2.6,3,5.7,6c2.2,2.1,3.3,3.2,4.7,4.1c3,2.2,5.8,3.3,8.4,4.2
			c4,1.5,7.2,2.2,8.3,2.4c6,1.2,13,2.2,25.7,3.1c5.4,0.4,9,0.6,14.2,1.6c4.6,0.9,7.4,1.9,10,3.3c1.8,1,4.5,2.5,7,5.5
			c3.7,4.5,4.5,9.2,4.8,11.3c0.7,4.6-0.1,8.2-0.3,9.1c-0.9,3.9-2.8,6.4-5.9,10.7c-2.7,3.7-5,6.1-5.6,6.6c-0.8,0.8-2.9,2.8-7.1,5.8
			c-3.1,2.2-7.4,4.9-12.9,7.6"/>
		<g>
			<polyline fill="none" stroke-width="28" stroke-linecap="round" stroke-linejoin="round" stroke-miterlimit="10"    points="302.7,460.7 288.8,434.7 246.7,355.7 271.6,337 336.6,398.3 357.8,418.3 			"/>
			<line fill="none" stroke-width="28" stroke-linecap="round" stroke-linejoin="round" stroke-miterlimit="10"    x1="336.6" y1="398.3" x2="288.8" y2="434.7"/>
		</g>
		<polyline fill="none" stroke-width="28" stroke-linecap="round" stroke-linejoin="round" stroke-miterlimit="10"    points="321.3,300 405.8,381.6 429.1,364 372.8,260.8 		"/>
		<g>
			<polyline fill="none" stroke-width="28" stroke-linecap="round" stroke-linejoin="round" stroke-miterlimit="10"    points="454.4,197 417.1,226 488.5,318.8 526.9,288.8 			"/>
			<line fill="none" stroke-width="28" stroke-linecap="round" stroke-linejoin="round" stroke-miterlimit="10"    x1="486.3" y1="244.9" x2="451.6" y2="270.9"/>
		</g>
	</g>
</g>
<g>
	<path fill="none" stroke-width="28" stroke-linecap="round" stroke-linejoin="round" stroke-miterlimit="10"    d="M364.4,697.8c0.1-0.3,0.3-0.5,0.5-0.7c0.1-0.1,0.2-0.1,0.3-0.2c8.6-4.8,15.6-9.4,21.2-14.1
		c22.5-18.6,24.6-38,6.5-60c-16.4-19.9-39.6-20.4-62.3-1.7c-0.7,0.6-1.8,0.5-2.4-0.2s-0.5-1.8,0.2-2.4c19.1-15.8,22.4-38.3,8.1-55.6
		c-15.7-19.1-32.4-19.4-54.7-1.1c-4.8,4-10,9-15.8,15.2c-0.1,0.1-0.1,0.1-0.2,0.2"/>
	<path fill="none" stroke-width="28" stroke-linecap="round" stroke-linejoin="round" stroke-miterlimit="10"    d="M401,564.7c-34-44.5-38.6-65.7-17.2-82c22.4-17.1,41.4-7.1,75.5,37.5c35.5,46.6,40.5,67.5,17.9,84.8
		C455.4,621.5,436.5,611.3,401,564.7z"/>
	<path fill="none" stroke-width="28" stroke-linecap="round" stroke-linejoin="round" stroke-miterlimit="10"    d="M465.3,464.4c-19.7-25.8-21.9-37.7-8.2-48.1c13.7-10.5,24.6-5.2,44.3,20.6c18.5,24.2,25.5,38.5,9.9,50.4
		C495.7,499.1,483.8,488.7,465.3,464.4z"/>
	<path fill="none" stroke-width="28" stroke-linecap="round" stroke-linejoin="round" stroke-miterlimit="10"    d="M579.1,540.1L522.2,351"/>
	<path fill="none" stroke-width="28" stroke-linecap="round" stroke-linejoin="round" stroke-miterlimit="10"    d="M601.5,461.7c-19.7-25.8-21.9-37.7-8.2-48.1c13.7-10.5,24.6-5.2,44.3,20.6c18.5,24.2,25.5,38.5,9.9,50.4
		C631.9,496.4,620.1,486,601.5,461.7z"/>
</g>
</svg>
