<?xml version="1.0" encoding="utf-8"?>
<!-- Generator: Adobe Illustrator 19.1.0, SVG Export Plug-In . SVG Version: 6.00 Build 0)  -->
<svg version="1.1" stroke="#000" id="Layer_1" xmlns="http://www.w3.org/2000/svg" xmlns:xlink="http://www.w3.org/1999/xlink" x="0px" y="0px" widthviewBox="0 0 800 800" style="enable-background:new 0 0 800 800" width="800px" height="800px" xml:space="preserve">
<g>
	<g>
	<g>
		<line fill="none" stroke-width="28" stroke-linecap="round" stroke-linejoin="round" stroke-miterlimit="10" x1="176.5" y1="743.9" x2="636.8" y2="743.9"/>
		<line fill="none" stroke-width="28" stroke-linecap="round" stroke-linejoin="round" stroke-miterlimit="10" x1="773" y1="397.1" x2="27" y2="397.1"/>
		<line fill="none" stroke-width="28" stroke-linecap="round" stroke-linejoin="round" stroke-miterlimit="10" x1="97.4" y1="397.1" x2="176.5" y2="743.9"/>
		<line fill="none" stroke-width="28" stroke-linecap="round" stroke-linejoin="round" stroke-miterlimit="10" x1="636.8" y1="743.9" x2="706.7" y2="397.1"/>
	</g>
	<line fill="none" stroke-width="28" stroke-linecap="round" stroke-linejoin="round" stroke-miterlimit="10" x1="632.7" y1="397.8" x2="582.1" y2="624.7"/>
	<g>
		<line fill="none" stroke-width="28" stroke-linecap="round" stroke-linejoin="round" stroke-miterlimit="10" x1="658.9" y1="634.7" x2="151.6" y2="634.7"/>
		<line fill="none" stroke-width="28" stroke-linecap="round" stroke-linejoin="round" stroke-miterlimit="10" x1="173.4" y1="397.1" x2="222.4" y2="624.7"/>
		<line fill="none" stroke-width="28" stroke-linecap="round" stroke-linejoin="round" stroke-miterlimit="10" x1="263" y1="397.1" x2="299.3" y2="624.7"/>
		<line fill="none" stroke-width="28" stroke-linecap="round" stroke-linejoin="round" stroke-miterlimit="10" x1="551" y1="397.1" x2="510" y2="624.7"/>
		<line fill="none" stroke-width="28" stroke-linecap="round" stroke-linejoin="round" stroke-miterlimit="10" x1="349" y1="397.8" x2="369.9" y2="624.7"/>
		<line fill="none" stroke-width="28" stroke-linecap="round" stroke-linejoin="round" stroke-miterlimit="10" x1="458" y1="397.8" x2="436.7" y2="621.7"/>
	</g>
</g>
	
	<g>
		<path fill="none" stroke-width="28" stroke-linecap="round" stroke-linejoin="round" stroke-miterlimit="10" d="M340.6,397.1l9.9-78.3c2.4-14.7,7.3-36.3,18.6-60.1c6.9-14.7,8.7-14.2,21.6-37.6c11.5-21,23.3-42.7,32.4-71.8
			c4.2-13.5,7-28.2,9.8-41.8c4.4-20.8,6.9-38.5,8.4-51.3l61.1,7.7c-1.7,12.9-3.7,30.6-4.6,51.8c-0.6,13.9-1.6,28.8-0.9,42.9
			c1.5,30.5,7.6,54.5,13.5,77.6c6.7,25.9,8.5,25.8,11.6,41.8c1.4,7,2.3,13.7,2.9,20.1l-10.4,99"/>
		<line fill="none" stroke-width="28" stroke-linecap="round" stroke-linejoin="round" stroke-miterlimit="10" x1="498.3" y1="104.2" x2="435.3" y2="96.3"/>
		<path fill="none" stroke-width="28" stroke-linecap="round" stroke-linejoin="round" stroke-miterlimit="10" d="M440.4,224.7c-4.3,7.5-10.5,18.6-17.8,32.2c-14.5,27-17.1,33.8-18.5,37.6c-3.4,9.4-7.5,23.9-8.5,43"/>
	</g>
	<g>
		<path fill="none" stroke-width="28" stroke-linecap="round" stroke-linejoin="round" stroke-miterlimit="10" d="M514.8,397.1c0.8-18.7,4.6-39.1,5.6-51.5c6.6-79.7,18.2-149.5,58.3-215.5c13-21.4,33.6-37.9,57.7-30.3
			c23.4,7.4,39.2,40.9,45.1,67.3c8.3,36.7,8.9,75.8,7.2,113.3c-1.3,28.3-3.9,56.5-5.9,84.8c-0.7,9.9-0.7,21.4-2.4,32"/>
		<line fill="none" stroke-width="28" stroke-linecap="round" stroke-linejoin="round" stroke-miterlimit="10" x1="602.4" y1="205" x2="633.6" y2="225.9"/>
		<line fill="none" stroke-width="28" stroke-linecap="round" stroke-linejoin="round" stroke-miterlimit="10" x1="590.3" y1="270.8" x2="624.7" y2="294.7"/>
		<line fill="none" stroke-width="28" stroke-linecap="round" stroke-linejoin="round" stroke-miterlimit="10" x1="574.5" y1="335.7" x2="620.5" y2="365.7"/>
	</g>
	<g>
		<path fill="none" stroke-width="28" stroke-linecap="round" stroke-linejoin="round" stroke-miterlimit="10" d="M228.8,258.8c0.2,14.1,2.5,41,18.2,69.5c2.2,4,11.9,21,32.1,39.5"/>
		<path fill="none" stroke-width="28" stroke-linecap="round" stroke-linejoin="round" stroke-miterlimit="10" d="M102.2,318.6c-4.5-9-13.3-30.2-9-56.6c4.1-25.2,20.7-58.3,47.6-65.6c20.9-5.6,38.9,3.6,50.1-2
			c7.9-4,8.7-15.3,23-27c13.9-11.5,29.2-14.2,36.6-15.5c7.6-1.4,30.7-5.2,55.1,7.5c16.2,8.4,25.7,20.4,30.5,27.5"/>
		<path fill="none" stroke-width="28" stroke-linecap="round" stroke-linejoin="round" stroke-miterlimit="10" d="M402.2,198.6c-4.7-2.8-10.1-5.1-16.1-6.7c-4-1-35.6-8.6-59.6,13.5c-20.9,19.3-19.8,46.2-19.5,50.1"/>
		<path fill="none" stroke-width="28" stroke-linecap="round" stroke-linejoin="round" stroke-miterlimit="10" d="M146.3,297.1c-7.1,2-28.3,9-43.6,30c-16.2,22.3-15.1,46-14.5,55.6c0.3,4.4,0.8,8.6,1.7,12.6"/>
	</g>
</g>

</svg>
