<?xml version="1.0" encoding="utf-8"?>
<!-- Generator: Adobe Illustrator 19.1.0, SVG Export Plug-In . SVG Version: 6.00 Build 0)  -->
<!-- All rights reserved. Copyright: AnimatedSVG - ASVG © 2020 - https://animated-svg.com You may not reproduce, duplicate, copy or sell this intellectual property.  -->
<svg version="1.1" stroke="#000" id="Layer_1" xmlns="http://www.w3.org/2000/svg" xmlns:xlink="http://www.w3.org/1999/xlink" x="0px" y="0px" viewBox="0 0 800 800" style="enable-background:new 0 0 800 800" width="800px" height="800px" xml:space="preserve">

<g>
	<path fill="none" stroke-width="28" stroke-linecap="round" stroke-linejoin="round" stroke-miterlimit="10"  d="M749.7,269.9C764.8,310.4,773,354.2,773,400c0,206-167,373-373,373S27,606,27,400c0-47.4,8.8-92.7,25-134.4"/>
	<path fill="none" stroke-width="28" stroke-linecap="round" stroke-linejoin="round" stroke-miterlimit="10"  d="M113.3,161.4C181.7,79.3,284.8,27,400,27c115.8,0,219.3,52.8,287.7,135.6"/>
</g>
<path fill="none" stroke-width="28" stroke-linecap="round" stroke-linejoin="round" stroke-miterlimit="10"  d="M666.7,445C645.2,573,534,670.4,400,670.4S154.8,573,133.3,445"/>
<g>
	<g>
		<path fill="none" stroke-width="28" stroke-linecap="round" stroke-linejoin="round" stroke-miterlimit="10"  d="M346,246.6c-15.1,52.8-32.7,114.9-89,137.4c-34,13.6-83.2,14.3-117.4,1.8C79,363.5,45.3,287.5,50.2,226.5
			c1.3-16.5,5.7-33.8,17.6-45.4c8-7.8,18.6-12.4,29.4-15.2c21-5.6,42.5-5,64-5c23.4,0,70.1,0,70.1,0s50.8-1.3,66.1,3.8
			c13,4.3,23.4,17.5,31.6,28.2c6.4,8.5,10.6,17.6,12.9,27.9c1.3,6,2.1,20.8,8.6,17.8c12.2-5.6,24.9-10.5,38.2-12.7
			c13.9-2.3,26.6-0.3,40,3.6c8,2.4,15.8,5.6,23.4,9.1c6.6,3,7.3-11.8,8.6-17.8c2.3-10.3,6.5-19.4,12.9-27.9
			c8.1-10.8,18.5-24.1,31.6-28.2c16.2-5,65.4-3.8,65.4-3.8s47.3,0,70.7,0c21.5,0,43-0.5,64,5c10.8,2.9,21.4,7.4,29.4,15.2
			c11.8,11.6,16.2,28.9,17.6,45.4c4.9,60.9-28.8,137-89.4,159.3c-34.3,12.6-83.5,11.8-117.4-1.8c-56.3-22.5-73.9-84.6-88.9-137.4"/>
	</g>
	<path fill="none" stroke-width="28" stroke-linecap="round" stroke-linejoin="round" stroke-miterlimit="10"  d="M180.8,332.7c-6.4-0.7-12.6-2-18-4c-28.6-10.5-45.6-44.3-46.3-74"/>
	<path fill="none" stroke-width="28" stroke-linecap="round" stroke-linejoin="round" stroke-miterlimit="10"  d="M592.7,332.7c-6.4-0.7-12.6-2-18-4c-28.6-10.5-45.6-44.3-46.3-74"/>
</g>
</svg>
