<?xml version="1.0" encoding="utf-8"?>
<!-- Generator: Adobe Illustrator 19.1.0, SVG Export Plug-In . SVG Version: 6.00 Build 0)  -->
<!-- All rights reserved. Copyright: AnimatedSVG - ASVG © 2020 - https://animated-svg.com You may not reproduce, duplicate, copy or sell this intellectual property.  -->
<svg version="1.1" stroke="#000" id="Layer_1" xmlns="http://www.w3.org/2000/svg" xmlns:xlink="http://www.w3.org/1999/xlink" x="0px" y="0px" viewBox="0 0 800 800" style="enable-background:new 0 0 800 800" width="800px" height="800px" xml:space="preserve">

<circle fill="none" stroke-width="28" stroke-linecap="round" stroke-linejoin="round" stroke-miterlimit="10"  cx="400" cy="400" r="373"/>
<g>
	<g>
		<path fill="none" stroke-width="28" stroke-linecap="round" stroke-linejoin="round" stroke-miterlimit="10"  d="M142.3,248.1c21.3-36,65.2-70.2,129.9-91"/>
	</g>
	<path fill="none" stroke-width="28" stroke-linecap="round" stroke-linejoin="round" stroke-miterlimit="10"  d="M321.5,306.3c0,35.5-28.8,64.3-64.3,64.3s-64.3-28.8-64.3-64.3s28.8-64.3,64.3-64.3S321.5,270.8,321.5,306.3z"
		/>
</g>
<path fill="none" stroke-width="28" stroke-linecap="round" stroke-linejoin="round" stroke-miterlimit="10"  d="M229,537c8.7,9.3,20.7,17.7,34,16.9c17.5-0.9,33.1-15.8,46-26.2c12.8-10.3,29-12,44.1-5.9
	c22.8,9.1,46.1,35.9,71.8,22.7c21.6-11.1,40.2-32.4,66.6-29.9c20.2,1.9,29.4,15.3,41.2,30c16.9,20.9,45.5,5.8,60.3-9.7"/>
<g>
	<g>
		<path fill="none" stroke-width="28" stroke-linecap="round" stroke-linejoin="round" stroke-miterlimit="10"  d="M526.1,158.4c64.7,20.8,108.6,55,129.9,91"/>
	</g>
	<path fill="none" stroke-width="28" stroke-linecap="round" stroke-linejoin="round" stroke-miterlimit="10"  d="M541.1,243.3c35.5,0,64.3,28.8,64.3,64.3s-28.8,64.3-64.3,64.3s-64.3-28.8-64.3-64.3S505.6,243.3,541.1,243.3z
		"/>
</g>
</svg>
