<?xml version="1.0" encoding="utf-8"?>
<!-- Generator: Adobe Illustrator 19.1.0, SVG Export Plug-In . SVG Version: 6.00 Build 0)  -->
<!-- All rights reserved. Copyright: AnimatedSVG - ASVG © 2020 - https://animated-svg.com You may not reproduce, duplicate, copy or sell this intellectual property.  -->
<svg version="1.1" stroke="#000" id="Layer_1" xmlns="http://www.w3.org/2000/svg" xmlns:xlink="http://www.w3.org/1999/xlink" x="0px" y="0px" viewBox="0 0 800 800" style="enable-background:new 0 0 800 800" width="800px" height="800px" xml:space="preserve">

<g>
	<g>
		<circle fill="none" stroke-width="28" stroke-linecap="round" stroke-linejoin="round" stroke-miterlimit="10" class="st0" cx="252.2" cy="267.3" r="64.3"/>
		<circle fill="none" stroke-width="28" stroke-linecap="round" stroke-linejoin="round" stroke-miterlimit="10"  cx="541.7" cy="267.3" r="64.3"/>
	</g>
	<circle fill="none" stroke-width="28" stroke-linecap="round" stroke-linejoin="round" stroke-miterlimit="10"  cx="400" cy="400" r="373"/>
	<g>
		<path fill="none" stroke-width="28" stroke-linecap="round" stroke-linejoin="round" stroke-miterlimit="10"  d="M646,411.3H154c-8,0-14.5,6.5-14.5,14.5c0,145,137.3,246,260.5,246s260.5-101,260.5-246
			C660.5,417.7,654,411.3,646,411.3z"/>
		<path fill="none" stroke-width="28" stroke-linecap="round" stroke-linejoin="round" stroke-miterlimit="10"  d="M262.3,612.4c13.4-31.3,36-51.2,62.5-58.3c19.4-5.2,41.6-7.8,61-0.7c18.4,6.7,21.3,15.6,35.7,15.9
			c11.5,0.2,13.9-5.4,32.9-13.3c14.4-5.9,30-12.4,49-10.1c21.7,2.5,37.4,15.2,44.5,21c15,12.3,19.1,17.2,24.7,26.8"/>
	</g>
</g>
</svg>
