<?xml version="1.0" encoding="utf-8"?>
<!-- Generator: Adobe Illustrator 19.1.0, SVG Export Plug-In . SVG Version: 6.00 Build 0)  -->
<!-- All rights reserved. Copyright: AnimatedSVG - ASVG © 2020 - https://animated-svg.com You may not reproduce, duplicate, copy or sell this intellectual property.  -->
<svg version="1.1" stroke="#000" id="Layer_1" xmlns="http://www.w3.org/2000/svg" xmlns:xlink="http://www.w3.org/1999/xlink" x="0px" y="0px" viewBox="0 0 800 800" style="enable-background:new 0 0 800 800" width="800px" height="800px" xml:space="preserve">
<g>
	<circle fill="none" stroke-width="28" stroke-linecap="round" stroke-linejoin="round" stroke-miterlimit="10"  cx="398" cy="435" r="344.1"/>
	<ellipse fill="none" stroke-width="28" stroke-linecap="round" stroke-linejoin="round" stroke-miterlimit="10"  cx="400" cy="125.1" rx="313.5" ry="99"/>
</g>
<g>
	<path fill="none" stroke-width="28" stroke-linecap="round" stroke-linejoin="round" stroke-miterlimit="10"  d="M187.9,363.3c0-35.5,28.8-64.3,64.3-64.3s64.3,28.8,64.3,64.3"/>
	<path fill="none" stroke-width="28" stroke-linecap="round" stroke-linejoin="round" stroke-miterlimit="10"  d="M477.4,363.3c0-35.5,28.8-64.3,64.3-64.3s64.3,28.8,64.3,64.3"/>
</g>
<g>
	<path fill="none" stroke-width="28" stroke-linecap="round" stroke-linejoin="round" stroke-miterlimit="10"  d="M270.6,646.7c12.6-29.4,33.8-48.1,58.7-54.8c18.2-4.9,39.1-7.3,57.3-0.7c17.3,6.3,20,14.7,33.6,14.9
		c10.8,0.2,13.1-5.1,30.9-12.5c13.5-5.5,28.2-11.7,46.1-9.5c20.4,2.3,35.2,14.3,41.8,19.7c14.1,11.6,18,16.2,23.2,25.2"/>
	<path fill="none" stroke-width="28" stroke-linecap="round" stroke-linejoin="round" stroke-miterlimit="10"  d="M602.1,505.9l-414.5,0H158c19.5,117.5,136.3,196.6,242,196.6s222.5-79.1,242-196.6L602.1,505.9z"/>
</g>

</svg>
