<?xml version="1.0" encoding="utf-8"?>
<!-- Generator: Adobe Illustrator 19.1.0, SVG Export Plug-In . SVG Version: 6.00 Build 0)  -->
<!-- All rights reserved. Copyright: AnimatedSVG - ASVG © 2020 - https://animated-svg.com You may not reproduce, duplicate, copy or sell this intellectual property.  -->
<svg version="1.1" stroke="#000" id="Layer_1" xmlns="http://www.w3.org/2000/svg" xmlns:xlink="http://www.w3.org/1999/xlink" x="0px" y="0px" viewBox="0 0 800 800" style="enable-background:new 0 0 800 800" width="800px" height="800px" xml:space="preserve">

<circle fill="none" stroke-width="28" stroke-linecap="round" stroke-linejoin="round" stroke-miterlimit="10"  cx="400" cy="400" r="373"/>
<g>
	<path fill="none" stroke-width="28" stroke-linecap="round" stroke-linejoin="round" stroke-miterlimit="10"  d="M321.5,285.3c0,35.5-28.8,64.3-64.3,64.3s-64.3-28.8-64.3-64.3"/>
	<g>
		<path fill="none" stroke-width="28" stroke-linecap="round" stroke-linejoin="round" stroke-miterlimit="10"  d="M154.3,247.9c54.6-20.5,111.9-30.7,169.7-30.2"/>
	</g>
	<path fill="none" stroke-width="28" stroke-linecap="round" stroke-linejoin="round" stroke-miterlimit="10"  d="M607,285.3c0,35.5-28.8,64.3-64.3,64.3s-64.3-28.8-64.3-64.3"/>
	<g>
		<path fill="none" stroke-width="28" stroke-linecap="round" stroke-linejoin="round" stroke-miterlimit="10"  d="M645.7,247.9c-54.6-20.5-111.9-30.7-169.7-30.2"/>
	</g>
</g>
<path fill="none" stroke-width="28" stroke-linecap="round" stroke-linejoin="round" stroke-miterlimit="10"  d="M226.5,592.1c14.9-51.2,87.4-90,174.6-90c83.5,0,153.5,35.6,172.4,83.6"/>
<path fill="none" stroke-width="28" stroke-linecap="round" stroke-linejoin="round" stroke-miterlimit="10"  d="M620.6,365.9c-2.7,14.7-5.2,34.7-1.6,46.4c5.6,18,21.1,29.3,34.7,25.1c13.6-4.2,20.1-22.2,14.5-40.3
	c-3.6-11.7-16.9-26.8-27.4-37.5C633.6,352.2,622.5,355.6,620.6,365.9z"/>
</svg>
