<?xml version="1.0" encoding="utf-8"?>
<!-- Generator: Adobe Illustrator 19.1.0, SVG Export Plug-In . SVG Version: 6.00 Build 0)  -->
<!-- All rights reserved. Copyright: AnimatedSVG - ASVG © 2020 - https://animated-svg.com You may not reproduce, duplicate, copy or sell this intellectual property.  -->
<svg version="1.1" stroke="#000" id="Layer_1" xmlns="http://www.w3.org/2000/svg" xmlns:xlink="http://www.w3.org/1999/xlink" x="0px" y="0px" viewBox="0 0 800 800" style="enable-background:new 0 0 800 800" width="800px" height="800px" xml:space="preserve">

<circle fill="none" stroke-width="28" stroke-linecap="round" stroke-linejoin="round" stroke-miterlimit="10"  cx="400" cy="400" r="373"/>
<path fill="none" stroke-width="28" stroke-linecap="round" stroke-linejoin="round" stroke-miterlimit="10"  d="M670.4,400c0,149.4-121.1,270.4-270.4,270.4S129.6,549.4,129.6,400"/>
<g>
	<g>
		<path fill="none" stroke-width="28" stroke-linecap="round" stroke-linejoin="round" stroke-miterlimit="10"  d="M255.9,368.8c27.7-24.2,49.7-46.1,66-63.2c13.8-14.5,22.3-24.3,24-39.3c1.8-16-4.2-35.4-19.3-47.1
			c-17-13-36.1-9.1-41.3-7.7c-17.5,4.5-27.2,17.1-30,21.1c-2.8-3.9-12.5-16.6-30-21.1c-5.3-1.4-24.4-5.3-41.3,7.7
			c-15.1,11.6-21.2,31.1-19.3,47.1c1.7,15,10.2,24.8,24,39.3c16.3,17.2,38.3,39,66,63.2H255.9z"/>
	</g>
	<g>
		<path fill="none" stroke-width="28" stroke-linecap="round" stroke-linejoin="round" stroke-miterlimit="10"  d="M545.4,368.8c27.7-24.2,49.7-46.1,66-63.2c13.8-14.5,22.3-24.3,24-39.3c1.8-16-4.2-35.4-19.3-47.1
			c-17-13-36.1-9.1-41.3-7.7c-17.5,4.5-27.2,17.1-30,21.1c-2.8-3.9-12.5-16.6-30-21.1c-5.3-1.4-24.4-5.3-41.3,7.7
			c-15.1,11.6-21.2,31.1-19.3,47.1c1.7,15,10.2,24.8,24,39.3c16.3,17.2,38.3,39,66,63.2H545.4z"/>
	</g>
</g>
</svg>
