<?xml version="1.0" encoding="utf-8"?>
<!-- Generator: Adobe Illustrator 19.1.0, SVG Export Plug-In . SVG Version: 6.00 Build 0)  -->
<!-- All rights reserved. Copyright: AnimatedSVG - ASVG © 2020 - https://animated-svg.com You may not reproduce, duplicate, copy or sell this intellectual property.  -->
<svg version="1.1" stroke="#000" id="Layer_1" xmlns="http://www.w3.org/2000/svg" xmlns:xlink="http://www.w3.org/1999/xlink" x="0px" y="0px" viewBox="0 0 800 800" style="enable-background:new 0 0 800 800" width="800px" height="800px" xml:space="preserve">
<g>
	<circle fill="none" stroke-width="28" stroke-linecap="round" stroke-linejoin="round" stroke-miterlimit="10"  cx="252.2" cy="267.3" r="64.3"/>
	<circle fill="none" stroke-width="28" stroke-linecap="round" stroke-linejoin="round" stroke-miterlimit="10"  cx="541.7" cy="267.3" r="64.3"/>
</g>
<circle fill="none" stroke-width="28" stroke-linecap="round" stroke-linejoin="round" stroke-miterlimit="10"  cx="400" cy="400" r="373"/>
<g>
	<path fill="none" stroke-width="28" stroke-linecap="round" stroke-linejoin="round" stroke-miterlimit="10"  d="M291.6,645.4c8.2-20.1,27.9-32.4,48.6-36.1c10.5-1.9,21.4-1.7,31.8,0.8c10.4,2.5,20.3,12.2,30.6,12.5
		c8,0.1,9.7-4,22.9-9.8c10-4.3,20.9-9.1,34.2-7.4c15.1,1.8,26.1,11.2,31,15.4c10.5,9,13.3,12.6,17.2,19.7"/>
	<ellipse fill="none" stroke-width="28" stroke-linecap="round" stroke-linejoin="round" stroke-miterlimit="10"  cx="400" cy="563.1" rx="183" ry="123"/>
</g>
</svg>
