<?xml version="1.0" encoding="utf-8"?>
<!-- Generator: Adobe Illustrator 19.1.0, SVG Export Plug-In . SVG Version: 6.00 Build 0)  -->
<!-- All rights reserved. Copyright: AnimatedSVG - ASVG © 2020 - https://animated-svg.com You may not reproduce, duplicate, copy or sell this intellectual property.  -->
<svg version="1.1" stroke="#000" id="Layer_1" xmlns="http://www.w3.org/2000/svg" xmlns:xlink="http://www.w3.org/1999/xlink" x="0px" y="0px" viewBox="0 0 800 800" style="enable-background:new 0 0 800 800" width="800px" height="800px" xml:space="preserve">

<g>
	<path fill="none" stroke-width="28" stroke-linecap="round" stroke-linejoin="round" stroke-miterlimit="10" d="M410.3,411.1c12.3,13.6,32.3,35.8,41.4,46.5c15.9,18.7,33.3,35.3,52,49.5c34,25.8,74.1,45.2,115.6,46.3h0
		c84.7,0,153.4-68.7,153.4-153.4s-68.7-153.4-153.4-153.4c-20.9,0-41.6,4.4-61.9,13.2c-20.3,8.8-38.8,20.3-55.3,34.7
		c-18.7,14.3-36.1,30.5-52,48.7c-15.9,18.1-84.9,95.2-101.5,114c-21.7,24.6-47.8,47.7-75.4,65.5c-27.5,17.8-59.8,30.2-93,30.2l0.1,0
		c-84.6,0-153.2-68.6-153.2-153.2s68.6-153.1,153.2-153.1c20.9,0,41.6,3.8,61.9,12.6c20.3,8.8,38.8,20.3,55.3,34.7
		c18.7,14.3,36.1,30.5,52,48.7c9.8,10.9,32.9,37.2,44.1,49.9"/>
</g>
</svg>
