<?xml version="1.0" encoding="utf-8"?>
<!-- Generator: Adobe Illustrator 19.1.0, SVG Export Plug-In . SVG Version: 6.00 Build 0)  -->
<!-- License: CC0 1.0 Universal: http://creativecommons.org/publicdomain/zero/1.0/ Contributors: Dario Ferrando, Benjamin Sigidi https://github.com/linea-io/ | Download icons from: http://animated-svg.com  -->

<svg version="1.1" stroke="#000" id="Layer_1" xmlns="http://www.w3.org/2000/svg" xmlns:xlink="http://www.w3.org/1999/xlink" x="0px" y="0px" viewBox="0 0 800 800" style="enable-background:new 0 0 800 800" width="800px" height="800px" xml:space="preserve">
<g>
	<path fill="none" stroke-width="28" stroke-linecap="round" stroke-linejoin="round" stroke-miterlimit="10"  d="M728.2,416.7c0,0-12.1,0.2-12.1,0.2l-126.6-0.6l126.6,0.6c23.7-1.7,43.4-23.5,43.1-48.5
		c-0.2-22.7-19.7-40.8-44.8-40.4h-214c0,0,31.9-49.9,26.6-120.6c-5.1-68.7-39.5-95.2-74.3-94.8c-23.7,0.3-22.5,10.1-23.1,28.8
		c-0.7,19.9-0.9,39.8-0.4,59.7c0.9,43.8-28.4,83-59.7,115c-21.5,22-73.6,44.5-76.2,73.4c0,0,0,245.3,0,245.3c0,0,22.7-0.3,22.7-0.3
		c8.4-0.1,21,2.6,28.3,6.2l56.3,27.2c7.3,3.5,20,6.3,28.3,6.2c0,0,249.1,0,250.1,0c16.8-0.2,32.3-7.7,38.8-23.8
		c11.7-29.1-4.5-55.7-34.6-61.8l-80.9,0.4l80.9-0.4l27.3-0.4c25.1-0.4,45.5-19,46.1-41.7c1-43.1-41.7-47.3-41.7-47.3L587,499.8
		l127.8-0.7l12.1-0.2c25.1-0.4,45.7-19,46.1-41.7C773.3,434.5,753.3,416.4,728.2,416.7z"/>
	<rect fill="none" stroke-width="28" stroke-linecap="round" stroke-linejoin="round" stroke-miterlimit="10" x="215.9" y="339.8"  width="77.4" height="319.5"/>
	<rect fill="none" stroke-width="28" stroke-linecap="round" stroke-linejoin="round" stroke-miterlimit="10" x="27" y="309.7"  width="188.9" height="377.6"/>
</g>
</svg>
