<?xml version="1.0" encoding="utf-8"?>
<!-- Generator: Adobe Illustrator 19.1.0, SVG Export Plug-In . SVG Version: 6.00 Build 0)  -->
<!-- All rights reserved. Copyright: AnimatedSVG - ASVG © 2020 - https://animated-svg.com You may not reproduce, duplicate, copy or sell this intellectual property.  -->
<svg version="1.1" stroke="#000" id="Layer_1" xmlns="http://www.w3.org/2000/svg" xmlns:xlink="http://www.w3.org/1999/xlink" x="0px" y="0px" viewBox="0 0 800 800" style="enable-background:new 0 0 800 800" width="800px" height="800px" xml:space="preserve">

<g>
	<g>
		<path fill="none" stroke-width="28" stroke-linecap="round" stroke-linejoin="round" stroke-miterlimit="10" d="M504.5,130.9c0-19.9-3.9-36.4-11.6-49.7C485.2,68,475.2,57,463.1,48.2c-12.2-7.7-25.7-13.5-40.6-17.4
			C407.7,26.9,392.5,25,377,25c-14.4,0-29.2,1.9-44.7,5.8c-15.5,3.9-29.2,9.7-41.4,17.4C277.7,57,267.2,68,259.5,81.3
			c-7.7,13.2-11.6,29.8-11.6,49.7c0,15.5,2.2,28.7,6.6,39.7c4.4,11,11,20.4,19.9,28.1c8.8,8.8,20.4,17.1,34.8,24.8
			c14.3,7.7,31.4,16.6,51.3,26.5l44.7,21.5c21,9.9,39.2,19.3,54.6,28.1c15.4,8.8,28.7,18.2,39.7,28.1c11,11,19.6,23.5,25.7,37.2
			c6.1,13.8,9.1,30.6,9.1,50.5c0,18.8-3,35.9-9.1,51.3c-6.1,15.5-15.2,28.7-27.3,39.7c-11,11-24.8,20.1-41.4,27.3
			c-16.6,7.2-35.3,11.9-56.3,14.1h-1.7 M248.8,665.1c0,19.9,3.9,36.4,11.6,49.7c7.7,13.2,17.7,24.3,29.8,33.1
			c12.2,7.7,25.7,13.5,40.6,17.4c14.9,3.9,30.1,5.8,45.5,5.8c14.4,0,29.2-1.9,44.7-5.8c15.5-3.9,29.2-9.7,41.4-17.4
			c13.2-8.8,23.7-19.9,31.4-33.1c7.7-13.2,11.6-29.8,11.6-49.7c0-15.5-2.2-28.7-6.6-39.7c-4.4-11-11-20.4-19.9-28.1
			c-8.8-8.8-20.4-17.1-34.8-24.8c-14.3-7.7-31.4-16.6-51.3-26.5l-44.7-21.5c-21-9.9-39.2-19.3-54.6-28.1
			c-15.4-8.8-28.7-18.2-39.7-28.1c-11-11-19.6-23.5-25.7-37.2c-6.1-13.8-9.1-30.6-9.1-50.5c0-18.8,3-35.9,9.1-51.3
			c6.1-15.5,15.2-28.7,27.3-39.7c11-11,24.8-20.1,41.4-27.3c16.6-7.2,35.3-11.9,56.3-14.1h1.7"/>
	</g>
</g>
</svg>
