<?xml version="1.0" encoding="utf-8"?>
<!-- Generator: Adobe Illustrator 19.1.0, SVG Export Plug-In . SVG Version: 6.00 Build 0)  -->
<!-- License: CC0 1.0 Universal: http://creativecommons.org/publicdomain/zero/1.0/ Contributors: Dario Ferrando, Benjamin Sigidi https://github.com/linea-io/ | Download icons from: http://animated-svg.com  -->

<svg version="1.1" stroke="#000" id="Layer_1" xmlns="http://www.w3.org/2000/svg" xmlns:xlink="http://www.w3.org/1999/xlink" x="0px" y="0px" viewBox="0 0 800 800" style="enable-background:new 0 0 800 800" width="800px" height="800px" xml:space="preserve">
<g>
	<path fill="none" stroke-width="28" stroke-linecap="round" stroke-linejoin="round" stroke-miterlimit="10"  d="M773,409.7c-0.4-22.7-21-41.3-46.1-41.7l-12.1-0.2L587,367.1l127.9,0.7c0,0,42.7-4.2,41.7-47.3
		c-0.6-22.7-21-41.3-46.1-41.7l-27.3-0.4l-80.9-0.4l80.9,0.4c30.1-6.1,46.3-32.7,34.6-61.8c-6.5-16.1-22-23.6-38.8-23.8
		c-1,0-250.1,0-250.1,0c-8.3-0.1-21,2.7-28.3,6.2l-56.3,27.2c-7.3,3.6-19.9,6.3-28.3,6.2l-22.7-0.3v245.3
		c2.6,28.9,54.7,51.4,76.2,73.4c31.3,32,60.6,71.2,59.7,115c-0.5,19.9-0.3,39.8,0.4,59.7c0.6,18.7-0.6,28.5,23.1,28.8
		c34.8,0.4,69.2-26.1,74.3-94.8c5.3-70.7-26.6-120.6-26.6-120.6h214c25.1,0.4,44.6-17.7,44.8-40.4c0.3-25-19.4-46.8-43.1-48.5
		l-126.6,0.6l126.6-0.6l12.1,0.2C753.3,450.5,773.3,432.4,773,409.7z"/>
	<rect fill="none" stroke-width="28" stroke-linecap="round" stroke-linejoin="round" stroke-miterlimit="10" x="215.9" y="207.6"  width="77.4" height="319.5"/>
	<rect fill="none" stroke-width="28" stroke-linecap="round" stroke-linejoin="round" stroke-miterlimit="10" x="27" y="179.6"  width="188.9" height="377.6"/>
</g>
</svg>
