<?xml version="1.0" encoding="utf-8"?>
<!-- Generator: Adobe Illustrator 19.1.0, SVG Export Plug-In . SVG Version: 6.00 Build 0)  -->
<!-- License: CC0 1.0 Universal: http://creativecommons.org/publicdomain/zero/1.0/ Contributors: Dario Ferrando, Benjamin Sigidi https://github.com/linea-io/ | Download icons from: http://animated-svg.com  -->
<svg version="1.1" stroke="#000" id="Layer_1" xmlns="http://www.w3.org/2000/svg" xmlns:xlink="http://www.w3.org/1999/xlink" x="0px" y="0px" viewBox="0 0 800 800" style="enable-background:new 0 0 800 800" width="800px" height="800px" xml:space="preserve">

<g>
	<path fill="none" stroke-width="28" stroke-linecap="round" stroke-linejoin="round" stroke-miterlimit="10"  d="M636.8,773c0,0-71-59.2-71-142.1s0-473.7,0-473.7S565.8,27,471,27s-94.7,130.3-94.7,130.3v473.7"/>
	<path fill="none" stroke-width="28" stroke-linecap="round" stroke-linejoin="round" stroke-miterlimit="10"  d="M186.9,630.9V157.3c0,0,1-130.3,94.7-130.3s94.7,130.3,94.7,130.3"/>
	<path fill="none" stroke-width="28" stroke-linecap="round" stroke-linejoin="round" stroke-miterlimit="10"  d="M186.9,157.3c0,0,0-118.4-94.7-118.4"/>
	<path fill="none" stroke-width="28" stroke-linecap="round" stroke-linejoin="round" stroke-miterlimit="10"  d="M565.8,299.3c0,0,0-165.8,71-165.8s71,165.8,71,165.8S696,702,388.2,702"/>
</g>
</svg>
