<?xml version="1.0" encoding="utf-8"?>
<!-- Generator: Adobe Illustrator 19.1.0, SVG Export Plug-In . SVG Version: 6.00 Build 0)  -->
<!-- All rights reserved. Copyright: AnimatedSVG - ASVG © 2020 - https://animated-svg.com You may not reproduce, duplicate, copy or sell this intellectual property.  -->
<svg version="1.1" stroke="#000" xmlns="http://www.w3.org/2000/svg" xmlns:xlink="http://www.w3.org/1999/xlink" x="0px" y="0px" viewBox="0 0 800 800" style="enable-background:new 0 0 800 800" width="800px" height="800px" xml:space="preserve">
<path fill="none" stroke-width="28" stroke-linecap="round" stroke-linejoin="round" stroke-miterlimit="10" d="
	M741.3,193c-20.2-36-42.2-42.6-86.9-45.1c-44.7-3-157-4.3-254.3-4.3c-97.5,0-209.9,1.3-254.5,4.2c-44.6,2.6-66.6,9.1-87,45.2
	C37.7,228.9,27,290.9,27,399.9c0,0.1,0,0.1,0,0.1c0,0.1,0,0.1,0,0.1v0.1c0,108.5,10.7,170.9,31.6,206.5c20.4,36,42.4,42.5,87,45.6
	c44.7,2.6,157,4.1,254.5,4.1c97.3,0,209.6-1.5,254.3-4.1c44.7-3,66.7-9.6,86.9-45.6c21-35.6,31.7-98,31.7-206.5c0,0,0-0.1,0-0.2
	c0,0,0-0.1,0-0.1C773,290.9,762.4,228.9,741.3,193z"/>
<polygon fill="none" stroke-width="28" stroke-linecap="round" stroke-linejoin="round" stroke-miterlimit="10" points="
	306.8,539.9 306.8,260.1 539.9,400 "/>
</svg>
