<?xml version="1.0" encoding="utf-8"?>
<!-- Generator: Adobe Illustrator 19.1.0, SVG Export Plug-In . SVG Version: 6.00 Build 0)  -->
<!-- All rights reserved. Copyright: AnimatedSVG - ASVG © 2020 - https://animated-svg.com You may not reproduce, duplicate, copy or sell this intellectual property.  -->
<svg version="1.1" stroke="#000" id="Layer_1" xmlns="http://www.w3.org/2000/svg" xmlns:xlink="http://www.w3.org/1999/xlink" x="0px" y="0px"
	 width="800px" height="800px" viewBox="0 0 800 800" style="enable-background:new 0 0 800 800" xml:space="preserve">

<g>
	<path fill="none" stroke-width="28" stroke-linecap="round" stroke-linejoin="round" stroke-miterlimit="10"  d="M400,27c-51,0-99.1,9.9-144.4,29.7c-45.3,19.8-85.1,46.3-119.4,79.6c-33.3,34.3-59.8,74.1-79.6,119.4
		C36.9,300.9,27,349,27,400c0,51,9.9,99.1,29.7,144.4c19.8,45.3,46.3,85.1,79.6,119.4c34.3,33.3,74.1,59.8,119.4,79.6
		S349,773,400,773c51,0,99.1-9.9,144.4-29.7s85.1-46.3,119.4-79.6c33.3-34.3,59.8-74.1,79.6-119.4C763.1,499.1,773,451,773,400
		c0-51-9.9-99.1-29.7-144.4c-19.8-45.3-46.3-85.1-79.6-119.4c-34.3-33.3-74.1-59.8-119.4-79.6C499.1,36.9,451,27,400,27z"/>
	<path fill="none" stroke-width="28" stroke-linecap="round" stroke-linejoin="round" stroke-miterlimit="10"  d="M557.5,274.6c-4.7-6-9.7-11.7-15-17.2c-18.6-18-40.1-32.3-64.5-43c-24.5-10.7-50.5-16-78-16
		c-27.6,0-53.6,5.4-78,16c-24.5,10.7-46,25-64.5,43c-18,18.6-32.3,40.1-43,64.5c-10.7,24.5-16,50.5-16,78c0,27.6,5.3,53.6,16,78
		c10.7,24.5,25,46,43,64.5c18.6,18,40.1,32.3,64.5,43s50.5,16,78,16c27.5,0,53.6-5.4,78-16s46-25,64.5-43c5.3-5.5,10.3-11.2,15-17.2
		"/>
</g>
</svg>
