<?xml version="1.0" encoding="utf-8"?>
<!-- Generator: Adobe Illustrator 19.1.0, SVG Export Plug-In . SVG Version: 6.00 Build 0)  -->
<!-- All rights reserved. Copyright: AnimatedSVG - ASVG © 2020 - https://animated-svg.com You may not reproduce, duplicate, copy or sell this intellectual property.  -->
<svg version="1.1" stroke="#000" xmlns="http://www.w3.org/2000/svg" xmlns:xlink="http://www.w3.org/1999/xlink" x="0px" y="0px" viewBox="0 0 800 800" style="enable-background:new 0 0 800 800" width="800px" height="800px" xml:space="preserve">
<g>
	<path fill="none" stroke-width="28" stroke-linecap="round" stroke-linejoin="round" stroke-miterlimit="10" d="
		M636.6,773H163.4c-18.2,0-33-14.8-33-33V60c0-18.2,14.8-33,33-33h473.2c18.2,0,33,14.8,33,33v680C669.6,758.2,654.8,773,636.6,773z
		"/>
	<path fill="none" stroke-width="28" stroke-linecap="round" stroke-linejoin="round" stroke-miterlimit="10" d="
		M622.5,653L622.5,653h-445V73h445V653"/>
	<path fill="none" stroke-width="22" stroke-linecap="round" stroke-linejoin="round" stroke-miterlimit="10" d="
		M426.2,714.9c0,14.4-11.7,26.1-26.1,26.1c-14.5,0-26.2-11.7-26.2-26.1c0-14.5,11.7-26.2,26.2-26.2
		C414.5,688.7,426.2,700.4,426.2,714.9z"/>
</g>
</svg>
