<?xml version="1.0" encoding="utf-8"?>
<!-- Generator: Adobe Illustrator 19.1.0, SVG Export Plug-In . SVG Version: 6.00 Build 0)  -->
<!-- All rights reserved. Copyright: AnimatedSVG - ASVG © 2020 - https://animated-svg.com You may not reproduce, duplicate, copy or sell this intellectual property.  -->
<svg version="1.1" stroke="#000" xmlns="http://www.w3.org/2000/svg" xmlns:xlink="http://www.w3.org/1999/xlink" x="0px" y="0px" viewBox="0 0 800 800" style="enable-background:new 0 0 800 800" width="800px" height="800px" xml:space="preserve">
<path fill="none" stroke-width="22" stroke-linecap="round" stroke-linejoin="round" stroke-miterlimit="10" d="
	M738.6,115.5H61.4c-19,0-34.4,15.4-34.4,34.4v418.6c0,19,15.5,34.5,34.5,34.5H318v49.7h-43.3c-39,0-32,14.3-32,32v0h314.6v0
	c0-17.7-7.3-32-25-32H482v-49.7h256.6c19,0,34.5-15.5,34.5-34.5V149.9C773,130.9,757.6,115.5,738.6,115.5z"/>
<path fill="none" stroke-width="22" stroke-linecap="round" stroke-linejoin="round" stroke-miterlimit="10" d="
	M737.5,154.7c0-3-2.5-5.5-5.5-5.5H68c-3,0-5.5,2.4-5.5,5.5v410.4c0,3,2.4,5.5,5.5,5.5h664c3,0,5.5-2.5,5.5-5.5V154.7z"/>
</svg>
