<?xml version="1.0" encoding="utf-8"?>
<!-- Generator: Adobe Illustrator 19.1.0, SVG Export Plug-In . SVG Version: 6.00 Build 0)  -->
<!-- All rights reserved. Copyright: AnimatedSVG - ASVG © 2020 - https://animated-svg.com You may not reproduce, duplicate, copy or sell this intellectual property.  -->
<svg version="1.1" stroke="#000" id="Layer_1" xmlns="http://www.w3.org/2000/svg" xmlns:xlink="http://www.w3.org/1999/xlink" x="0px" y="0px"
	 width="800px" height="800px" viewBox="0 0 800 800" style="enable-background:new 0 0 800 800" xml:space="preserve">
<style type="text/css">
	.st0{fill:none;stroke-width:24;stroke-linecap:round;stroke-linejoin:round;stroke-miterlimit:10;}
	.st1{fill:none;stroke-width:20;stroke-linecap:round;stroke-linejoin:round;stroke-miterlimit:10;}
</style>
<g>
	<path class="st0" d="M594,648.7l-388,0.1l0,58.1c0,36.5,29.5,66,66,66l256,0c36.5,0,66-29.5,66-66L594,648.7l0-29.9l-0.1-449
		l0-29.9l0-46.9c0-36.5-29.5-66-66-66l-256,0c-36.5,0-66,29.5-66,66l0.1,555.8"/>
	<path class="st1" d="M399.9,684.9c14.4,0,26.2,11.6,26.3,26.2c0,14.3-11.7,26-26.2,26.1c-14.3,0-26-11.7-26-26
		C373.9,696.4,385.6,684.8,399.9,684.9z"/>
	<path class="st0" d="M445.4,76.2l-90.9,0C348.2,76.2,452,76.2,445.4,76.2z"/>
</g>
</svg>
