<?xml version="1.0" encoding="utf-8"?>
<!-- Generator: Adobe Illustrator 19.1.0, SVG Export Plug-In . SVG Version: 6.00 Build 0)  -->
<!-- All rights reserved. Copyright: AnimatedSVG - ASVG © 2020 - https://animated-svg.com You may not reproduce, duplicate, copy or sell this intellectual property.  -->
<svg version="1.1" id="Layer_1" xmlns="http://www.w3.org/2000/svg" xmlns:xlink="http://www.w3.org/1999/xlink" x="0px" y="0px" width="800px" height="800px" viewBox="0 0 800 800" enable-background="new 0 0 800 800" xml:space="preserve">
<path fill="none" stroke="#000000" stroke-width="28" stroke-linecap="round" stroke-linejoin="round" stroke-miterlimit="10" d="
	M400.6,419.9c87.4,0,148.3,38.7,148.3,122.9c0,62-37.6,128.4-150.5,128.4c-96.3,0-145-49.8-152.7-145H125
	C125,677.8,219,773,400.6,773C544.4,773,675,702.2,675,539.5c0-77.5-47.6-136.1-132.8-167.1c78.6-36.5,107.4-88.5,107.4-152.7
	c0-112.9-93-192.6-245.7-192.6c-169.3,0-247.9,87.4-259,226.9H260c6.6-85.2,62-131.7,140.6-131.7c76.4,0,128.4,44.3,128.4,108.5
	S481.4,338,381.7,338h-25.5v81.9H400.6z"/>
</svg>
