<?xml version="1.0" encoding="utf-8"?>
<!-- Generator: Adobe Illustrator 19.1.0, SVG Export Plug-In . SVG Version: 6.00 Build 0)  -->
<!-- All rights reserved. Copyright: AnimatedSVG - ASVG © 2020 - https://animated-svg.com You may not reproduce, duplicate, copy or sell this intellectual property.  -->
<svg version="1.1" id="Layer_1" xmlns="http://www.w3.org/2000/svg" xmlns:xlink="http://www.w3.org/1999/xlink" x="0px" y="0px" width="800px" height="800px" viewBox="0 0 800 800" enable-background="new 0 0 800 800" xml:space="preserve">
<g>
	<path fill="none" stroke="#000000" stroke-width="28" stroke-linecap="round" stroke-linejoin="round" stroke-miterlimit="10" d="
		M259,297.8c0-86.5,41.6-167.4,156.2-167.4c70.8,0,129.2,44.9,129.2,129.2c0,68.5-40.4,110.1-118,158.4l-124.7,78.6
		c-139.3,87.6-171.9,182-177.5,276.4h551.6V662.9H295c10.1-31.5,36-65.2,100-105.6l127-79.8c115.7-73,150.5-138.2,150.5-230.3
		C672.4,115.8,578.1,27,414,27c-201.1,0-271.9,138.2-271.9,257.3v13.5H259z"/>
</g>
</svg>
