<?xml version="1.0" encoding="utf-8"?>
<!-- Generator: Adobe Illustrator 19.1.0, SVG Export Plug-In . SVG Version: 6.00 Build 0)  -->
<!-- All rights reserved. Copyright: AnimatedSVG - ASVG © 2020 - https://animated-svg.com You may not reproduce, duplicate, copy or sell this intellectual property.  -->
<svg version="1.1" stroke="#000" id="Layer_1" xmlns="http://www.w3.org/2000/svg" xmlns:xlink="http://www.w3.org/1999/xlink" x="0px" y="0px"
	 width="800px" height="800px" viewBox="0 0 800 800" style="enable-background:new 0 0 800 800" xml:space="preserve">


<style type="text/css">
	.st0{fill:none;stroke-width:6;stroke-linecap:square;stroke-miterlimit:10;}
</style>
<g>
	<path class="st0" d="M227.4,466h31.4l19.6-86.9h0.4L299,466h32.2l35.1-132h-32.2l-19.2,83.2h-0.4L294.2,334h-31.4l-19.6,83.2h-0.4
		L223.2,334H191L227.4,466z"/>
	<path class="st0" d="M377.5,334h103.9v27.4H409v23.3h64.7v26.3H409v26.6h74.3V466H377.5V334z"/>
	<path class="st0" d="M497.3,334h60.5c17,0,45.8,3.9,45.8,33.3c0,12.6-7.8,22.9-14.6,27c8.1,3.3,20,12.8,20,32.2
		c0,27.9-20.9,39.6-47.9,39.6h-63.8V334z"/>
	<path class="st0" d="M528.8,439.7h26.8c9.4,0,22.7,0,22.7-15.2c0-15.3-13.3-15.3-22.7-15.3h-26.8V439.7z"/>
	<path class="st0" d="M528.8,386.3H553c8.7,0,20,0,20-12.9c0-13.1-11.3-13.1-20-13.1h-24.2V386.3z"/>
</g>
</svg>
