<?xml version="1.0" encoding="utf-8"?>
<!-- Generator: Adobe Illustrator 19.1.0, SVG Export Plug-In . SVG Version: 6.00 Build 0)  -->
<!-- All rights reserved. Copyright: AnimatedSVG - ASVG © 2020 - https://animated-svg.com You may not reproduce, duplicate, copy or sell this intellectual property.  -->
<svg version="1.1" stroke="#000" id="Layer_1" xmlns="http://www.w3.org/2000/svg" xmlns:xlink="http://www.w3.org/1999/xlink" x="0px" y="0px"
	 width="800px" height="800px" viewBox="0 0 800 800" style="enable-background:new 0 0 800 800" xml:space="preserve">

<style type="text/css">
	.st0{fill:none;stroke-width:6;stroke-linecap:square;stroke-miterlimit:10;}
</style>
<g>
	<path class="st0" d="M96.6,336.8h31.1l26.9,84.2h0.4l26.9-84.2h31.1l-42.6,126.3h-32.9L96.6,336.8z"/>
	<path class="st0" d="M225.5,336.8h30.1v126.3h-30.1V336.8z"/>
	<path class="st0" d="M274,418.8c1.6,33.4,22.5,47.2,54.5,47.2c38.6,0,52.7-19.6,52.7-42.1c0-20-13.4-29.5-29-33.8l-34.3-9.4
		c-6.9-1.9-9.9-4.4-9.9-10.1c0-9.7,9.9-12.6,18-12.6c19.5,0,20.7,12.7,21.4,18.8h29.4c-1.4-29-19.8-42.8-48.5-42.8
		c-30.8,0-49.7,16.3-49.7,39.5c0,24.6,21.9,30.8,29.2,32.9l28.7,8.1c8.5,2.5,14.7,5.1,14.7,12.2c0,9.7-6.2,15.2-21.6,15.2
		c-24.2,0-25.1-17-25.5-23.2H274z"/>
	<path class="st0" d="M400.2,336.8h30.1v126.3h-30.1V336.8z"/>
	<path class="st0" d="M574.9,400c0,40.2-26.5,66-62.3,66c-35.7,0-62.3-25.8-62.3-66c0-40.2,26.5-66,62.3-66
		C548.4,334,574.9,359.8,574.9,400z"/>
	<path class="st0" d="M544.9,400c0-30.3-17.3-40.9-32.2-40.9c-14.9,0-32.2,10.6-32.2,40.9c0,30.3,17.3,40.9,32.2,40.9
		C527.5,440.9,544.9,430.3,544.9,400z"/>
	<path class="st0" d="M595.3,336.8h29.4l49,75.6h0.4v-75.6h29.4v126.3h-30.1L625,386.7h-0.4v76.4h-29.4V336.8z"/>
</g>
</svg>
