<?xml version="1.0" encoding="utf-8"?>
<!-- Generator: Adobe Illustrator 19.1.0, SVG Export Plug-In . SVG Version: 6.00 Build 0)  -->
<!-- All rights reserved. Copyright: AnimatedSVG - ASVG © 2020 - https://animated-svg.com You may not reproduce, duplicate, copy or sell this intellectual property.  -->
<svg version="1.1" stroke="#000" id="Layer_1" xmlns="http://www.w3.org/2000/svg" xmlns:xlink="http://www.w3.org/1999/xlink" x="0px" y="0px" viewBox="0 0 800 800" style="enable-background:new 0 0 800 800" width="800px" height="800px" xml:space="preserve">
<g>
	<path fill="none" stroke-width="28" stroke-linecap="round" stroke-linejoin="round" stroke-miterlimit="10"    d="M742.6,328.8H57.4c-16.7,0-30.4-13.7-30.4-30.4V108.6c0-16.7,13.7-30.4,30.4-30.4h685.3
		c16.7,0,30.4,13.7,30.4,30.4l-87.7,84.8c-5.7,5.5-5.7,14.6,0,20.1l87.7,84.8C773,315.1,759.3,328.8,742.6,328.8z"/>
	<line fill="none" stroke-width="28" stroke-linecap="round" stroke-linejoin="round" stroke-miterlimit="10"    x1="49.7" y1="327.8" x2="288.5" y2="471.2"/>
	<line fill="none" stroke-width="28" stroke-linecap="round" stroke-linejoin="round" stroke-miterlimit="10"    x1="510.1" y1="328.8" x2="748.2" y2="471.7"/>
	<path fill="none" stroke-width="28" stroke-linecap="round" stroke-linejoin="round" stroke-miterlimit="10"    d="M57.4,471.2h685.3c16.7,0,30.4,13.7,30.4,30.4v189.8c0,16.7-13.7,30.4-30.4,30.4H57.4
		c-16.7,0-30.4-13.7-30.4-30.4l87.7-84.8c5.7-5.5,5.7-14.6,0-20.1L27,501.6C27,484.9,40.7,471.2,57.4,471.2z"/>
</g>
<g>
	<line fill="none" stroke-width="28" stroke-linecap="round" stroke-linejoin="round" stroke-miterlimit="10"    x1="116.7" y1="199.5" x2="115.7" y2="198.5"/>
	<g>
		<path fill="none" stroke-width="28" stroke-linecap="round" stroke-linejoin="round" stroke-miterlimit="10"    d="M203.7,197l35.1-0.1c6.2,0,11.9-0.6,17.4-3c3.7-1.7,7.4-4.4,10-7.1c2.1-2.4,3.7-5.3,4.6-8
			c3.6-10.3,3.7-21.2,2.4-31.3c-0.3-2.5-0.9-5.3-2.7-8.7c-1.3-2.6-2.8-5.8-6.7-8.5c-2.7-1.9-5.2-2.9-7.6-3.7
			c-3.7-1.3-6.8-2.2-9.5-2.3c-8-0.6-18.6-0.4-18.6-0.4h-24.4l0,0l-0.3,145.8l0.3,0.3l35.1-0.1c6.2,0,11.9-0.6,17.4-3
			c3.7-1.7,7.4-4.4,10-7.1c2.1-2.4,3.7-5.3,4.6-8c3.6-10.3,3.7-21.2,2.4-31.3c-0.3-2.5-0.9-5.3-2.7-8.7c-1.3-2.6-2.8-5.8-6.7-8.5
			c-2.7-1.9-5.2-2.9-7.6-3.7c-3.7-1.3-6.8-2.2-9.5-2.3c-8-0.6-18.6-0.4-18.6-0.4L203.7,197"/>
		<path fill="none" stroke-width="28" stroke-linecap="round" stroke-linejoin="round" stroke-miterlimit="10"    d="M409.2,196.2c0-56-10.3-72.2-43.7-72.3s-43.6,16.3-43.8,72.2c-0.1,56.6,10.7,73.9,43.7,73.8
			C398.5,270.1,409.3,252.6,409.2,196.2z"/>
		<polyline fill="none" stroke-width="28" stroke-linecap="round" stroke-linejoin="round" stroke-miterlimit="10"    points="459.2,269.9 459.4,123.9 467.6,123.9 535.1,269.9 542.5,270 542.5,123.9 		"/>
	</g>
	<line fill="none" stroke-width="28" stroke-linecap="round" stroke-linejoin="round" stroke-miterlimit="10"    x1="616.4" y1="199.5" x2="615.4" y2="198.5"/>
</g>
<g>
	<polyline fill="none" stroke-width="28" stroke-linecap="round" stroke-linejoin="round" stroke-miterlimit="10"    points="166.6,534.1 185.9,653.7 216.3,653.7 233.8,533.9 	"/>
	<path fill="none" stroke-width="28" stroke-linecap="round" stroke-linejoin="round" stroke-miterlimit="10"    d="M338.7,593.2c0-46-8.5-59.3-35.9-59.4s-35.8,13.4-35.9,59.3c0,46.4,8.8,60.6,35.9,60.6
		C329.9,653.8,338.8,639.5,338.7,593.2z"/>
	<g>
		<line fill="none" stroke-width="28" stroke-linecap="round" stroke-linejoin="round" stroke-miterlimit="10"    x1="402.9" y1="610.2" x2="402.9" y2="653.7"/>
		<polyline fill="none" stroke-width="28" stroke-linecap="round" stroke-linejoin="round" stroke-miterlimit="10"    points="435.8,534 408.7,610.2 397,610.2 370,533.9 		"/>
	</g>
	<g>
		<polyline fill="none" stroke-width="28" stroke-linecap="round" stroke-linejoin="round" stroke-miterlimit="10"    points="460.3,654.1 465,624.4 479.4,534.2 510.2,533.9 526.2,624.2 531.2,653.5 		"/>
		<line fill="none" stroke-width="28" stroke-linecap="round" stroke-linejoin="round" stroke-miterlimit="10"    x1="526.2" y1="624.2" x2="465" y2="624.4"/>
	</g>
	<path fill="none" stroke-width="28" stroke-linecap="round" stroke-linejoin="round" stroke-miterlimit="10"    d="M625.3,536.6c-2.6-0.5-6.6-1.2-11.3-1.6c-7.2-0.7-10.7-1.1-15.7-0.2c-6.7,1.2-11.2,3.6-12.5,4.5
		c-2.1,1.2-6.3,3.6-9.8,8.6c-2.9,3.9-3.9,7.3-5.5,12.3c-0.8,2.6-1.7,6.3-2.6,12.2c-0.2,2.4-1.2,8.7-1.2,19.9
		c-0.1,14.2,1,23.2,1.4,26.2c0.4,2.9,1.2,7.8,3.2,13.4c0.8,2.5,2,5.2,3.8,8.1c0.8,1.5,1.9,3.1,3.6,4.9c2.5,2.6,4.8,4.1,5.2,4.5
		c2.9,1.8,5.4,2.5,7.9,3.2c3.5,0.9,6.1,1.2,8.1,1.4c4.1,0.4,7.3,0.2,9.2,0.1c4.2-0.2,7.2-0.8,8-1.1c3.1-0.7,4.9-1.3,5.5-1.6
		c2.6-1.1,4.1-2.1,4.5-2.4c1.2-0.8,2.3-1.6,3-2.9c1.2-2.1,0.7-5.1,0.7-5.1l-0.2-47.4h-16.4"/>
	<g>
		<polyline fill="none" stroke-width="28" stroke-linecap="round" stroke-linejoin="round" stroke-miterlimit="10"    points="673.4,653.7 674.1,534.2 719.2,533.9 		"/>
		<line fill="none" stroke-width="28" stroke-linecap="round" stroke-linejoin="round" stroke-miterlimit="10"    x1="719.2" y1="654.1" x2="673.4" y2="653.7"/>
		<line fill="none" stroke-width="28" stroke-linecap="round" stroke-linejoin="round" stroke-miterlimit="10"    x1="719.6" y1="594.3" x2="673.7" y2="594"/>
	</g>
</g>
</svg>
