<?xml version="1.0" encoding="utf-8"?>
<!-- Generator: Adobe Illustrator 19.1.0, SVG Export Plug-In . SVG Version: 6.00 Build 0)  -->
<!-- All rights reserved. Copyright: AnimatedSVG - ASVG © 2020 - https://animated-svg.com You may not reproduce, duplicate, copy or sell this intellectual property.  -->
<svg version="1.1" stroke="#000" xmlns="http://www.w3.org/2000/svg" xmlns:xlink="http://www.w3.org/1999/xlink" x="0px" y="0px" viewBox="0 0 800 800" style="enable-background:new 0 0 800 800" width="800px" height="800px" xml:space="preserve">
<g>
	<g>
		<g>
			<path fill="none" stroke-width="26" stroke-linecap="round" stroke-linejoin="round" stroke-miterlimit="10"   class="st0" d="M667.3,170.1l35.5,35.1l0.2-0.2"/>
			<path fill="none" stroke-width="26" stroke-linecap="round" stroke-linejoin="round" stroke-miterlimit="10"   class="st0" d="M736.4,264.4l19.3,46l0.2-0.1"/>
			<path fill="none" stroke-width="26" stroke-linecap="round" stroke-linejoin="round" stroke-miterlimit="10"   class="st0" d="M773.1,377.4l-2.5,49.9h0.2"/>
			<path fill="none" stroke-width="26" stroke-linecap="round" stroke-linejoin="round" stroke-miterlimit="10"   class="st0" d="M749,494.7l-24.5,43.5l0.2,0.1"/>
			<path fill="none" stroke-width="26" stroke-linecap="round" stroke-linejoin="round" stroke-miterlimit="10"   class="st0" d="M677.6,588.9l-39.9,30l0.1,0.2"/>
			<path fill="none" stroke-width="26" stroke-linecap="round" stroke-linejoin="round" stroke-miterlimit="10"   class="st0" d="M586.2,647L543,671.9l0.1,0.2"/>
			<path fill="none" stroke-width="26" stroke-linecap="round" stroke-linejoin="round" stroke-miterlimit="10"   class="st0" d="M496.4,699l-0.1-0.2l-43.2,24.9"/>
			<path fill="none" stroke-width="26" stroke-linecap="round" stroke-linejoin="round" stroke-miterlimit="10"   class="st0" d="M397.9,752.6l0.1,0.2l-47.7,14.5"/>
			<path fill="none" stroke-width="26" stroke-linecap="round" stroke-linejoin="round" stroke-miterlimit="10"   class="st0" d="M280.7,771.9l-49.4-6.5v-0.2"/>
			<path fill="none" stroke-width="26" stroke-linecap="round" stroke-linejoin="round" stroke-miterlimit="10"   class="st0" d="M166,736.5l-40.8-28.7l0.1-0.2"/>
			<path fill="none" stroke-width="26" stroke-linecap="round" stroke-linejoin="round" stroke-miterlimit="10"   class="st0" d="M81.2,655.2l-25.5-42.8l-0.2,0.1"/>
			<path fill="none" stroke-width="26" stroke-linecap="round" stroke-linejoin="round" stroke-miterlimit="10"   class="st0" d="M33.5,547.9l-6.3-49.5H27"/>
			<path fill="none" stroke-width="26" stroke-linecap="round" stroke-linejoin="round" stroke-miterlimit="10"   class="st0" d="M35.7,427.7L53.3,381l-0.2-0.1"/>
			<path fill="none" stroke-width="26" stroke-linecap="round" stroke-linejoin="round" stroke-miterlimit="10"   class="st0" d="M92.7,323.4l35.5-35.1l-0.2-0.2"/>
			<path fill="none" stroke-width="26" stroke-linecap="round" stroke-linejoin="round" stroke-miterlimit="10"   class="st0" d="M181.7,254.4l43.2-24.9l0.1,0.2"/>
			<path fill="none" stroke-width="26" stroke-linecap="round" stroke-linejoin="round" stroke-miterlimit="10"   class="st0" d="M271.7,202.6l43.2-24.9l-0.1-0.2"/>
			<path fill="none" stroke-width="26" stroke-linecap="round" stroke-linejoin="round" stroke-miterlimit="10"   class="st0" d="M361.5,150.7c0,0,19.4-11.4,44.7-26.3"/>
		</g>
		<path fill="none" stroke-width="22" stroke-linecap="round" stroke-linejoin="round" stroke-miterlimit="10"  d="M482.2,83.8c1.8-0.7,3.7-1.3,5.6-2c6.2-2.2,13.1-4.7,19.1-7.6c1.3-0.7,2.8-0.8,4.3-0.4
			c0.4,0.1,0.8,0.3,1.3,0.5c1.7,0.9,3,2.5,3.3,4.4l6.5,36.4l5.2-48.5c0.2-1.9,1.3-3.6,2.9-4.6c0.5-0.3,0.8-0.5,1.1-0.6
			c0.2-0.1,0.5-0.3,0.7-0.4c4.1-2.4,12.7-7.5,20.2-13.2c9.9-7.6,11.6-11.5,11.9-12.6c-1.1-0.3-5.4-0.7-16.8,4.4
			c-8.6,3.8-17.2,8.9-21.3,11.4c-0.3,0.2-0.6,0.4-0.9,0.5c0,0-0.3,0.2-0.7,0.4c-1.7,1-3.8,1.2-5.6,0.5l-45.4-18.7L503,57.4
			c1.5,1.2,2.3,3.1,2.3,5c-0.1,1.9-1,3.7-2.6,4.8c-7.1,5-14.4,11.1-20.6,16.5l-3.1,1.8c-0.9,0.2-1.8,0.2-2.7,0l-13.1-2.8l10.8,18.2
			l3.9-12.9c0.3-0.9,0.7-1.7,1.3-2.3L482.2,83.8z"/>
	</g>
	<g>
		<path fill="none" stroke-width="26" stroke-linecap="round" stroke-linejoin="round" stroke-miterlimit="10"    d="M195.3,444.5L163,463.1l0,0l-25.5-44.6l22.6-13.1c20.1-11.6,35-10.9,44.1-0.1
			C214.9,418.2,209.5,434.7,195.3,444.5c14.4-7.4,29.9-6.9,39,4c11.5,13.7,12.2,33.2-18.3,50.8l-24.2,14L163,463.1"/>
		<path fill="none" stroke-width="26" stroke-linecap="round" stroke-linejoin="round" stroke-miterlimit="10"    d="M327.8,351c18.3,21.9,36,64.7-3.4,87.5C304,450.2,283.9,446,268,427c-18.6-22.2-34.5-65.8,3-87.4
			C291.5,327.8,311.7,331.7,327.8,351z"/>
		<path fill="none" stroke-width="26" stroke-linecap="round" stroke-linejoin="round" stroke-miterlimit="10"    d="M442.8,284.5c18.3,21.9,36,64.7-3.4,87.5c-20.3,11.7-40.5,7.6-56.4-11.4c-18.6-22.2-34.5-65.8,3-87.4
			C406.5,261.4,426.7,265.3,442.8,284.5z"/>
		<path fill="none" stroke-width="26" stroke-linecap="round" stroke-linejoin="round" stroke-miterlimit="10"    d="M463.9,230.1l54.5,94.4 M516.7,199.5L490.3,273l83.1,19.9"/>
		<path fill="none" stroke-width="26" stroke-linecap="round" stroke-linejoin="round" stroke-miterlimit="10"    d="M281.7,665.6l-54.1-94.9l113.6,59.8L330.7,612l-43.4-75.8"/>
		<path fill="none" stroke-width="26" stroke-linecap="round" stroke-linejoin="round" stroke-miterlimit="10"    d="M432,495c18.3,21.9,36,64.7-3.4,87.5c-20.3,11.7-40.5,7.6-56.4-11.4c-18.6-22.2-34.5-65.8,3-87.4
			C395.7,471.8,415.9,475.7,432,495z"/>
		<path fill="none" stroke-width="26" stroke-linecap="round" stroke-linejoin="round" stroke-miterlimit="10"    d="M456.8,438.4l78.5,80.4L509.4,408l81.6,78.4L561.3,378"/>
		<path fill="none" stroke-width="26" stroke-linecap="round" stroke-linejoin="round" stroke-miterlimit="10"    d="M606.8,351.8l32.3,56.3 M662.5,446c-0.1,0.8-0.6,1.5-1.4,1.5c-0.8-0.1-1.5-0.6-1.5-1.4
			c0.1-0.8,0.6-1.5,1.4-1.5c0.7,0,1.3,0.4,1.5,1.2"/>
	</g>
</g>
</svg>
