<?xml version="1.0" encoding="utf-8"?>
<!-- Generator: Adobe Illustrator 19.1.0, SVG Export Plug-In . SVG Version: 6.00 Build 0)  -->
<!-- All rights reserved. Copyright: AnimatedSVG - ASVG © 2020 - https://animated-svg.com You may not reproduce, duplicate, copy or sell this intellectual property.  -->
<svg version="1.1" stroke="#000" id="Layer_1" xmlns="http://www.w3.org/2000/svg" xmlns:xlink="http://www.w3.org/1999/xlink" x="0px" y="0px" viewBox="0 0 800 800" style="enable-background:new 0 0 800 800" width="800px" height="800px" xml:space="preserve">
<g>
	<g>
		<g>
			<polygon fill="none" stroke-width="28" stroke-linecap="round" stroke-linejoin="round" stroke-miterlimit="10"    points="611.3,773 630.3,604.1 433.6,604.1 457.8,773 			"/>
			<path fill="none" stroke-width="28" stroke-linecap="round" stroke-linejoin="round" stroke-miterlimit="10"    d="M433.6,605.5c-2.2-6.7,0-16.2,0-23.4c0-44.6,44-80.8,98.3-80.8c54.3,0,98.3,36.2,98.3,80.8
				c0,5.6,2,37.2,0,30.1"/>
		</g>
		<g>
			<line fill="none" stroke-width="28" stroke-linecap="round" stroke-linejoin="round" stroke-miterlimit="10"    x1="544" y1="600.1" x2="428.4" y2="445.9"/>
			<path fill="none" stroke-width="28" stroke-linecap="round" stroke-linejoin="round" stroke-miterlimit="10"    d="M346.2,423.3l29.2,37.4c6.1,7.8,17.7,9.4,25.7,3.4l52.3-38.7c8-5.9,9.6-17.2,3.5-25L427.7,363L346.2,423.3z"
				/>
		</g>
	</g>
	<g id="Layer_1_1_">
		<g>
			<g>
				<path fill="none" stroke-width="28" stroke-linecap="round" stroke-linejoin="round" stroke-miterlimit="10"    d="M335.2,624.1c0,82.3-66.7,148.9-148.9,148.9c-82.3,0-148.9-66.7-148.9-148.9c0-58.5,36.9-110.5,83.9-134
					c8.7-4.3,32.9-16.1,64.9-14.9C250.3,477.7,335.2,532.2,335.2,624.1z"/>
				<path fill="none" stroke-width="28" stroke-linecap="round" stroke-linejoin="round" stroke-miterlimit="10"    d="M108.5,500.3C204.7,520.9,303,621.1,292,719.1"/>
				<path fill="none" stroke-width="28" stroke-linecap="round" stroke-linejoin="round" stroke-miterlimit="10"    d="M239.5,487.9c1,38.9-12,75.5-26.8,110.9C189.5,653.4,167,708.1,136.3,759"/>
				<path fill="none" stroke-width="28" stroke-linecap="round" stroke-linejoin="round" stroke-miterlimit="10"    d="M315.1,567.7c-51-9.9-104.4-5.1-154.1,9.4c-43.3,12.7-93.7,29.3-122.5,66.3"/>
			</g>
		</g>
	</g>
	<g>
		<circle fill="none" stroke-width="28" stroke-linecap="round" stroke-linejoin="round" stroke-miterlimit="10"    cx="585.6" cy="203.8" r="86.4"/>
		<line fill="none" stroke-width="28" stroke-linecap="round" stroke-linejoin="round" stroke-miterlimit="10"    x1="585.6" y1="81" x2="585.6" y2="27"/>
		<line fill="none" stroke-width="28" stroke-linecap="round" stroke-linejoin="round" stroke-miterlimit="10"    x1="585.6" y1="380.4" x2="585.6" y2="326.5"/>
		<line fill="none" stroke-width="28" stroke-linecap="round" stroke-linejoin="round" stroke-miterlimit="10"    x1="708.4" y1="203.8" x2="762.5" y2="203.8"/>
		<line fill="none" stroke-width="28" stroke-linecap="round" stroke-linejoin="round" stroke-miterlimit="10"    x1="409" y1="203.8" x2="462.9" y2="203.8"/>
		<line fill="none" stroke-width="28" stroke-linecap="round" stroke-linejoin="round" stroke-miterlimit="10"    x1="672" y1="117.5" x2="699" y2="90.4"/>
		<line fill="none" stroke-width="28" stroke-linecap="round" stroke-linejoin="round" stroke-miterlimit="10"    x1="472.4" y1="317.1" x2="499.4" y2="290.2"/>
		<line fill="none" stroke-width="28" stroke-linecap="round" stroke-linejoin="round" stroke-miterlimit="10"    x1="672" y1="290.2" x2="699" y2="317.1"/>
		<line fill="none" stroke-width="28" stroke-linecap="round" stroke-linejoin="round" stroke-miterlimit="10"    x1="472.4" y1="90.4" x2="499.4" y2="117.5"/>
	</g>
	<path fill="none" stroke-width="28" stroke-linecap="round" stroke-linejoin="round" stroke-miterlimit="10"    d="M39.7,190.5c24.3-13,50.2-16,72.4-11.9c1.8-24.7,10.2-50.2,25.7-73.2"/>
	<path fill="none" stroke-width="28" stroke-linecap="round" stroke-linejoin="round" stroke-miterlimit="10"    d="M319.2,169.3c-22.9,11.4-38.9,29.9-47.3,49.7c-20.3-13.3-44.8-21.9-70.9-23.3"/>
</g>
</svg>
