<?xml version="1.0" encoding="utf-8"?>
<!-- Generator: Adobe Illustrator 19.1.0, SVG Export Plug-In . SVG Version: 6.00 Build 0)  -->
<!-- All rights reserved. Copyright: AnimatedSVG - ASVG © 2020 - https://animated-svg.com You may not reproduce, duplicate, copy or sell this intellectual property.  -->
<svg version="1.1" stroke="#000" id="Layer_1" xmlns="http://www.w3.org/2000/svg" xmlns:xlink="http://www.w3.org/1999/xlink" x="0px" y="0px" viewBox="0 0 800 800" style="enable-background:new 0 0 800 800" width="800px" height="800px" xml:space="preserve">

<g>
	<g>
		<circle fill="none" stroke-width="28" stroke-linecap="round" stroke-linejoin="round" stroke-miterlimit="10"    cx="595.5" cy="220.8" r="85.5"/>
		<line fill="none" stroke-width="28" stroke-linecap="round" stroke-linejoin="round" stroke-miterlimit="10"    x1="595.5" y1="99.3" x2="595.5" y2="45.9"/>
		<line fill="none" stroke-width="28" stroke-linecap="round" stroke-linejoin="round" stroke-miterlimit="10"    x1="595.5" y1="395.7" x2="595.5" y2="342.3"/>
		<line fill="none" stroke-width="28" stroke-linecap="round" stroke-linejoin="round" stroke-miterlimit="10"    x1="717" y1="220.8" x2="770.5" y2="220.8"/>
		<line fill="none" stroke-width="28" stroke-linecap="round" stroke-linejoin="round" stroke-miterlimit="10"    x1="420.6" y1="220.8" x2="474" y2="220.8"/>
		<line fill="none" stroke-width="28" stroke-linecap="round" stroke-linejoin="round" stroke-miterlimit="10"    x1="681" y1="135.4" x2="707.7" y2="108.6"/>
		<line fill="none" stroke-width="28" stroke-linecap="round" stroke-linejoin="round" stroke-miterlimit="10"    x1="483.4" y1="333" x2="510.1" y2="306.3"/>
		<line fill="none" stroke-width="28" stroke-linecap="round" stroke-linejoin="round" stroke-miterlimit="10"    x1="681" y1="306.3" x2="707.7" y2="333"/>
		<line fill="none" stroke-width="28" stroke-linecap="round" stroke-linejoin="round" stroke-miterlimit="10"    x1="483.4" y1="108.6" x2="510.1" y2="135.4"/>
	</g>
	<path fill="none" stroke-width="28" stroke-linecap="round" stroke-linejoin="round" stroke-miterlimit="10"    d="M27,717.5c87.9,37.7,180.4,51.2,272.5,17.1c13.8-5.1,29-12.3,59-26.3c100.9-47.4,200.1-70.6,307.8-32.6
		c36.8,13,72.5,28.6,106.7,47.5"/>
	<path fill="none" stroke-width="28" stroke-linecap="round" stroke-linejoin="round" stroke-miterlimit="10"    d="M27,552.2c89.4,39.4,183.7,54.1,277.7,19.4c13.8-5.1,29-12.3,59-26.3c100.9-47.4,200.1-70.6,307.8-32.6
		c34.9,12.3,69,27.1,101.5,44.6"/>
	<path fill="none" stroke-width="28" stroke-linecap="round" stroke-linejoin="round" stroke-miterlimit="10"    d="M27,631.7c91.9,45.7,191.5,45.9,287.2,12.3c88.4-31,158.6-84.2,257-71.7c67,8.5,138.4,33,201.7,64.9"/>
	<path fill="none" stroke-width="28" stroke-linecap="round" stroke-linejoin="round" stroke-miterlimit="10"    d="M52.6,276.2c26.6-7.3,52.5-4.5,73.2,4.4c7.2-23.7,21.1-46.7,41.3-65.7"/>
	<path fill="none" stroke-width="28" stroke-linecap="round" stroke-linejoin="round" stroke-miterlimit="10"    d="M329.9,317.6c-24.9,6-44.6,20.5-57.2,38c-16.8-17.5-38.8-31.3-64-38.5"/>
</g>
</svg>
