<?xml version="1.0" encoding="utf-8"?>
<!-- Generator: Adobe Illustrator 19.1.0, SVG Export Plug-In . SVG Version: 6.00 Build 0)  -->
<!-- All rights reserved. Copyright: AnimatedSVG - ASVG © 2020 - https://animated-svg.com You may not reproduce, duplicate, copy or sell this intellectual property.  -->
<svg version="1.1" stroke="#000" id="Layer_1" xmlns="http://www.w3.org/2000/svg" xmlns:xlink="http://www.w3.org/1999/xlink" x="0px" y="0px" viewBox="0 0 800 800" style="enable-background:new 0 0 800 800" width="800px" height="800px" xml:space="preserve">
<g>
	<g>
		<path fill="none" stroke-width="28" stroke-linecap="round" stroke-linejoin="round" stroke-miterlimit="10"    d="M373.7,170.4c88.4,0,160.1,71,160.2,158.8s-71.6,159-160,159S213.8,417,213.8,329.3
			C213.6,241.6,285.3,170.5,373.7,170.4z"/>
		<line fill="none" stroke-width="28" stroke-linecap="round" stroke-linejoin="round" stroke-miterlimit="10"    x1="373.8" y1="171" x2="373.8" y2="487.7"/>
		<line fill="none" stroke-width="28" stroke-linecap="round" stroke-linejoin="round" stroke-miterlimit="10"    x1="533.3" y1="329.2" x2="214.3" y2="329.3"/>
		<path fill="none" stroke-width="28" stroke-linecap="round" stroke-linejoin="round" stroke-miterlimit="10"    d="M363.4,171c0,0-72,56.2-71.9,158.3c0,102.1,72.1,158.3,72.1,158.3"/>
		<path fill="none" stroke-width="28" stroke-linecap="round" stroke-linejoin="round" stroke-miterlimit="10"    d="M384,171c0,0,72.1,56.2,72.1,158.3c0,102.1-71.9,158.3-71.9,158.3"/>
		<line fill="none" stroke-width="28" stroke-linecap="round" stroke-linejoin="round" stroke-miterlimit="10"    x1="520" y1="262.5" x2="227.6" y2="262.5"/>
		<line fill="none" stroke-width="28" stroke-linecap="round" stroke-linejoin="round" stroke-miterlimit="10"    x1="520" y1="396.1" x2="227.6" y2="396.1"/>
	</g>
	<g>
		<polygon fill="none" stroke-width="28" stroke-linecap="round" stroke-linejoin="round" stroke-miterlimit="10"    points="623.3,772.7 118.6,773 118.3,75.7 623,75.5 		"/>
		<polyline fill="none" stroke-width="28" stroke-linecap="round" stroke-linejoin="round" stroke-miterlimit="10"    points="118.3,75.7 681.7,27 681.4,724.1 623.3,724.1 		"/>
		<g>
			<line fill="none" stroke-width="28" stroke-linecap="round" stroke-linejoin="round" stroke-miterlimit="10"    x1="209.7" y1="604.7" x2="505.9" y2="604.6"/>
			<line fill="none" stroke-width="28" stroke-linecap="round" stroke-linejoin="round" stroke-miterlimit="10"    x1="209.7" y1="666.8" x2="505.8" y2="666.7"/>
		</g>
	</g>
</g>
</svg>
