<?xml version="1.0" encoding="utf-8"?>
<!-- Generator: Adobe Illustrator 19.1.0, SVG Export Plug-In . SVG Version: 6.00 Build 0)  -->
<!-- All rights reserved. Copyright: AnimatedSVG - ASVG © 2020 - https://animated-svg.com You may not reproduce, duplicate, copy or sell this intellectual property.  -->
<svg version="1.1" stroke="#000" xmlns="http://www.w3.org/2000/svg" xmlns:xlink="http://www.w3.org/1999/xlink" x="0px" y="0px" viewBox="0 0 800 800" style="enable-background:new 0 0 800 800" width="800px" height="800px" xml:space="preserve">
<g>
	<g>
		<g>
			<path fill="none" stroke-width="26" stroke-linecap="round" stroke-linejoin="round" stroke-miterlimit="10"   class="st0" d="M132.7,170.1l-35.5,35.1L97,205"/>
			<path fill="none" stroke-width="26" stroke-linecap="round" stroke-linejoin="round" stroke-miterlimit="10"   class="st0" d="M63.6,264.3l-19.3,46l-0.2-0.1"/>
			<path fill="none" stroke-width="26" stroke-linecap="round" stroke-linejoin="round" stroke-miterlimit="10"   class="st0" d="M27,377.4l2.5,49.9h-0.2"/>
			<path fill="none" stroke-width="26" stroke-linecap="round" stroke-linejoin="round" stroke-miterlimit="10"   class="st0" d="M51,494.8l24.5,43.5l-0.2,0.1"/>
			<path fill="none" stroke-width="26" stroke-linecap="round" stroke-linejoin="round" stroke-miterlimit="10"   class="st0" d="M122.5,588.9l39.9,30l-0.1,0.2"/>
			<path fill="none" stroke-width="26" stroke-linecap="round" stroke-linejoin="round" stroke-miterlimit="10"   class="st0" d="M213.8,646.9l43.2,24.9l-0.1,0.2"/>
			<path fill="none" stroke-width="26" stroke-linecap="round" stroke-linejoin="round" stroke-miterlimit="10"   class="st0" d="M303.6,699l0.1-0.2l43.2,24.9"/>
			<path fill="none" stroke-width="26" stroke-linecap="round" stroke-linejoin="round" stroke-miterlimit="10"   class="st0" d="M402.1,752.6l-0.1,0.2l47.7,14.5"/>
			<path fill="none" stroke-width="26" stroke-linecap="round" stroke-linejoin="round" stroke-miterlimit="10"   class="st0" d="M519.3,771.9l49.4-6.5v-0.2"/>
			<path fill="none" stroke-width="26" stroke-linecap="round" stroke-linejoin="round" stroke-miterlimit="10"   class="st0" d="M634,736.5l40.8-28.7l-0.1-0.2"/>
			<path fill="none" stroke-width="26" stroke-linecap="round" stroke-linejoin="round" stroke-miterlimit="10"   class="st0" d="M718.8,655.1l25.5-42.8l0.2,0.1"/>
			<path fill="none" stroke-width="26" stroke-linecap="round" stroke-linejoin="round" stroke-miterlimit="10"   class="st0" d="M766.5,547.9l6.3-49.5h0.2"/>
			<path fill="none" stroke-width="26" stroke-linecap="round" stroke-linejoin="round" stroke-miterlimit="10"   class="st0" d="M764.4,427.7L746.7,381l0.2-0.1"/>
			<path fill="none" stroke-width="26" stroke-linecap="round" stroke-linejoin="round" stroke-miterlimit="10"   class="st0" d="M707.3,323.5l-35.5-35.1l0.2-0.2"/>
			<path fill="none" stroke-width="26" stroke-linecap="round" stroke-linejoin="round" stroke-miterlimit="10"   class="st0" d="M618.3,254.4L575,229.5l-0.1,0.2"/>
			<path fill="none" stroke-width="26" stroke-linecap="round" stroke-linejoin="round" stroke-miterlimit="10"   class="st0" d="M528.3,202.7l-43.2-24.9l0.1-0.2"/>
			<path fill="none" stroke-width="26" stroke-linecap="round" stroke-linejoin="round" stroke-miterlimit="10"   class="st0" d="M438.5,150.7c0,0-19.4-11.3-44.7-26.3"/>
		</g>
		<path fill="none" stroke-width="21" stroke-linecap="round" stroke-linejoin="round" stroke-miterlimit="10"    d="M320.9,85.7c0.6,0.7,1,1.4,1.3,2.3l3.9,12.9l10.8-18.2l-13.1,2.8c-0.9,0.2-1.8,0.2-2.7,0l-3.1-1.8
			c-6.3-5.4-13.5-11.5-20.6-16.5c-1.6-1.1-2.6-2.9-2.6-4.8c-0.1-1.9,0.8-3.8,2.3-5l29.4-23.8l-45.4,18.7c-1.8,0.8-3.9,0.6-5.6-0.5
			c-0.4-0.3-0.7-0.4-0.7-0.4c-0.3-0.2-0.5-0.3-0.9-0.5c-4.1-2.4-12.6-7.5-21.3-11.4c-11.4-5.1-15.7-4.7-16.8-4.4
			c0.3,1.1,2,5,11.9,12.6c7.5,5.7,16,10.8,20.2,13.2c0.3,0.2,0.5,0.3,0.7,0.4c0.2,0.1,0.6,0.3,1.1,0.6c1.6,1,2.7,2.7,2.9,4.6
			l5.2,48.5l6.5-36.4c0.3-1.9,1.6-3.5,3.3-4.4c0.4-0.2,0.8-0.4,1.3-0.5c1.4-0.4,2.9-0.2,4.3,0.4c5.9,2.9,12.9,5.4,19.1,7.6
			c2,0.7,3.8,1.4,5.6,2L320.9,85.7z"/>
	</g>
	<g>
		<path fill="none" stroke-width="26" stroke-linecap="round" stroke-linejoin="round" stroke-miterlimit="10"    d="M287.6,261.7l-32.2-18.6l0,0l25.9-44.4l22.6,13.1c20.1,11.6,27,24.8,22.1,38.2
			C320.3,265.6,303.3,269.1,287.6,261.7c13.6,8.8,20.9,22.5,16.1,35.8c-6.1,16.8-22.6,27.2-53.1,9.6l-24.2-14l29.1-50"/>
		<path fill="none" stroke-width="26" stroke-linecap="round" stroke-linejoin="round" stroke-miterlimit="10"    d="M434.9,329.7c-9.8,26.8-38.1,63.5-77.5,40.8c-20.3-11.7-26.8-31.2-18.3-54.5c9.9-27.3,39.7-62.7,77.2-41.1
			C436.8,286.7,443.5,306.1,434.9,329.7z"/>
		<path fill="none" stroke-width="26" stroke-linecap="round" stroke-linejoin="round" stroke-miterlimit="10"    d="M550,396.1c-9.8,26.8-38.1,63.5-77.5,40.8c-20.3-11.7-26.8-31.2-18.3-54.5c9.9-27.3,39.7-62.7,77.2-41.1
			C551.9,353.1,558.6,372.5,550,396.1z"/>
		<path fill="none" stroke-width="26" stroke-linecap="round" stroke-linejoin="round" stroke-miterlimit="10"    d="M607.7,387.2l-54.5,94.4 M660.5,417.6l-76.7,13.9l24.3,81.9"/>
		<path fill="none" stroke-width="26" stroke-linecap="round" stroke-linejoin="round" stroke-miterlimit="10"    d="M139.4,447.1l55.1-94.3l5,128.2l10.8-18.3l44-75.5"/>
		<path fill="none" stroke-width="26" stroke-linecap="round" stroke-linejoin="round" stroke-miterlimit="10"    d="M362.3,492c-9.8,26.8-38.1,63.5-77.5,40.8c-20.3-11.7-26.8-31.2-18.3-54.5c9.9-27.3,39.7-62.7,77.2-41.1
			C364.2,448.9,370.9,468.4,362.3,492z"/>
		<path fill="none" stroke-width="26" stroke-linecap="round" stroke-linejoin="round" stroke-miterlimit="10"    d="M423.8,485.2l-30.4,108.2l83-77.8l-27.1,109.9l79-79.9"/>
		<path fill="none" stroke-width="26" stroke-linecap="round" stroke-linejoin="round" stroke-miterlimit="10"    d="M573.7,571.7l-32.6,56.2 M520,667.1c-0.8,0.4-1.6,0.2-2-0.5c-0.4-0.8-0.2-1.6,0.5-2c0.8-0.4,1.6-0.2,2,0.5
			c0.3,0.6,0.3,1.4-0.3,1.9"/>
	</g>
</g>
</svg>
