<?xml version="1.0" encoding="utf-8"?>
<!-- Generator: Adobe Illustrator 19.1.0, SVG Export Plug-In . SVG Version: 6.00 Build 0)  -->
<!-- All rights reserved. Copyright: AnimatedSVG - ASVG © 2020 - https://animated-svg.com You may not reproduce, duplicate, copy or sell this intellectual property.  -->
<svg version="1.1" stroke="#000" id="Layer_1" xmlns="http://www.w3.org/2000/svg" xmlns:xlink="http://www.w3.org/1999/xlink" x="0px" y="0px" viewBox="0 0 800 800" style="enable-background:new 0 0 800 800" width="800px" height="800px" xml:space="preserve">
<g>
	<path fill="none" stroke-width="28" stroke-linecap="round" stroke-linejoin="round" stroke-miterlimit="10"  d="M27,185.1l36.7-36.7L481.9,208c2.7-2.8,4.4-4.5,4.4-4.5c40.6-40.6,218.2-222.8,275.6-165.4
		c57.4,57.4-124.8,235-165.4,275.6c0,0-1.8,1.6-4.5,4.4l59.7,418.2L614.9,773L461.5,435.4c-45.8,39.3-102.4,74.4-146.6,105
		l-6.2,146.8L271.9,724l-61.2-134.7L76,528.1l36.7-36.8l146.8-6.1c30.7-44.2,68.8-97.8,108.1-143.6L27,185.1z"/>
</g>
</svg>
