<?xml version="1.0" encoding="utf-8"?>
<!-- Generator: Adobe Illustrator 19.1.0, SVG Export Plug-In . SVG Version: 6.00 Build 0)  -->
<!-- All rights reserved. Copyright: AnimatedSVG - ASVG © 2020 - https://animated-svg.com You may not reproduce, duplicate, copy or sell this intellectual property.  -->
<svg version="1.1" stroke="#000" id="Layer_1" xmlns="http://www.w3.org/2000/svg" xmlns:xlink="http://www.w3.org/1999/xlink" x="0px" y="0px" viewBox="0 0 800 800" style="enable-background:new 0 0 800 800" width="800px" height="800px" xml:space="preserve">

<g>
	<circle fill="none" stroke-width="28" stroke-linecap="round" stroke-linejoin="round" stroke-miterlimit="10"  cx="263.8" cy="662.1" r="52.8"/>
	<g>
		<g>
			<line fill="none" stroke-width="28" stroke-linecap="round" stroke-linejoin="round" stroke-miterlimit="10"  x1="263.8" y1="609.3" x2="263.8" y2="127.3"/>
			<circle fill="none" stroke-width="28" stroke-linecap="round" stroke-linejoin="round" stroke-miterlimit="10"  cx="263.8" cy="662.1" r="52.8"/>
		</g>
		<path fill="none" stroke-width="28" stroke-linecap="round" stroke-linejoin="round" stroke-miterlimit="10"  d="M318.3,564.2c34,19.1,57.1,55.6,57.1,97.3c0,61.5-50,111.5-111.5,111.5c-61.5,0-111.5-50-111.5-111.5
			c0-41.7,23-78.2,57.1-97.3l0.1,0.2V81.3c0-30,24.3-54.3,54.3-54.3h0c30,0,54.3,24.3,54.3,54.3v483.1L318.3,564.2z"/>
	</g>
	<g>
		<line fill="none" stroke-width="28" stroke-linecap="round" stroke-linejoin="round" stroke-miterlimit="10"  x1="384.4" y1="133.9" x2="477.8" y2="133.9"/>
		<line fill="none" stroke-width="28" stroke-linecap="round" stroke-linejoin="round" stroke-miterlimit="10"  x1="384.4" y1="214.5" x2="435.2" y2="214.5"/>
		<line fill="none" stroke-width="28" stroke-linecap="round" stroke-linejoin="round" stroke-miterlimit="10"  x1="384.4" y1="295" x2="477.8" y2="295"/>
		<line fill="none" stroke-width="28" stroke-linecap="round" stroke-linejoin="round" stroke-miterlimit="10"  x1="384.4" y1="375.5" x2="435.2" y2="375.5"/>
		<line fill="none" stroke-width="28" stroke-linecap="round" stroke-linejoin="round" stroke-miterlimit="10"  x1="384.4" y1="454.7" x2="477.8" y2="454.7"/>
	</g>
	<g>
		<line fill="none" stroke-width="28" stroke-linecap="round" stroke-linejoin="round" stroke-miterlimit="10"  x1="667.9" y1="635.8" x2="568.3" y2="635.7"/>
		<polyline fill="none" stroke-width="28" stroke-linecap="round" stroke-linejoin="round" stroke-miterlimit="10"  points="568.5,732 568.3,539.1 667.9,539.2 		"/>
	</g>
	<path fill="none" stroke-width="28" stroke-linecap="round" stroke-linejoin="round" stroke-miterlimit="10"  d="M451,553.7c1.8-30,9.4-39.7,31.3-39c22.1,0.7,28.4,10.9,26.6,40.9c-1.6,28.1-6.5,42.4-31.5,41.7
		C452.4,596.4,449.3,582,451,553.7z"/>
</g>
</svg>
