<?xml version="1.0" encoding="utf-8"?>
<!-- Generator: Adobe Illustrator 19.1.0, SVG Export Plug-In . SVG Version: 6.00 Build 0)  -->
<!-- All rights reserved. Copyright: AnimatedSVG - ASVG © 2020 - https://animated-svg.com You may not reproduce, duplicate, copy or sell this intellectual property.  -->
<svg version="1.1" stroke="#000" id="Layer_1" xmlns="http://www.w3.org/2000/svg" xmlns:xlink="http://www.w3.org/1999/xlink" x="0px" y="0px" viewBox="0 0 800 800" style="enable-background:new 0 0 800 800" width="800px" height="800px" xml:space="preserve">

<g>
	<circle fill="none" stroke-width="28" stroke-linecap="round" stroke-linejoin="round" stroke-miterlimit="10"  cx="263.8" cy="662.1" r="52.8"/>
	<g>
		<g>
			<line fill="none" stroke-width="28" stroke-linecap="round" stroke-linejoin="round" stroke-miterlimit="10"  x1="263.8" y1="609.3" x2="263.8" y2="127.3"/>
			<circle fill="none" stroke-width="28" stroke-linecap="round" stroke-linejoin="round" stroke-miterlimit="10"  cx="263.8" cy="662.1" r="52.8"/>
		</g>
		<path fill="none" stroke-width="28" stroke-linecap="round" stroke-linejoin="round" stroke-miterlimit="10"  d="M318.3,564.2c34,19.1,57.1,55.6,57.1,97.3c0,61.5-50,111.5-111.5,111.5c-61.5,0-111.5-50-111.5-111.5
			c0-41.7,23-78.2,57.1-97.3l0.1,0.2V81.3c0-30,24.3-54.3,54.3-54.3h0c30,0,54.3,24.3,54.3,54.3v483.1L318.3,564.2z"/>
	</g>
	<g>
		<line fill="none" stroke-width="28" stroke-linecap="round" stroke-linejoin="round" stroke-miterlimit="10"  x1="384.4" y1="133.9" x2="477.8" y2="133.9"/>
		<line fill="none" stroke-width="28" stroke-linecap="round" stroke-linejoin="round" stroke-miterlimit="10"  x1="384.4" y1="214.5" x2="435.2" y2="214.5"/>
		<line fill="none" stroke-width="28" stroke-linecap="round" stroke-linejoin="round" stroke-miterlimit="10"  x1="384.4" y1="295" x2="477.8" y2="295"/>
		<line fill="none" stroke-width="28" stroke-linecap="round" stroke-linejoin="round" stroke-miterlimit="10"  x1="384.4" y1="375.5" x2="435.2" y2="375.5"/>
		<line fill="none" stroke-width="28" stroke-linecap="round" stroke-linejoin="round" stroke-miterlimit="10"  x1="384.4" y1="454.7" x2="477.8" y2="454.7"/>
	</g>
	<g>
		<path fill="none" stroke-width="28" stroke-linecap="round" stroke-linejoin="round" stroke-miterlimit="10"  d="M647.3,539.8c-7.4-0.6-13.5-1-18.5-1.1c-10.8-0.1-17.1-0.2-25.3,1.3c-30.3,5.5-45.8,22.5-52.8,43
			c-0.8,2.5-3.3,9.9-5.1,20.6c-4.5,26.4-4.3,56.5,4.8,82.5c1.5,4.4,3.4,9.4,7.8,15.5c14,18.8,39.8,26.2,68.5,26.2
			c6.6,0,14.3-0.2,22.9-0.9"/>
		<path fill="none" stroke-width="28" stroke-linecap="round" stroke-linejoin="round" stroke-miterlimit="10"  d="M451.9,553.1c1.8-29.4,9.3-39,31.3-38.3c22,0.6,28.4,10.7,26.6,40.1c-1.6,27.6-6.5,41.6-31.5,40.9
			C453.4,594.9,450.3,580.8,451.9,553.1z"/>
	</g>
</g>
</svg>
