<?xml version="1.0" encoding="utf-8"?>
<!-- Generator: Adobe Illustrator 19.1.0, SVG Export Plug-In . SVG Version: 6.00 Build 0)  -->
<!-- All rights reserved. Copyright: AnimatedSVG - ASVG © 2020 - https://animated-svg.com You may not reproduce, duplicate, copy or sell this intellectual property.  -->
<svg version="1.1" stroke="#000" id="Layer_1" xmlns="http://www.w3.org/2000/svg" xmlns:xlink="http://www.w3.org/1999/xlink" x="0px" y="0px" viewBox="0 0 800 800" style="enable-background:new 0 0 800 800" width="800px" height="800px" xml:space="preserve">

<g>
	<line fill="none" stroke-width="28" stroke-linecap="round" stroke-linejoin="round" stroke-miterlimit="10"  x1="403.5" y1="164.6" x2="403.5" y2="49.3"/>
	<line fill="none" stroke-width="28" stroke-linecap="round" stroke-linejoin="round" stroke-miterlimit="10"  x1="403.5" y1="748.7" x2="403.5" y2="633.4"/>
	<line fill="none" stroke-width="28" stroke-linecap="round" stroke-linejoin="round" stroke-miterlimit="10"  x1="637.6" y1="397.9" x2="755.5" y2="398.7"/>
	<line fill="none" stroke-width="28" stroke-linecap="round" stroke-linejoin="round" stroke-miterlimit="10"  x1="52.5" y1="397.7" x2="167.8" y2="397.7"/>
	<line fill="none" stroke-width="28" stroke-linecap="round" stroke-linejoin="round" stroke-miterlimit="10"  x1="550.6" y1="250.8" x2="613.8" y2="188.3"/>
	<line fill="none" stroke-width="28" stroke-linecap="round" stroke-linejoin="round" stroke-miterlimit="10"  x1="193.2" y1="608.9" x2="256.4" y2="545"/>
	<line fill="none" stroke-width="28" stroke-linecap="round" stroke-linejoin="round" stroke-miterlimit="10"  x1="550.6" y1="545" x2="613.8" y2="608.9"/>
	<line fill="none" stroke-width="28" stroke-linecap="round" stroke-linejoin="round" stroke-miterlimit="10"  x1="193.2" y1="188.3" x2="256.4" y2="250.8"/>
	<polyline fill="none" stroke-width="28" stroke-linecap="round" stroke-linejoin="round" stroke-miterlimit="10"  points="119.5,324.6 192.8,397.9 119.5,471.2 	"/>
	<polyline fill="none" stroke-width="28" stroke-linecap="round" stroke-linejoin="round" stroke-miterlimit="10"  points="687.5,471.2 614.2,397.9 687.5,324.6 	"/>
	<polyline fill="none" stroke-width="28" stroke-linecap="round" stroke-linejoin="round" stroke-miterlimit="10"  points="330.2,681.9 403.5,608.6 476.8,681.9 	"/>
	<polyline fill="none" stroke-width="28" stroke-linecap="round" stroke-linejoin="round" stroke-miterlimit="10"  points="476.8,113.8 403.5,187.1 330.2,113.8 	"/>
	<polyline fill="none" stroke-width="28" stroke-linecap="round" stroke-linejoin="round" stroke-miterlimit="10"  points="169.9,545 256.4,545 256.4,631.5 	"/>
	<polyline fill="none" stroke-width="28" stroke-linecap="round" stroke-linejoin="round" stroke-miterlimit="10"  points="637.1,250.8 550.6,250.8 550.6,164.2 	"/>
	<line fill="none" stroke-width="28" stroke-linecap="round" stroke-linejoin="round" stroke-miterlimit="10"  x1="472.9" y1="328.5" x2="550.6" y2="250.8"/>
	<line fill="none" stroke-width="28" stroke-linecap="round" stroke-linejoin="round" stroke-miterlimit="10"  x1="256.4" y1="545" x2="334.1" y2="467"/>
	<polyline fill="none" stroke-width="28" stroke-linecap="round" stroke-linejoin="round" stroke-miterlimit="10"  points="256.4,164.2 256.4,250.8 169.9,250.8 	"/>
	<polyline fill="none" stroke-width="28" stroke-linecap="round" stroke-linejoin="round" stroke-miterlimit="10"  points="550.6,631.5 550.6,545 637.1,545 	"/>
	<line fill="none" stroke-width="28" stroke-linecap="round" stroke-linejoin="round" stroke-miterlimit="10"  x1="472.9" y1="467" x2="550.6" y2="545"/>
	<line fill="none" stroke-width="28" stroke-linecap="round" stroke-linejoin="round" stroke-miterlimit="10"  x1="256.4" y1="250.8" x2="334.1" y2="328.5"/>
	<line fill="none" stroke-width="28" stroke-linecap="round" stroke-linejoin="round" stroke-miterlimit="10"  x1="501.6" y1="397.7" x2="637.6" y2="397.9"/>
	<line fill="none" stroke-width="28" stroke-linecap="round" stroke-linejoin="round" stroke-miterlimit="10"  x1="169.4" y1="397.9" x2="305.4" y2="397.7"/>
	<line fill="none" stroke-width="28" stroke-linecap="round" stroke-linejoin="round" stroke-miterlimit="10"  x1="403.5" y1="495.8" x2="403.5" y2="632"/>
	<line fill="none" stroke-width="28" stroke-linecap="round" stroke-linejoin="round" stroke-miterlimit="10"  x1="403.5" y1="163.7" x2="403.5" y2="299.6"/>
	<circle fill="none" stroke-width="28" stroke-linecap="round" stroke-linejoin="round" stroke-miterlimit="10"  cx="403.5" cy="397.7" r="98.1"/>
</g>
</svg>
