<?xml version="1.0" encoding="utf-8"?>
<!-- Generator: Adobe Illustrator 19.1.0, SVG Export Plug-In . SVG Version: 6.00 Build 0)  -->
<!-- All rights reserved. Copyright: AnimatedSVG - ASVG © 2020 - https://animated-svg.com You may not reproduce, duplicate, copy or sell this intellectual property.  -->
<svg version="1.1" stroke="#000" id="Layer_1" xmlns="http://www.w3.org/2000/svg" xmlns:xlink="http://www.w3.org/1999/xlink" x="0px" y="0px" viewBox="0 0 800 800" style="enable-background:new 0 0 800 800" width="800px" height="800px" xml:space="preserve">

<g>
	<g>
		<path fill="none" stroke-width="28" stroke-linecap="round" stroke-linejoin="round" stroke-miterlimit="10"  d="M390.1,450.5c-25.8,3.8-65.8,17.3-109.3,60.8c-38.8,38.8-57,71-65.4,93.1c-45.7-52.7-152.7-203.4-73-385.1"/>
		<path fill="none" stroke-width="28" stroke-linecap="round" stroke-linejoin="round" stroke-miterlimit="10"  d="M215.4,604.3c-24.3-2.5-63.9,1.4-104.1,31.3c-7.8,5.9-16,13-23.4,20.4c-6.4,6.4-16.9,17.7-25.5,31
			c-70.8-159.6-31.1-332.1,80-467.8"/>
		<path fill="none" stroke-width="28" stroke-linecap="round" stroke-linejoin="round" stroke-miterlimit="10"  d="M390.1,450.5c3.8-25.8,17.3-65.8,60.8-109.3c38.8-38.8,71-57,93.1-65.4c-52.7-45.7-203.4-152.7-385.1-73"/>
		<path fill="none" stroke-width="28" stroke-linecap="round" stroke-linejoin="round" stroke-miterlimit="10"  d="M544,275.8c-2.5-24.3,1.4-63.9,31.3-104.1c5.9-7.8,13-16,20.4-23.4c6.4-6.4,17.7-16.9,31-25.5
			C467,52,294.5,91.7,158.8,202.8"/>
	</g>
	<path fill="none" stroke-width="28" stroke-linecap="round" stroke-linejoin="round" stroke-miterlimit="10"  d="M130.5,191l496.8,496.6c33.4,33.4,87.4,33.4,120.7,0c33.3-33.4,33.4-87.4,0-120.7"/>
</g>
</svg>
