<?xml version="1.0" encoding="UTF-8"?> <!-- Generator: Adobe Illustrator 19.0.0, SVG Export Plug-In . SVG Version: 6.00 Build 0) --> <svg xmlns="http://www.w3.org/2000/svg" xmlns:xlink="http://www.w3.org/1999/xlink" id="Capa_1" x="0px" y="0px" viewBox="0 0 384 384" style="enable-background:new 0 0 384 384;" xml:space="preserve"> <circle style="fill:#E05B49;" cx="192" cy="192" r="192"></circle> <path style="opacity:0.1;enable-background:new ;" d="M300.792,83.2l-0.01-0.01l-0.003,0.001 c-0.738-0.734-1.748-1.191-2.86-1.191H86.12C83.84,82,82,83.84,82,86.12v155.92c0,1.166,0.49,2.206,1.265,2.955l-0.006,0.006 L220.18,381.923C312.855,368.288,384,288.463,384,192c0-9.374-0.705-18.581-2.004-27.596l-81.192-81.192 C300.801,83.208,300.797,83.204,300.792,83.2z"></path> <path style="fill:#EBF0F3;" d="M187.644,234.723c-1.676-1.304-2.773-3.318-2.773-5.606c0-2.288,1.097-4.302,2.773-5.606v-9.187H94 V94.001h196v116.13h8.262c1.362,0,2.625,0.384,3.738,1.006V86.1c0-2.264-1.835-4.1-4.1-4.1H86.1c-2.265,0-4.1,1.836-4.1,4.1v155.954 c0,2.265,1.836,4.1,4.1,4.1h65.183h36.361V234.723z"></path> <path style="fill:#64798A;" d="M196.328,187.999h71.742c4.785,0,8.68,3.895,8.68,8.682v13.449H290V94.001H94v120.323h93.644v-17.643 C187.644,191.894,191.539,187.999,196.328,187.999z"></path> <polygon style="fill:#3A556A;" points="187.644,260.088 151.283,271.328 187.644,271.328 "></polygon> <polygon style="fill:#2F4859;" points="187.644,246.155 151.283,246.155 151.283,271.328 187.644,260.088 "></polygon> <g> <polygon style="fill:#64798A;" points="151.283,271.328 142.924,271.328 142.924,281.866 187.644,281.866 187.644,271.328 "></polygon> <path style="fill:#64798A;" d="M184.872,229.117c0,2.288,1.097,4.302,2.773,5.606v-11.212 C185.968,224.816,184.872,226.829,184.872,229.117z"></path> </g> <path style="fill:#E1E6E9;" d="M290,210.13v4.194H187.644v9.187c1.208-0.94,2.707-1.522,4.356-1.522 c3.937,0,7.129,3.192,7.129,7.128c0,3.937-3.192,7.129-7.129,7.129c-1.648,0-3.148-0.583-4.356-1.523v11.432h45.073H297.9 c2.264,0,4.1-1.836,4.1-4.1v-30.918c-1.114-0.621-2.376-1.006-3.738-1.006H290z"></path> <path style="fill:#2F4859;" d="M290,210.13h-13.25v-13.449c0-4.787-3.895-8.682-8.68-8.682h-71.742 c-4.789,0-8.684,3.895-8.684,8.682v17.643H290V210.13z"></path> <g> <polygon style="fill:#3A556A;" points="187.644,271.328 232.717,271.328 232.717,246.155 187.644,260.088 "></polygon> <polygon style="fill:#3A556A;" points="187.644,260.088 232.717,246.155 187.644,246.155 "></polygon> <polygon style="fill:#3A556A;" points="241.077,271.328 232.717,271.328 187.644,271.328 187.644,281.866 241.077,281.866 "></polygon> <path style="fill:#3A556A;" d="M199.129,229.117c0-3.937-3.192-7.128-7.129-7.128c-1.648,0-3.148,0.583-4.356,1.522v11.212 c1.208,0.94,2.707,1.523,4.356,1.523C195.937,236.246,199.129,233.054,199.129,229.117z"></path> </g> <path style="fill:#27A2DB;" d="M242.8,282.304h-41.137v-80.289h61.072v8.115h10.017v-13.45c0-2.585-2.096-4.681-4.681-4.681h-71.744 c-2.585,0-4.68,2.096-4.68,4.681V297.32c0,2.585,2.096,4.68,4.68,4.68h47.478c-0.621-1.114-1.005-2.376-1.005-3.739V282.304z"></path> <g> <path style="fill:#EBF0F3;" d="M232.196,298.224c-3.086,0-5.594-2.508-5.594-5.594s2.509-5.597,5.594-5.597 c3.086,0,5.599,2.511,5.599,5.597S235.282,298.224,232.196,298.224z M232.196,290.789c-1.012,0-1.839,0.826-1.839,1.841 s0.826,1.839,1.839,1.839c1.017,0,1.844-0.824,1.844-1.839S233.213,290.789,232.196,290.789z"></path> <path style="fill:#EBF0F3;" d="M201.662,202.015v80.289H242.8v-64.436c0-4.268,3.469-7.738,7.734-7.738h12.2v-8.115H201.662z"></path> </g> <path style="fill:#2D93BA;" d="M272.751,297.32V210.13h-10.017v72.174H242.8v15.957c0,1.363,0.384,2.625,1.005,3.739h24.265 C270.654,302,272.751,299.904,272.751,297.32z"></path> <path style="fill:#E1E6E9;" d="M242.8,217.868v64.436h19.934V210.13h-12.2C246.268,210.13,242.8,213.601,242.8,217.868z"></path> <path style="fill:#FCD462;" d="M298.261,214.13h-47.724c-2.064,0-3.738,1.674-3.738,3.739v80.392c0,2.065,1.674,3.739,3.738,3.739 h47.724c2.065,0,3.739-1.674,3.739-3.739v-80.392C302,215.804,300.326,214.13,298.261,214.13z"></path> <g> <rect x="254.8" y="222.12" style="fill:#64798A;" width="39.2" height="64.12"></rect> <path style="fill:#64798A;" d="M274.397,298.984c-2.465,0-4.469-2.004-4.469-4.468c0-2.465,2.004-4.471,4.469-4.471 c2.465,0,4.472,2.006,4.472,4.471C278.87,296.98,276.862,298.984,274.397,298.984z M274.397,293.044 c-0.809,0-1.469,0.66-1.469,1.471c0,0.81,0.66,1.468,1.469,1.468c0.812,0,1.472-0.658,1.472-1.468 C275.87,293.704,275.21,293.044,274.397,293.044z"></path> </g> <g> </g> <g> </g> <g> </g> <g> </g> <g> </g> <g> </g> <g> </g> <g> </g> <g> </g> <g> </g> <g> </g> <g> </g> <g> </g> <g> </g> <g> </g> </svg> 