<?xml version="1.0" encoding="UTF-8"?> <!-- Generator: Adobe Illustrator 19.0.0, SVG Export Plug-In . SVG Version: 6.00 Build 0) --> <svg xmlns="http://www.w3.org/2000/svg" xmlns:xlink="http://www.w3.org/1999/xlink" id="Layer_1" x="0px" y="0px" viewBox="0 0 511.999 511.999" style="enable-background:new 0 0 511.999 511.999;" xml:space="preserve"> <path style="fill:#AFE0EF;" d="M504.401,59.781v263.806c0,17.782-14.441,32.222-32.21,32.222H39.814 c-17.782,0.001-32.21-14.44-32.21-32.222V59.781c0-17.794,14.427-32.21,32.21-32.21h432.378 C489.96,27.572,504.401,41.987,504.401,59.781z"></path> <path style="fill:#E6F7FC;" d="M504.401,59.781v263.806c0,17.782-14.441,32.222-32.21,32.222H163.498 C394.084,290.195,401.409,27.572,401.409,27.572h70.782C489.96,27.572,504.401,41.987,504.401,59.781z"></path> <path style="fill:#C8D1DB;" d="M504.401,301.404v22.185c0,17.782-14.441,32.222-32.21,32.222H39.814 c-17.782,0-32.21-14.441-32.21-32.223v-22.184H504.401z"></path> <path style="fill:#DAE0E5;" d="M504.401,301.404v22.185c0,17.782-14.441,32.222-32.21,32.222H163.498 c43.073-12.246,78.354-31.383,107.258-54.406L504.401,301.404L504.401,301.404z"></path> <path style="fill:#3C4A5E;" d="M460.038,238.768v231.738c0,7.693-6.241,13.923-13.923,13.923H314.214 c-7.693,0-13.923-6.23-13.923-13.923V238.768c0-7.693,6.23-13.923,13.923-13.923h131.901 C453.797,224.844,460.038,231.075,460.038,238.768z"></path> <path style="fill:#4B5A6B;" d="M460.038,238.768v231.738c0,7.693-6.241,13.923-13.923,13.923H336.326 c123.714-46.594,109.79-259.585,109.79-259.585C453.797,224.844,460.038,231.075,460.038,238.768z"></path> <rect x="300.288" y="271.444" style="fill:#AFE0EF;" width="159.746" height="166.397"></rect> <path style="fill:#E6F7FC;" d="M460.038,271.439v166.395h-63.51c36.495-49.171,46.741-120.125,49.294-166.395L460.038,271.439 L460.038,271.439z"></path> <path style="fill:#C8D1DB;" d="M300.352,355.811v79.821H118.5l17.708-35.49c23.911,0,43.283-19.373,43.283-43.271v-1.06H300.352z"></path> <path style="fill:#DAE0E5;" d="M300.352,355.811v79.821h-66.38c39.745,0,35.49-35.49,35.49-35.49h-40.644 c43.209,0,44.344-44.332,44.344-44.332H300.352z"></path> <path d="M472.191,19.968H39.808C17.857,19.968,0,37.825,0,59.775v263.81c0,21.958,17.857,39.823,39.808,39.823h131.468 c-3.081,16.558-17.626,29.135-35.063,29.135c-2.882,0-5.516,1.629-6.803,4.208l-17.713,35.486c-1.177,2.357-1.049,5.156,0.337,7.396 c1.386,2.24,3.832,3.604,6.466,3.604h174.253v28.642c0,11.112,9.041,20.153,20.153,20.153h134.582 c11.112,0,20.153-9.041,20.153-20.153v-60.21c0-4.199-3.405-7.604-7.604-7.604c-4.199,0-7.604,3.405-7.604,7.604v18.58H307.959 V279.128h144.472v107.195c0,4.199,3.405,7.604,7.604,7.604s7.604-3.405,7.604-7.604v-22.915h4.552 c21.95,0,39.808-17.864,39.808-39.823V59.775C512,37.825,494.142,19.968,472.191,19.968z M15.208,323.586v-14.574h33.968 c4.199,0,7.604-3.405,7.604-7.604c0-4.199-3.405-7.604-7.604-7.604H15.208V59.775c0-13.565,11.035-24.6,24.6-24.6h432.385 c13.565,0,24.6,11.035,24.6,24.6v234.027H467.64v-56.304c0-11.112-9.041-20.153-20.153-20.153H312.904 c-11.112,0-20.153,9.041-20.153,20.153v33.919c0,0.037-0.005,0.072-0.005,0.107s0.005,0.072,0.005,0.107v22.17H74.523 c-4.199,0-7.604,3.405-7.604,7.604s3.405,7.604,7.604,7.604h218.229v39.189H179.49H39.808 C26.243,348.2,15.208,337.158,15.208,323.586z M140.915,407.751h51.217c4.199,0,7.604-3.405,7.604-7.604 c0-4.199-3.405-7.604-7.604-7.604h-19.686c7.606-7.725,12.777-17.853,14.231-29.135h106.076v29.135h-75.274 c-4.199,0-7.604,3.405-7.604,7.604c0,4.199,3.405,7.604,7.604,7.604h75.274v20.277h-161.96L140.915,407.751z M452.431,445.458 v26.423c0,2.726-2.218,4.945-4.945,4.945H312.904c-2.726,0-4.945-2.218-4.945-4.945v-26.423H452.431z M307.959,263.92v-26.423 c0-2.726,2.218-4.945,4.945-4.945h134.582c2.726,0,4.945,2.218,4.945,4.945v26.423H307.959z M472.191,348.2h-4.552v-39.189h29.152 v14.574C496.792,337.158,485.756,348.2,472.191,348.2z"></path> <path d="M175.924,238.02c4.199,0,7.604-3.405,7.604-7.604c0-66.86,54.394-121.254,121.254-121.254c4.199,0,7.604-3.405,7.604-7.604 s-3.405-7.604-7.604-7.604c-75.245,0-136.462,61.217-136.462,136.462C168.32,234.615,171.724,238.02,175.924,238.02z"></path> <path d="M304.782,136.669c-51.692,0-93.747,42.054-93.747,93.747c0,4.199,3.405,7.604,7.604,7.604c4.199,0,7.604-3.405,7.604-7.604 c0-43.307,35.232-78.539,78.539-78.539c4.199,0,7.604-3.405,7.604-7.604C312.386,140.074,308.981,136.669,304.782,136.669z"></path> <path d="M304.782,179.385c-28.139,0-51.031,22.892-51.031,51.031c0,4.199,3.405,7.604,7.604,7.604c4.199,0,7.604-3.405,7.604-7.604 c0-19.753,16.07-35.823,35.823-35.823c4.199,0,7.604-3.405,7.604-7.604C312.386,182.789,308.981,179.385,304.782,179.385z"></path> <g> </g> <g> </g> <g> </g> <g> </g> <g> </g> <g> </g> <g> </g> <g> </g> <g> </g> <g> </g> <g> </g> <g> </g> <g> </g> <g> </g> <g> </g> </svg> 